  0
SECTION
  2
HEADER
  9
$ACADVER
  1
AC1015
  9
$ACADMAINTVER
 70
     6
  9
$DWGCODEPAGE
  3
ANSI_1252
  9
$INSBASE
 10
0.0
 20
0.0
 30
0.0
  9
$EXTMIN
 10
0.0
 20
0.0
 30
0.0
  9
$EXTMAX
 10
17.0
 20
11.0
 30
0.0
  9
$LIMMIN
 10
0.0
 20
0.0
  9
$LIMMAX
 10
17.0
 20
11.0
  9
$ORTHOMODE
 70
     0
  9
$REGENMODE
 70
     1
  9
$FILLMODE
 70
     1
  9
$QTEXTMODE
 70
     0
  9
$MIRRTEXT
 70
     1
  9
$LTSCALE
 40
1.0
  9
$ATTMODE
 70
     1
  9
$TEXTSIZE
 40
0.125
  9
$TRACEWID
 40
0.05
  9
$TEXTSTYLE
  7
Standard
  9
$CLAYER
  8
0
  9
$CELTYPE
  6
ByLayer
  9
$CECOLOR
 62
   256
  9
$CELTSCALE
 40
1.0
  9
$DISPSILH
 70
     0
  9
$DIMSCALE
 40
1.0
  9
$DIMASZ
 40
0.13
  9
$DIMEXO
 40
0.05
  9
$DIMDLI
 40
0.38
  9
$DIMRND
 40
0.0
  9
$DIMDLE
 40
0.0
  9
$DIMEXE
 40
0.125
  9
$DIMTP
 40
0.0
  9
$DIMTM
 40
0.0
  9
$DIMTXT
 40
0.125
  9
$DIMCEN
 40
0.09
  9
$DIMTSZ
 40
0.0
  9
$DIMTOL
 70
     0
  9
$DIMLIM
 70
     0
  9
$DIMTIH
 70
     1
  9
$DIMTOH
 70
     1
  9
$DIMSE1
 70
     0
  9
$DIMSE2
 70
     0
  9
$DIMTAD
 70
     1
  9
$DIMZIN
 70
     0
  9
$DIMBLK
  1

  9
$DIMASO
 70
     1
  9
$DIMSHO
 70
     1
  9
$DIMPOST
  1

  9
$DIMAPOST
  1

  9
$DIMALT
 70
     0
  9
$DIMALTD
 70
     2
  9
$DIMALTF
 40
25.4
  9
$DIMLFAC
 40
1.0
  9
$DIMTOFL
 70
     0
  9
$DIMTVP
 40
0.0
  9
$DIMTIX
 70
     0
  9
$DIMSOXD
 70
     0
  9
$DIMSAH
 70
     0
  9
$DIMBLK1
  1

  9
$DIMBLK2
  1

  9
$DIMSTYLE
  2
Standard
  9
$DIMCLRD
 70
     0
  9
$DIMCLRE
 70
     0
  9
$DIMCLRT
 70
     0
  9
$DIMTFAC
 40
1.0
  9
$DIMGAP
 40
0.06
  9
$DIMJUST
 70
     0
  9
$DIMSD1
 70
     0
  9
$DIMSD2
 70
     0
  9
$DIMTOLJ
 70
     1
  9
$DIMTZIN
 70
     0
  9
$DIMALTZ
 70
     0
  9
$DIMALTTZ
 70
     0
  9
$DIMUPT
 70
     0
  9
$DIMDEC
 70
     4
  9
$DIMTDEC
 70
     4
  9
$DIMALTU
 70
     2
  9
$DIMALTTD
 70
     2
  9
$DIMTXSTY
  7
Standard
  9
$DIMAUNIT
 70
     0
  9
$DIMADEC
 70
     2
  9
$DIMALTRND
 40
0.0
  9
$DIMAZIN
 70
     0
  9
$DIMDSEP
 70
    46
  9
$DIMATFIT
 70
     3
  9
$DIMFRAC
 70
     0
  9
$DIMLDRBLK
  1

  9
$DIMLUNIT
 70
     2
  9
$DIMLWD
 70
    -2
  9
$DIMLWE
 70
    -2
  9
$DIMTMOVE
 70
     0
  9
$LUNITS
 70
     2
  9
$LUPREC
 70
     4
  9
$SKETCHINC
 40
0.1
  9
$FILLETRAD
 40
0.5
  9
$AUNITS
 70
     0
  9
$AUPREC
 70
     2
  9
$MENU
  1
.
  9
$ELEVATION
 40
0.0
  9
$PELEVATION
 40
0.0
  9
$THICKNESS
 40
0.0
  9
$LIMCHECK
 70
     0
  9
$CHAMFERA
 40
0.5
  9
$CHAMFERB
 40
0.5
  9
$CHAMFERC
 40
1.0
  9
$CHAMFERD
 40
0.0
  9
$SKPOLY
 70
     0
  9
$TDCREATE
 40
2456212.807507523
  9
$TDUCREATE
 40
2456213.09917419
  9
$TDUPDATE
 40
2456212.807507535
  9
$TDUUPDATE
 40
2456213.099174201
  9
$TDINDWG
 40
0.0000000116
  9
$TDUSRTIMER
 40
0.0000000116
  9
$USRTIMER
 70
     1
  9
$ANGBASE
 50
0.0
  9
$ANGDIR
 70
     0
  9
$PDMODE
 70
     0
  9
$PDSIZE
 40
-1.0
  9
$PLINEWID
 40
0.0
  9
$SPLFRAME
 70
     0
  9
$SPLINETYPE
 70
     6
  9
$SPLINESEGS
 70
     8
  9
$HANDSEED
  5
30B
  9
$SURFTAB1
 70
     6
  9
$SURFTAB2
 70
     6
  9
$SURFTYPE
 70
     6
  9
$SURFU
 70
     6
  9
$SURFV
 70
     6
  9
$UCSBASE
  2

  9
$UCSNAME
  2

  9
$UCSORG
 10
0.0
 20
0.0
 30
0.0
  9
$UCSXDIR
 10
1.0
 20
0.0
 30
0.0
  9
$UCSYDIR
 10
0.0
 20
1.0
 30
0.0
  9
$UCSORTHOREF
  2

  9
$UCSORTHOVIEW
 70
     0
  9
$UCSORGTOP
 10
0.0
 20
0.0
 30
0.0
  9
$UCSORGBOTTOM
 10
0.0
 20
0.0
 30
0.0
  9
$UCSORGLEFT
 10
0.0
 20
0.0
 30
0.0
  9
$UCSORGRIGHT
 10
0.0
 20
0.0
 30
0.0
  9
$UCSORGFRONT
 10
0.0
 20
0.0
 30
0.0
  9
$UCSORGBACK
 10
0.0
 20
0.0
 30
0.0
  9
$PUCSBASE
  2

  9
$PUCSNAME
  2

  9
$PUCSORG
 10
0.0
 20
0.0
 30
0.0
  9
$PUCSXDIR
 10
1.0
 20
0.0
 30
0.0
  9
$PUCSYDIR
 10
0.0
 20
1.0
 30
0.0
  9
$PUCSORTHOREF
  2

  9
$PUCSORTHOVIEW
 70
     0
  9
$PUCSORGTOP
 10
0.0
 20
0.0
 30
0.0
  9
$PUCSORGBOTTOM
 10
0.0
 20
0.0
 30
0.0
  9
$PUCSORGLEFT
 10
0.0
 20
0.0
 30
0.0
  9
$PUCSORGRIGHT
 10
0.0
 20
0.0
 30
0.0
  9
$PUCSORGFRONT
 10
0.0
 20
0.0
 30
0.0
  9
$PUCSORGBACK
 10
0.0
 20
0.0
 30
0.0
  9
$USERI1
 70
     0
  9
$USERI2
 70
     0
  9
$USERI3
 70
     0
  9
$USERI4
 70
     0
  9
$USERI5
 70
     0
  9
$USERR1
 40
0.0
  9
$USERR2
 40
0.0
  9
$USERR3
 40
0.0
  9
$USERR4
 40
0.0
  9
$USERR5
 40
0.0
  9
$WORLDVIEW
 70
     1
  9
$SHADEDGE
 70
     3
  9
$SHADEDIF
 70
    70
  9
$TILEMODE
 70
     1
  9
$MAXACTVP
 70
    64
  9
$PINSBASE
 10
0.0
 20
0.0
 30
0.0
  9
$PLIMCHECK
 70
     0
  9
$PEXTMIN
 10
1.0000000000E+20
 20
1.0000000000E+20
 30
1.0000000000E+20
  9
$PEXTMAX
 10
-1.0000000000E+20
 20
-1.0000000000E+20
 30
-1.0000000000E+20
  9
$PLIMMIN
 10
0.0
 20
0.0
  9
$PLIMMAX
 10
12.0
 20
9.0
  9
$UNITMODE
 70
     0
  9
$VISRETAIN
 70
     1
  9
$PLINEGEN
 70
     0
  9
$PSLTSCALE
 70
     1
  9
$TREEDEPTH
 70
  3020
  9
$CMLSTYLE
  2
Standard
  9
$CMLJUST
 70
     0
  9
$CMLSCALE
 40
1.0
  9
$PROXYGRAPHICS
 70
     1
  9
$MEASUREMENT
 70
     0
  9
$CELWEIGHT
370
    -1
  9
$ENDCAPS
280
     0
  9
$JOINSTYLE
280
     0
  9
$LWDISPLAY
290
     1
  9
$INSUNITS
 70
     1
  9
$HYPERLINKBASE
  1

  9
$STYLESHEET
  1

  9
$XEDIT
290
     1
  9
$CEPSNTYPE
380
     0
  9
$PSTYLEMODE
290
     1
  9
$FINGERPRINTGUID
  2
{88B09BBE-F0D2-45D6-824E-F32B7B2BA905}
  9
$VERSIONGUID
  2
{FAEB1C32-E019-11D5-929B-00C0DF256EC4}
  9
$EXTNAMES
290
     1
  9
$PSVPSCALE
 40
0.0
  9
$OLESTARTUP
290
     0
  0
ENDSEC
  0
SECTION
  2
CLASSES
  0
CLASS
  1
ACDBDICTIONARYWDFLT
  2
AcDbDictionaryWithDefault
  3
ObjectDBX Classes
 90
        0
280
     0
281
     0
  0
CLASS
  1
VISUALSTYLE
  2
AcDbVisualStyle
  3
ObjectDBX Classes
 90
     4095
280
     0
281
     0
  0
CLASS
  1
MATERIAL
  2
AcDbMaterial
  3
ObjectDBX Classes
 90
     1153
280
     0
281
     0
  0
CLASS
  1
ACDBPLACEHOLDER
  2
AcDbPlaceHolder
  3
ObjectDBX Classes
 90
        0
280
     0
281
     0
  0
CLASS
  1
LAYOUT
  2
AcDbLayout
  3
ObjectDBX Classes
 90
        0
280
     0
281
     0
  0
ENDSEC
  0
SECTION
  2
TABLES
  0
TABLE
  2
VPORT
  5
8
330
0
100
AcDbSymbolTable
 70
     1
  0
VPORT
  5
29
330
8
100
AcDbSymbolTableRecord
100
AcDbViewportTableRecord
  2
*Active
 70
     0
 10
0.0
 20
0.0
 11
1.0
 21
1.0
 12
8.5
 22
5.5
 13
0.0
 23
0.0
 14
0.5
 24
0.5
 15
0.5
 25
0.5
 16
0.0
 26
0.0
 36
1.0
 17
0.0
 27
0.0
 37
0.0
 40
11.0
 41
1.5454545455
 42
50.0
 43
0.0
 44
0.0
 50
0.0
 51
0.0
 71
     0
 72
  2000
 73
     1
 74
     3
 75
     0
 76
     0
 77
     0
 78
     0
281
     0
 65
     1
110
0.0
120
0.0
130
0.0
111
1.0
121
0.0
131
0.0
112
0.0
122
1.0
132
0.0
 79
     0
146
0.0
  0
ENDTAB
  0
TABLE
  2
LTYPE
  5
5
330
0
100
AcDbSymbolTable
 70
     6
  0
LTYPE
  5
14
330
5
100
AcDbSymbolTableRecord
100
AcDbLinetypeTableRecord
  2
ByBlock
 70
     0
  3

 72
    65
 73
     0
 40
0.0
  0
LTYPE
  5
15
330
5
100
AcDbSymbolTableRecord
100
AcDbLinetypeTableRecord
  2
ByLayer
 70
     0
  3

 72
    65
 73
     0
 40
0.0
  0
LTYPE
  5
16
330
5
100
AcDbSymbolTableRecord
100
AcDbLinetypeTableRecord
  2
Continuous
 70
     0
  3
Solid line
 72
    65
 73
     0
 40
0.0
  0
LTYPE
  5
3F
330
5
100
AcDbSymbolTableRecord
100
AcDbLinetypeTableRecord
  2
HIDDEN
 70
     0
  3
Hidden __ __ __ __ __ __ __ __ __ __ __ __ __ __
 72
    65
 73
     2
 40
0.075
 49
0.05
 74
     0
 49
-0.025
 74
     0
  0
LTYPE
  5
40
330
5
100
AcDbSymbolTableRecord
100
AcDbLinetypeTableRecord
  2
PHANTOM
 70
     0
  3
Phantom ______  __  __  ______  __  __  ______
 72
    65
 73
     6
 40
0.5
 49
0.25
 74
     0
 49
-0.05
 74
     0
 49
0.05
 74
     0
 49
-0.05
 74
     0
 49
0.05
 74
     0
 49
-0.05
 74
     0
  0
LTYPE
  5
41
330
5
100
AcDbSymbolTableRecord
100
AcDbLinetypeTableRecord
  2
CENTER
 70
     0
  3
Center ____ _ ____ _ ____ _ ____ _ ____ _ ____
 72
    65
 73
     4
 40
0.4
 49
0.25
 74
     0
 49
-0.05
 74
     0
 49
0.05
 74
     0
 49
-0.05
 74
     0
  0
LTYPE
  5
42
330
5
100
AcDbSymbolTableRecord
100
AcDbLinetypeTableRecord
  2
CENTERX2
 70
     0
  3
Center (2x) ________  __  ________  __  _____
 72
    65
 73
     4
 40
0.8
 49
0.5
 74
     0
 49
-0.1
 74
     0
 49
0.1
 74
     0
 49
-0.1
 74
     0
  0
LTYPE
  5
43
330
5
100
AcDbSymbolTableRecord
100
AcDbLinetypeTableRecord
  2
DOT2
 70
     0
  3
Dot (.5x) ........................................
 72
    65
 73
     2
 40
0.025
 49
0.0
 74
     0
 49
-0.025
 74
     0
  0
ENDTAB
  0
TABLE
  2
LAYER
  5
2
330
0
100
AcDbSymbolTable
 70
     2
  0
LAYER
  5
10
330
2
100
AcDbSymbolTableRecord
100
AcDbLayerTableRecord
  2
0
 70
     0
 62
     7
  6
Continuous
370
    -3
390
F
  0
LAYER
  5
44
330
2
100
AcDbSymbolTableRecord
100
AcDbLayerTableRecord
  2
FORMAT
 70
     0
 62
     7
  6
Continuous
370
    -3
390
F
  0
ENDTAB
  0
TABLE
  2
STYLE
  5
3
330
0
100
AcDbSymbolTable
 70
     1
  0
STYLE
  5
11
330
3
100
AcDbSymbolTableRecord
100
AcDbTextStyleTableRecord
  2
Standard
 70
     0
 40
0.0
 41
1.0
 50
0.0
 71
     0
 42
0.2
  3
txt
  4

  0
ENDTAB
  0
TABLE
  2
VIEW
  5
6
330
0
100
AcDbSymbolTable
 70
     0
  0
ENDTAB
  0
TABLE
  2
UCS
  5
7
330
0
100
AcDbSymbolTable
 70
     0
  0
ENDTAB
  0
TABLE
  2
APPID
  5
9
330
0
100
AcDbSymbolTable
 70
     1
  0
APPID
  5
12
330
9
100
AcDbSymbolTableRecord
100
AcDbRegAppTableRecord
  2
ACAD
 70
     0
  0
ENDTAB
  0
TABLE
  2
DIMSTYLE
  5
A
330
0
100
AcDbSymbolTable
 70
     1
100
AcDbDimStyleTable
  0
DIMSTYLE
105
27
330
A
100
AcDbSymbolTableRecord
100
AcDbDimStyleTableRecord
  2
Standard
 70
     0
178
     0
340
11
  0
ENDTAB
  0
TABLE
  2
BLOCK_RECORD
  5
1
330
0
100
AcDbSymbolTable
 70
     1
  0
BLOCK_RECORD
  5
1F
330
1
100
AcDbSymbolTableRecord
100
AcDbBlockTableRecord
  2
*Model_Space
340
22
  0
BLOCK_RECORD
  5
1B
330
1
100
AcDbSymbolTableRecord
100
AcDbBlockTableRecord
  2
*Paper_Space
340
1E
  0
BLOCK_RECORD
  5
23
330
1
100
AcDbSymbolTableRecord
100
AcDbBlockTableRecord
  2
*Paper_Space0
340
26
  0
ENDTAB
  0
ENDSEC
  0
SECTION
  2
BLOCKS
  0
BLOCK
  5
20
330
1F
100
AcDbEntity
  8
0
100
AcDbBlockBegin
  2
*Model_Space
 70
     0
 10
0.0
 20
0.0
 30
0.0
  3
*Model_Space
  1

  0
ENDBLK
  5
21
330
1F
100
AcDbEntity
  8
0
100
AcDbBlockEnd
  0
BLOCK
  5
1C
330
1B
100
AcDbEntity
 67
     1
  8
0
100
AcDbBlockBegin
  2
*Paper_Space
 70
     0
 10
0.0
 20
0.0
 30
0.0
  3
*Paper_Space
  1

  0
ENDBLK
  5
1D
330
1B
100
AcDbEntity
 67
     1
  8
0
100
AcDbBlockEnd
  0
BLOCK
  5
24
330
23
100
AcDbEntity
  8
0
100
AcDbBlockBegin
  2
*Paper_Space0
 70
     0
 10
0.0
 20
0.0
 30
0.0
  3
*Paper_Space0
  1

  0
ENDBLK
  5
25
330
23
100
AcDbEntity
  8
0
100
AcDbBlockEnd
  0
ENDSEC
  0
SECTION
  2
ENTITIES
  0
LINE
  5
45
330
1F
100
AcDbEntity
  8
0
  6
Continuous
 62
     7
370
     0
100
AcDbLine
 10
18.4256477516
 20
39.9322376614
 30
0.0
 11
17.4256477516
 21
39.9322376614
 31
0.0
  0
LINE
  5
46
330
1F
100
AcDbEntity
  8
0
  6
Continuous
 62
     7
370
    15
100
AcDbLine
 10
1.3230478533
 20
7.7809892933
 30
0.0
 11
1.3076038557
 21
7.9575149938
 31
0.0
  0
LINE
  5
47
330
1F
100
AcDbEntity
  8
0
  6
Continuous
 62
     7
370
    15
100
AcDbLine
 10
1.3076038557
 20
7.9575149938
 30
0.0
 11
1.108364916
 21
7.9400838452
 31
0.0
  0
LINE
  5
48
330
1F
100
AcDbEntity
  8
0
  6
Continuous
 62
     7
370
    15
100
AcDbLine
 10
1.1238089137
 20
7.7635581447
 30
0.0
 11
1.108364916
 21
7.9400838452
 31
0.0
  0
LINE
  5
49
330
1F
100
AcDbEntity
  8
0
  6
Continuous
 62
     7
370
    15
100
AcDbLine
 10
1.3230478533
 20
7.7809892933
 30
0.0
 11
1.1238089137
 21
7.7635581447
 31
0.0
  0
LINE
  5
4A
330
1F
100
AcDbEntity
  8
0
  6
Continuous
 62
     7
370
    15
100
AcDbLine
 10
3.8936743984
 20
5.7875441551
 30
0.0
 11
3.7171486979
 21
5.7721001575
 31
0.0
  0
LINE
  5
4B
330
1F
100
AcDbEntity
  8
0
  6
Continuous
 62
     7
370
    15
100
AcDbLine
 10
3.7171486979
 20
5.7721001575
 30
0.0
 11
3.7345798465
 21
5.5728612179
 31
0.0
  0
LINE
  5
4C
330
1F
100
AcDbEntity
  8
0
  6
Continuous
 62
     7
370
    15
100
AcDbLine
 10
3.911105547
 20
5.5883052155
 30
0.0
 11
3.7345798465
 21
5.5728612179
 31
0.0
  0
LINE
  5
4D
330
1F
100
AcDbEntity
  8
0
  6
Continuous
 62
     7
370
    15
100
AcDbLine
 10
3.8936743984
 20
5.7875441551
 30
0.0
 11
3.911105547
 21
5.5883052155
 31
0.0
  0
LINE
  5
4E
330
1F
100
AcDbEntity
  8
0
  6
Continuous
 62
     7
370
    15
100
AcDbLine
 10
5.8871195366
 20
8.3581707003
 30
0.0
 11
5.9025635342
 21
8.1816449998
 31
0.0
  0
LINE
  5
4F
330
1F
100
AcDbEntity
  8
0
  6
Continuous
 62
     7
370
    15
100
AcDbLine
 10
5.9025635342
 20
8.1816449998
 30
0.0
 11
6.1018024738
 21
8.1990761483
 31
0.0
  0
LINE
  5
50
330
1F
100
AcDbEntity
  8
0
  6
Continuous
 62
     7
370
    15
100
AcDbLine
 10
6.0863584762
 20
8.3756018488
 30
0.0
 11
6.1018024738
 21
8.1990761483
 31
0.0
  0
LINE
  5
51
330
1F
100
AcDbEntity
  8
0
  6
Continuous
 62
     7
370
    15
100
AcDbLine
 10
5.8871195366
 20
8.3581707003
 30
0.0
 11
6.0863584762
 21
8.3756018488
 31
0.0
  0
LINE
  5
52
330
1F
100
AcDbEntity
  8
0
  6
Continuous
 62
     7
370
    15
100
AcDbLine
 10
3.3164929914
 20
10.3516158384
 30
0.0
 11
3.4930186919
 21
10.367059836
 31
0.0
  0
LINE
  5
53
330
1F
100
AcDbEntity
  8
0
  6
Continuous
 62
     7
370
    15
100
AcDbLine
 10
3.4930186919
 20
10.367059836
 30
0.0
 11
3.4755875434
 21
10.5662987757
 31
0.0
  0
LINE
  5
54
330
1F
100
AcDbEntity
  8
0
  6
Continuous
 62
     7
370
    15
100
AcDbLine
 10
3.2990618429
 20
10.550854778
 30
0.0
 11
3.4755875434
 21
10.5662987757
 31
0.0
  0
LINE
  5
55
330
1F
100
AcDbEntity
  8
0
  6
Continuous
 62
     7
370
    15
100
AcDbLine
 10
3.3164929914
 20
10.3516158384
 30
0.0
 11
3.2990618429
 21
10.550854778
 31
0.0
  0
LINE
  5
56
330
1F
100
AcDbEntity
  8
0
  6
Continuous
 62
     7
370
    15
100
AcDbLine
 10
1.108364916
 20
8.1990761483
 30
0.0
 11
1.3076038557
 21
8.1816449998
 31
0.0
  0
LINE
  5
57
330
1F
100
AcDbEntity
  8
0
  6
Continuous
 62
     7
370
    15
100
AcDbLine
 10
1.3076038557
 20
8.1816449998
 30
0.0
 11
1.3230478533
 21
8.3581707003
 31
0.0
  0
LINE
  5
58
330
1F
100
AcDbEntity
  8
0
  6
Continuous
 62
     7
370
    15
100
AcDbLine
 10
1.1238089137
 20
8.3756018488
 30
0.0
 11
1.3230478533
 21
8.3581707003
 31
0.0
  0
LINE
  5
59
330
1F
100
AcDbEntity
  8
0
  6
Continuous
 62
     7
370
    15
100
AcDbLine
 10
1.108364916
 20
8.1990761483
 30
0.0
 11
1.1238089137
 21
8.3756018488
 31
0.0
  0
CIRCLE
  5
5A
330
1F
100
AcDbEntity
  8
0
  6
Continuous
 62
     7
370
    15
100
AcDbCircle
 10
3.6050836949
 20
8.0695799968
 30
0.0
 40
2.625
  0
LINE
  5
5B
330
1F
100
AcDbEntity
  8
0
  6
Continuous
 62
     7
370
    15
100
AcDbLine
 10
3.7345798465
 20
10.5662987757
 30
0.0
 11
3.7171486979
 21
10.367059836
 31
0.0
  0
LINE
  5
5C
330
1F
100
AcDbEntity
  8
0
  6
Continuous
 62
     7
370
    15
100
AcDbLine
 10
3.7171486979
 20
10.367059836
 30
0.0
 11
3.8936743984
 21
10.3516158384
 31
0.0
  0
LINE
  5
5D
330
1F
100
AcDbEntity
  8
0
  6
Continuous
 62
     7
370
    15
100
AcDbLine
 10
3.911105547
 20
10.550854778
 30
0.0
 11
3.8936743984
 21
10.3516158384
 31
0.0
  0
LINE
  5
5E
330
1F
100
AcDbEntity
  8
0
  6
Continuous
 62
     7
370
    15
100
AcDbLine
 10
3.7345798465
 20
10.5662987757
 30
0.0
 11
3.911105547
 21
10.550854778
 31
0.0
  0
LINE
  5
5F
330
1F
100
AcDbEntity
  8
0
  6
Continuous
 62
     7
370
    15
100
AcDbLine
 10
6.1018024738
 20
7.9400838452
 30
0.0
 11
5.9025635342
 21
7.9575149938
 31
0.0
  0
LINE
  5
60
330
1F
100
AcDbEntity
  8
0
  6
Continuous
 62
     7
370
    15
100
AcDbLine
 10
5.9025635342
 20
7.9575149938
 30
0.0
 11
5.8871195366
 21
7.7809892933
 31
0.0
  0
LINE
  5
61
330
1F
100
AcDbEntity
  8
0
  6
Continuous
 62
     7
370
    15
100
AcDbLine
 10
6.0863584762
 20
7.7635581447
 30
0.0
 11
5.8871195366
 21
7.7809892933
 31
0.0
  0
LINE
  5
62
330
1F
100
AcDbEntity
  8
0
  6
Continuous
 62
     7
370
    15
100
AcDbLine
 10
6.1018024738
 20
7.9400838452
 30
0.0
 11
6.0863584762
 21
7.7635581447
 31
0.0
  0
LINE
  5
63
330
1F
100
AcDbEntity
  8
0
  6
Continuous
 62
     7
370
    15
100
AcDbLine
 10
3.4755875434
 20
5.5728612179
 30
0.0
 11
3.4930186919
 21
5.7721001575
 31
0.0
  0
LINE
  5
64
330
1F
100
AcDbEntity
  8
0
  6
Continuous
 62
     7
370
    15
100
AcDbLine
 10
3.4930186919
 20
5.7721001575
 30
0.0
 11
3.3164929914
 21
5.7875441551
 31
0.0
  0
LINE
  5
65
330
1F
100
AcDbEntity
  8
0
  6
Continuous
 62
     7
370
    15
100
AcDbLine
 10
3.2990618429
 20
5.5883052155
 30
0.0
 11
3.3164929914
 21
5.7875441551
 31
0.0
  0
LINE
  5
66
330
1F
100
AcDbEntity
  8
0
  6
Continuous
 62
     7
370
    15
100
AcDbLine
 10
3.4755875434
 20
5.5728612179
 30
0.0
 11
3.2990618429
 21
5.5883052155
 31
0.0
  0
LINE
  5
67
330
1F
100
AcDbEntity
  8
0
  6
Continuous
 62
     7
370
    15
100
AcDbLine
 10
1.6050836949
 20
7.4195799968
 30
0.0
 11
1.3905793621
 21
7.4195799968
 31
0.0
  0
ARC
  5
68
330
1F
100
AcDbEntity
  8
0
  6
Continuous
 62
     7
370
    15
100
AcDbCircle
 10
1.3905793621
 20
7.2945799968
 30
0.0
 40
0.1250000000000004
100
AcDbArc
 50
90.0
 51
199.2882825407
  0
ARC
  5
69
330
1F
100
AcDbEntity
  8
0
  6
Continuous
 62
     7
370
    15
100
AcDbCircle
 10
3.6050836949
 20
8.0695799968
 30
0.0
 40
2.471200000000001
100
AcDbArc
 50
199.2882825407
 51
250.7117174593
  0
ARC
  5
6A
330
1F
100
AcDbEntity
  8
0
  6
Continuous
 62
     7
370
    15
100
AcDbCircle
 10
2.8300836949
 20
5.855075664
 30
0.0
 40
0.1250000000000011
100
AcDbArc
 50
250.7117174593
 51
360.0
  0
LINE
  5
6B
330
1F
100
AcDbEntity
  8
0
  6
Continuous
 62
     7
370
    15
100
AcDbLine
 10
2.9550836949
 20
6.0695799968
 30
0.0
 11
2.9550836949
 21
5.855075664
 31
0.0
  0
ARC
  5
6C
330
1F
100
AcDbEntity
  8
0
  6
Continuous
 62
     7
370
    15
100
AcDbCircle
 10
3.6050836949
 20
6.0695799968
 30
0.0
 40
0.1000000000000032
100
AcDbArc
 50
180.0
 51
360.0
  0
LINE
  5
6D
330
1F
100
AcDbEntity
  8
0
  6
Continuous
 62
     7
370
    15
100
AcDbLine
 10
3.7050836949
 20
6.0695799968
 30
0.0
 11
4.2550836949
 21
6.0695799968
 31
0.0
  0
LINE
  5
6E
330
1F
100
AcDbEntity
  8
0
  6
Continuous
 62
     7
370
    15
100
AcDbLine
 10
4.2550836949
 20
6.0695799968
 30
0.0
 11
4.2550836949
 21
5.855075664
 31
0.0
  0
ARC
  5
6F
330
1F
100
AcDbEntity
  8
0
  6
Continuous
 62
     7
370
    15
100
AcDbCircle
 10
4.3800836949
 20
5.855075664
 30
0.0
 40
0.125
100
AcDbArc
 50
180.0
 51
289.2882825407
  0
ARC
  5
70
330
1F
100
AcDbEntity
  8
0
  6
Continuous
 62
     7
370
    15
100
AcDbCircle
 10
3.6050836949
 20
8.0695799968
 30
0.0
 40
2.4712
100
AcDbArc
 50
289.2882825407
 51
340.7117174593
  0
ARC
  5
71
330
1F
100
AcDbEntity
  8
0
  6
Continuous
 62
     7
370
    15
100
AcDbCircle
 10
5.8195880277
 20
7.2945799968
 30
0.0
 40
0.1250000000000009
100
AcDbArc
 50
340.7117174593
 51
90.0
  0
LINE
  5
72
330
1F
100
AcDbEntity
  8
0
  6
Continuous
 62
     7
370
    15
100
AcDbLine
 10
5.6050836949
 20
7.4195799968
 30
0.0
 11
5.8195880277
 21
7.4195799968
 31
0.0
  0
ARC
  5
73
330
1F
100
AcDbEntity
  8
0
  6
Continuous
 62
     7
370
    15
100
AcDbCircle
 10
5.6050836949
 20
8.0695799968
 30
0.0
 40
0.1000000000000032
100
AcDbArc
 50
270.0
 51
90.0
  0
LINE
  5
74
330
1F
100
AcDbEntity
  8
0
  6
Continuous
 62
     7
370
    15
100
AcDbLine
 10
5.6050836949
 20
8.1695799968
 30
0.0
 11
5.6050836949
 21
8.7195799968
 31
0.0
  0
LINE
  5
75
330
1F
100
AcDbEntity
  8
0
  6
Continuous
 62
     7
370
    15
100
AcDbLine
 10
5.6050836949
 20
8.7195799968
 30
0.0
 11
5.8195880277
 21
8.7195799968
 31
0.0
  0
ARC
  5
76
330
1F
100
AcDbEntity
  8
0
  6
Continuous
 62
     7
370
    15
100
AcDbCircle
 10
5.8195880277
 20
8.8445799968
 30
0.0
 40
0.1250000000000006
100
AcDbArc
 50
270.0
 51
19.2882825407
  0
ARC
  5
77
330
1F
100
AcDbEntity
  8
0
  6
Continuous
 62
     7
370
    15
100
AcDbCircle
 10
3.6050836949
 20
8.0695799968
 30
0.0
 40
2.471200000000001
100
AcDbArc
 50
19.2882825407
 51
70.7117174593
  0
ARC
  5
78
330
1F
100
AcDbEntity
  8
0
  6
Continuous
 62
     7
370
    15
100
AcDbCircle
 10
4.3800836949
 20
10.2840843296
 30
0.0
 40
0.125
100
AcDbArc
 50
70.7117174593
 51
180.0
  0
LINE
  5
79
330
1F
100
AcDbEntity
  8
0
  6
Continuous
 62
     7
370
    15
100
AcDbLine
 10
4.2550836949
 20
10.0695799968
 30
0.0
 11
4.2550836949
 21
10.2840843296
 31
0.0
  0
ARC
  5
7A
330
1F
100
AcDbEntity
  8
0
  6
Continuous
 62
     7
370
    15
100
AcDbCircle
 10
3.6050836949
 20
10.0695799968
 30
0.0
 40
0.1000000000000032
100
AcDbArc
 50
0.0
 51
180.0
  0
LINE
  5
7B
330
1F
100
AcDbEntity
  8
0
  6
Continuous
 62
     7
370
    15
100
AcDbLine
 10
3.5050836949
 20
10.0695799968
 30
0.0
 11
2.9550836949
 21
10.0695799968
 31
0.0
  0
LINE
  5
7C
330
1F
100
AcDbEntity
  8
0
  6
Continuous
 62
     7
370
    15
100
AcDbLine
 10
2.9550836949
 20
10.0695799968
 30
0.0
 11
2.9550836949
 21
10.2840843296
 31
0.0
  0
ARC
  5
7D
330
1F
100
AcDbEntity
  8
0
  6
Continuous
 62
     7
370
    15
100
AcDbCircle
 10
2.8300836949
 20
10.2840843296
 30
0.0
 40
0.1250000000000006
100
AcDbArc
 50
0.0
 51
109.2882825407
  0
ARC
  5
7E
330
1F
100
AcDbEntity
  8
0
  6
Continuous
 62
     7
370
    15
100
AcDbCircle
 10
3.6050836949
 20
8.0695799968
 30
0.0
 40
2.471200000000001
100
AcDbArc
 50
109.2882825407
 51
160.7117174593
  0
ARC
  5
7F
330
1F
100
AcDbEntity
  8
0
  6
Continuous
 62
     7
370
    15
100
AcDbCircle
 10
1.3905793621
 20
8.8445799968
 30
0.0
 40
0.1250000000000018
100
AcDbArc
 50
160.7117174593
 51
270.0
  0
LINE
  5
80
330
1F
100
AcDbEntity
  8
0
  6
Continuous
 62
     7
370
    15
100
AcDbLine
 10
1.6050836949
 20
8.7195799968
 30
0.0
 11
1.3905793621
 21
8.7195799968
 31
0.0
  0
LINE
  5
81
330
1F
100
AcDbEntity
  8
0
  6
Continuous
 62
     7
370
    15
100
AcDbLine
 10
1.6050836949
 20
8.1695799968
 30
0.0
 11
1.6050836949
 21
8.7195799968
 31
0.0
  0
ARC
  5
82
330
1F
100
AcDbEntity
  8
0
  6
Continuous
 62
     7
370
    15
100
AcDbCircle
 10
1.6050836949
 20
8.0695799968
 30
0.0
 40
0.1000000000000041
100
AcDbArc
 50
90.0
 51
270.0
  0
CIRCLE
  5
83
330
1F
100
AcDbEntity
  8
0
  6
Continuous
 62
     7
370
    15
100
AcDbCircle
 10
1.3990549201
 20
7.6195799968
 30
0.0
 40
0.1249999999999947
  0
CIRCLE
  5
84
330
1F
100
AcDbEntity
  8
0
  6
Continuous
 62
     7
370
    15
100
AcDbCircle
 10
4.0550836949
 20
5.863551222
 30
0.0
 40
0.1249999999999947
  0
CIRCLE
  5
85
330
1F
100
AcDbEntity
  8
0
  6
Continuous
 62
     7
370
    15
100
AcDbCircle
 10
5.8111124697
 20
8.5195799968
 30
0.0
 40
0.1249999999999947
  0
CIRCLE
  5
86
330
1F
100
AcDbEntity
  8
0
  6
Continuous
 62
     7
370
    15
100
AcDbCircle
 10
3.1550836949
 20
10.2756087716
 30
0.0
 40
0.1249999999999947
  0
CIRCLE
  5
87
330
1F
100
AcDbEntity
  8
0
  6
Continuous
 62
     7
370
    15
100
AcDbCircle
 10
4.0550836949
 20
10.2756087716
 30
0.0
 40
0.0999999999999996
  0
CIRCLE
  5
88
330
1F
100
AcDbEntity
  8
0
  6
Continuous
 62
     7
370
    15
100
AcDbCircle
 10
5.8111124697
 20
7.6195799968
 30
0.0
 40
0.1000000000000005
  0
CIRCLE
  5
89
330
1F
100
AcDbEntity
  8
0
  6
Continuous
 62
     7
370
    15
100
AcDbCircle
 10
3.1550836949
 20
5.863551222
 30
0.0
 40
0.1000000000000005
  0
CIRCLE
  5
8A
330
1F
100
AcDbEntity
  8
0
  6
Continuous
 62
     7
370
    15
100
AcDbCircle
 10
1.3990549201
 20
8.5195799968
 30
0.0
 40
0.0999999999999999
  0
LINE
  5
8B
330
1F
100
AcDbEntity
  8
0
  6
Continuous
 62
     7
370
    15
100
AcDbLine
 10
4.2550836949
 20
10.0695799968
 30
0.0
 11
3.7050836949
 21
10.0695799968
 31
0.0
  0
LINE
  5
8C
330
1F
100
AcDbEntity
  8
0
  6
Continuous
 62
     7
370
    15
100
AcDbLine
 10
5.6050836949
 20
7.4195799968
 30
0.0
 11
5.6050836949
 21
7.9695799968
 31
0.0
  0
LINE
  5
8D
330
1F
100
AcDbEntity
  8
0
  6
Continuous
 62
     7
370
    15
100
AcDbLine
 10
2.9550836949
 20
6.0695799968
 30
0.0
 11
3.5050836949
 21
6.0695799968
 31
0.0
  0
LINE
  5
8E
330
1F
100
AcDbEntity
  8
0
  6
Continuous
 62
     7
370
    15
100
AcDbLine
 10
1.6050836949
 20
7.4195799968
 30
0.0
 11
1.6050836949
 21
7.9695799968
 31
0.0
  0
LINE
  5
8F
330
1F
100
AcDbEntity
  8
0
  6
Continuous
 62
     7
370
     0
100
AcDbLine
 10
5.9619720359
 20
5.5098239151
 30
0.0
 11
6.9619720359
 21
5.5098239151
 31
0.0
  0
ARC
  5
90
330
1F
100
AcDbEntity
  8
0
  6
Continuous
 62
     7
370
    15
100
AcDbCircle
 10
4.0777579642
 20
0.5999276087
 30
0.0
 40
0.1250000000000004
100
AcDbArc
 50
11.5369590328
 51
108.4630409672
  0
LINE
  5
91
330
1F
100
AcDbEntity
  8
0
  6
Continuous
 62
     7
370
    15
100
AcDbLine
 10
4.0509963074
 20
0.6962801579
 30
0.0
 11
4.0381713557
 21
0.7184936259
 31
0.0
  0
ARC
  5
92
330
1F
100
AcDbEntity
  8
0
  6
Continuous
 62
     7
370
    15
100
AcDbCircle
 10
4.0777579642
 20
0.5999276087
 30
0.0
 40
0.1000000000000004
100
AcDbArc
 50
14.4775121859
 51
105.5224878141
  0
LINE
  5
93
330
1F
100
AcDbEntity
  8
0
  6
Continuous
 62
     7
370
    15
100
AcDbLine
 10
4.2002324513
 20
0.6249276087
 30
0.0
 11
4.1745825478
 21
0.6249276087
 31
0.0
  0
ARC
  5
94
330
1F
100
AcDbEntity
  8
0
  6
Continuous
 62
     7
370
    15
100
AcDbCircle
 10
4.0777579642
 20
0.5999276087
 30
0.0
 40
0.1250000000000001
100
AcDbArc
 50
131.5369590328
 51
228.4630409672
  0
LINE
  5
95
330
1F
100
AcDbEntity
  8
0
  6
Continuous
 62
     7
370
    15
100
AcDbLine
 10
3.9948700855
 20
0.5063615915
 30
0.0
 11
4.0076950373
 21
0.5285750596
 31
0.0
  0
ARC
  5
96
330
1F
100
AcDbEntity
  8
0
  6
Continuous
 62
     7
370
    15
100
AcDbCircle
 10
4.0777579642
 20
0.5999276087
 30
0.0
 40
0.0999999999999996
100
AcDbArc
 50
134.4775121859
 51
225.5224878141
  0
LINE
  5
97
330
1F
100
AcDbEntity
  8
0
  6
Continuous
 62
     7
370
    15
100
AcDbLine
 10
4.0076950373
 20
0.6712801579
 30
0.0
 11
3.9948700855
 21
0.6934936259
 31
0.0
  0
ARC
  5
98
330
1F
100
AcDbEntity
  8
0
  6
Continuous
 62
     7
370
    15
100
AcDbCircle
 10
5.8322987327
 20
3.2544683772
 30
0.0
 40
0.1250000000000002
100
AcDbArc
 50
341.5369590328
 51
78.4630409672
  0
LINE
  5
99
330
1F
100
AcDbEntity
  8
0
  6
Continuous
 62
     7
370
    15
100
AcDbLine
 10
5.8572987327
 20
3.3769428644
 30
0.0
 11
5.8572987327
 21
3.3512929609
 31
0.0
  0
ARC
  5
9A
330
1F
100
AcDbEntity
  8
0
  6
Continuous
 62
     7
370
    15
100
AcDbCircle
 10
5.8322987327
 20
3.2544683772
 30
0.0
 40
0.1000000000000002
100
AcDbArc
 50
344.4775121859
 51
75.5224878141
  0
LINE
  5
9B
330
1F
100
AcDbEntity
  8
0
  6
Continuous
 62
     7
370
    15
100
AcDbLine
 10
5.9508647499
 20
3.2148817687
 30
0.0
 11
5.9286512818
 21
3.2277067205
 31
0.0
  0
ARC
  5
9C
330
1F
100
AcDbEntity
  8
0
  6
Continuous
 62
     7
370
    15
100
AcDbCircle
 10
3.1777579642
 20
5.0090091457
 30
0.0
 40
0.1250000000000002
100
AcDbArc
 50
191.5369590328
 51
288.4630409672
  0
LINE
  5
9D
330
1F
100
AcDbEntity
  8
0
  6
Continuous
 62
     7
370
    15
100
AcDbLine
 10
3.2045196209
 20
4.9126565966
 30
0.0
 11
3.2173445727
 21
4.8904431285
 31
0.0
  0
ARC
  5
9E
330
1F
100
AcDbEntity
  8
0
  6
Continuous
 62
     7
370
    15
100
AcDbCircle
 10
3.1777579642
 20
5.0090091457
 30
0.0
 40
0.1
100
AcDbArc
 50
194.4775121859
 51
285.5224878141
  0
LINE
  5
9F
330
1F
100
AcDbEntity
  8
0
  6
Continuous
 62
     7
370
    15
100
AcDbLine
 10
3.055283477
 20
4.9840091457
 30
0.0
 11
3.0809333805
 21
4.9840091457
 31
0.0
  0
ARC
  5
A0
330
1F
100
AcDbEntity
  8
0
  6
Continuous
 62
     7
370
    15
100
AcDbCircle
 10
3.1777579642
 20
5.0090091457
 30
0.0
 40
0.1250000000000008
100
AcDbArc
 50
311.5369590328
 51
48.4630409672
  0
LINE
  5
A1
330
1F
100
AcDbEntity
  8
0
  6
Continuous
 62
     7
370
    15
100
AcDbLine
 10
3.2606458428
 20
5.1025751629
 30
0.0
 11
3.2478208911
 21
5.0803616949
 31
0.0
  0
ARC
  5
A2
330
1F
100
AcDbEntity
  8
0
  6
Continuous
 62
     7
370
    15
100
AcDbCircle
 10
3.1777579642
 20
5.0090091457
 30
0.0
 40
0.0999999999999994
100
AcDbArc
 50
314.4775121859
 51
45.5224878141
  0
LINE
  5
A3
330
1F
100
AcDbEntity
  8
0
  6
Continuous
 62
     7
370
    15
100
AcDbLine
 10
3.2478208911
 20
4.9376565966
 30
0.0
 11
3.2606458428
 21
4.9154431285
 31
0.0
  0
LINE
  5
A4
330
1F
100
AcDbEntity
  8
0
  6
Continuous
 62
     7
370
    15
100
AcDbLine
 10
1.5195697448
 20
3.2277067205
 30
0.0
 11
1.5417832129
 21
3.2148817687
 31
0.0
  0
ARC
  5
A5
330
1F
100
AcDbEntity
  8
0
  6
Continuous
 62
     7
370
    15
100
AcDbCircle
 10
1.4232171957
 20
3.2544683772
 30
0.0
 40
0.1250000000000005
100
AcDbArc
 50
341.5369590328
 51
78.4630409672
  0
LINE
  5
A6
330
1F
100
AcDbEntity
  8
0
  6
Continuous
 62
     7
370
    15
100
AcDbLine
 10
1.4482171957
 20
3.3769428644
 30
0.0
 11
1.4482171957
 21
3.3512929609
 31
0.0
  0
ARC
  5
A7
330
1F
100
AcDbEntity
  8
0
  6
Continuous
 62
     7
370
    15
100
AcDbCircle
 10
1.4232171957
 20
3.2544683772
 30
0.0
 40
0.1000000000000003
100
AcDbArc
 50
344.4775121859
 51
75.5224878141
  0
LINE
  5
A8
330
1F
100
AcDbEntity
  8
0
  6
Continuous
 62
     7
370
    15
100
AcDbLine
 10
1.3982171957
 20
3.3769428644
 30
0.0
 11
1.3982171957
 21
3.3512929609
 31
0.0
  0
ARC
  5
A9
330
1F
100
AcDbEntity
  8
0
  6
Continuous
 62
     7
370
    15
100
AcDbCircle
 10
1.4232171957
 20
3.2544683772
 30
0.0
 40
0.1250000000000003
100
AcDbArc
 50
101.5369590328
 51
198.4630409672
  0
LINE
  5
AA
330
1F
100
AcDbEntity
  8
0
  6
Continuous
 62
     7
370
    15
100
AcDbLine
 10
1.3046511785
 20
3.2148817687
 30
0.0
 11
1.3268646465
 21
3.2277067205
 31
0.0
  0
ARC
  5
AB
330
1F
100
AcDbEntity
  8
0
  6
Continuous
 62
     7
370
    15
100
AcDbCircle
 10
1.4232171957
 20
3.2544683772
 30
0.0
 40
0.1000000000000002
100
AcDbArc
 50
104.4775121859
 51
195.5224878141
  0
LINE
  5
AC
330
1F
100
AcDbEntity
  8
0
  6
Continuous
 62
     7
370
    15
100
AcDbLine
 10
1.3296511785
 20
3.1715804986
 30
0.0
 11
1.3518646465
 21
3.1844054503
 31
0.0
  0
ARC
  5
AD
330
1F
100
AcDbEntity
  8
0
  6
Continuous
 62
     7
370
    15
100
AcDbCircle
 10
1.4232171957
 20
3.2544683772
 30
0.0
 40
0.1250000000000006
100
AcDbArc
 50
221.5369590328
 51
318.4630409672
  0
LINE
  5
AE
330
1F
100
AcDbEntity
  8
0
  6
Continuous
 62
     7
370
    15
100
AcDbLine
 10
1.4945697448
 20
3.1844054503
 30
0.0
 11
1.5167832129
 21
3.1715804986
 31
0.0
  0
ARC
  5
AF
330
1F
100
AcDbEntity
  8
0
  6
Continuous
 62
     7
370
    15
100
AcDbCircle
 10
1.4232171957
 20
3.2544683772
 30
0.0
 40
0.0999999999999993
100
AcDbArc
 50
224.4775121859
 51
315.5224878141
  0
ARC
  5
B0
330
1F
100
AcDbEntity
  8
0
  6
Continuous
 62
     7
370
    15
100
AcDbCircle
 10
1.4232171957
 20
2.3544683772
 30
0.0
 40
0.1250000000000003
100
AcDbArc
 50
161.5369590328
 51
258.4630409672
  0
LINE
  5
B1
330
1F
100
AcDbEntity
  8
0
  6
Continuous
 62
     7
370
    15
100
AcDbLine
 10
1.3982171957
 20
2.2319938901
 30
0.0
 11
1.3982171957
 21
2.2576437936
 31
0.0
  0
ARC
  5
B2
330
1F
100
AcDbEntity
  8
0
  6
Continuous
 62
     7
370
    15
100
AcDbCircle
 10
1.4232171957
 20
2.3544683772
 30
0.0
 40
0.1000000000000007
100
AcDbArc
 50
164.4775121859
 51
255.5224878141
  0
LINE
  5
B3
330
1F
100
AcDbEntity
  8
0
  6
Continuous
 62
     7
370
    15
100
AcDbLine
 10
1.3046511785
 20
2.3940549857
 30
0.0
 11
1.3268646465
 21
2.3812300339
 31
0.0
  0
LINE
  5
B4
330
1F
100
AcDbEntity
  8
0
  6
Continuous
 62
     7
370
    15
100
AcDbLine
 10
5.8748421871
 20
2.9120741441
 30
0.0
 11
6.0994840915
 21
2.9317277641
 31
0.0
  0
ARC
  5
B5
330
1F
100
AcDbEntity
  8
0
  6
Continuous
 62
     7
370
    15
100
AcDbCircle
 10
3.6277579642
 20
2.8044683772
 30
0.0
 40
2.475000000000001
100
AcDbArc
 50
357.0526697171
 51
2.9473302829
  0
LINE
  5
B6
330
1F
100
AcDbEntity
  8
0
  6
Continuous
 62
     7
370
    15
100
AcDbLine
 10
5.8748421871
 20
2.6968626103
 30
0.0
 11
6.0994840915
 21
2.6772089903
 31
0.0
  0
LINE
  5
B7
330
1F
100
AcDbEntity
  8
0
  6
Continuous
 62
     7
370
    15
100
AcDbLine
 10
5.8748421871
 20
2.6968626103
 30
0.0
 11
5.8593894739
 21
2.5202372904
 31
0.0
  0
LINE
  5
B8
330
1F
100
AcDbEntity
  8
0
  6
Continuous
 62
     7
370
    15
100
AcDbLine
 10
5.8593894739
 20
2.5202372904
 30
0.0
 11
6.0840313783
 21
2.5005836704
 31
0.0
  0
ARC
  5
B9
330
1F
100
AcDbEntity
  8
0
  6
Continuous
 62
     7
370
    15
100
AcDbCircle
 10
3.6277579642
 20
2.8044683772
 30
0.0
 40
2.475
100
AcDbArc
 50
277.0526697171
 51
352.9473302829
  0
LINE
  5
BA
330
1F
100
AcDbEntity
  8
0
  6
Continuous
 62
     7
370
    15
100
AcDbLine
 10
3.911989051
 20
0.5728368675
 30
0.0
 11
3.931642671
 21
0.3481949631
 31
0.0
  0
LINE
  5
BB
330
1F
100
AcDbEntity
  8
0
  6
Continuous
 62
     7
370
    15
100
AcDbLine
 10
3.911989051
 20
0.5728368675
 30
0.0
 11
3.7353637311
 21
0.5573841543
 31
0.0
  0
LINE
  5
BC
330
1F
100
AcDbEntity
  8
0
  6
Continuous
 62
     7
370
    15
100
AcDbLine
 10
3.7353637311
 20
0.5573841543
 30
0.0
 11
3.7550173511
 21
0.3327422499
 31
0.0
  0
ARC
  5
BD
330
1F
100
AcDbEntity
  8
0
  6
Continuous
 62
     7
370
    15
100
AcDbCircle
 10
3.6277579642
 20
2.8044683772
 30
0.0
 40
2.475000000000001
100
AcDbArc
 50
267.0526697171
 51
272.9473302829
  0
LINE
  5
BE
330
1F
100
AcDbEntity
  8
0
  6
Continuous
 62
     7
370
    15
100
AcDbLine
 10
3.5201521973
 20
0.5573841543
 30
0.0
 11
3.5004985773
 21
0.3327422499
 31
0.0
  0
LINE
  5
BF
330
1F
100
AcDbEntity
  8
0
  6
Continuous
 62
     7
370
    15
100
AcDbLine
 10
3.5201521973
 20
0.5573841543
 30
0.0
 11
3.3435268773
 21
0.5728368675
 31
0.0
  0
LINE
  5
C0
330
1F
100
AcDbEntity
  8
0
  6
Continuous
 62
     7
370
    15
100
AcDbLine
 10
3.3435268773
 20
0.5728368675
 30
0.0
 11
3.3238732573
 21
0.3481949631
 31
0.0
  0
ARC
  5
C1
330
1F
100
AcDbEntity
  8
0
  6
Continuous
 62
     7
370
    15
100
AcDbCircle
 10
3.6277579642
 20
2.8044683772
 30
0.0
 40
2.475000000000001
100
AcDbArc
 50
187.0526697171
 51
262.9473302829
  0
LINE
  5
C2
330
1F
100
AcDbEntity
  8
0
  6
Continuous
 62
     7
370
    15
100
AcDbLine
 10
1.3961264545
 20
2.5202372904
 30
0.0
 11
1.1714845501
 21
2.5005836704
 31
0.0
  0
LINE
  5
C3
330
1F
100
AcDbEntity
  8
0
  6
Continuous
 62
     7
370
    15
100
AcDbLine
 10
1.3961264545
 20
2.5202372904
 30
0.0
 11
1.3806737413
 21
2.6968626103
 31
0.0
  0
LINE
  5
C4
330
1F
100
AcDbEntity
  8
0
  6
Continuous
 62
     7
370
    15
100
AcDbLine
 10
1.3806737413
 20
2.6968626103
 30
0.0
 11
1.1560318369
 21
2.6772089903
 31
0.0
  0
ARC
  5
C5
330
1F
100
AcDbEntity
  8
0
  6
Continuous
 62
     7
370
    15
100
AcDbCircle
 10
3.6277579642
 20
2.8044683772
 30
0.0
 40
2.475
100
AcDbArc
 50
177.0526697171
 51
182.9473302829
  0
LINE
  5
C6
330
1F
100
AcDbEntity
  8
0
  6
Continuous
 62
     7
370
    15
100
AcDbLine
 10
1.3806737413
 20
2.9120741441
 30
0.0
 11
1.1560318369
 21
2.9317277641
 31
0.0
  0
LINE
  5
C7
330
1F
100
AcDbEntity
  8
0
  6
Continuous
 62
     7
370
    15
100
AcDbLine
 10
1.3806737413
 20
2.9120741441
 30
0.0
 11
1.3961264545
 21
3.0886994641
 31
0.0
  0
LINE
  5
C8
330
1F
100
AcDbEntity
  8
0
  6
Continuous
 62
     7
370
    15
100
AcDbLine
 10
1.3961264545
 20
3.0886994641
 30
0.0
 11
1.1714845501
 21
3.1083530841
 31
0.0
  0
ARC
  5
C9
330
1F
100
AcDbEntity
  8
0
  6
Continuous
 62
     7
370
    15
100
AcDbCircle
 10
3.6277579642
 20
2.8044683772
 30
0.0
 40
2.475
100
AcDbArc
 50
97.0526697171
 51
172.9473302829
  0
LINE
  5
CA
330
1F
100
AcDbEntity
  8
0
  6
Continuous
 62
     7
370
    15
100
AcDbLine
 10
3.3435268773
 20
5.0360998869
 30
0.0
 11
3.3238732573
 21
5.2607417913
 31
0.0
  0
LINE
  5
CB
330
1F
100
AcDbEntity
  8
0
  6
Continuous
 62
     7
370
    15
100
AcDbLine
 10
3.3435268773
 20
5.0360998869
 30
0.0
 11
3.5201521973
 21
5.0515526001
 31
0.0
  0
LINE
  5
CC
330
1F
100
AcDbEntity
  8
0
  6
Continuous
 62
     7
370
    15
100
AcDbLine
 10
3.5201521973
 20
5.0515526001
 30
0.0
 11
3.5004985773
 21
5.2761945045
 31
0.0
  0
ARC
  5
CD
330
1F
100
AcDbEntity
  8
0
  6
Continuous
 62
     7
370
    15
100
AcDbCircle
 10
3.6277579642
 20
2.8044683772
 30
0.0
 40
2.475
100
AcDbArc
 50
87.0526697171
 51
92.9473302829
  0
LINE
  5
CE
330
1F
100
AcDbEntity
  8
0
  6
Continuous
 62
     7
370
    15
100
AcDbLine
 10
3.7353637311
 20
5.0515526001
 30
0.0
 11
3.7550173511
 21
5.2761945045
 31
0.0
  0
LINE
  5
CF
330
1F
100
AcDbEntity
  8
0
  6
Continuous
 62
     7
370
    15
100
AcDbLine
 10
3.7353637311
 20
5.0515526001
 30
0.0
 11
3.911989051
 21
5.0360998869
 31
0.0
  0
LINE
  5
D0
330
1F
100
AcDbEntity
  8
0
  6
Continuous
 62
     7
370
    15
100
AcDbLine
 10
3.911989051
 20
5.0360998869
 30
0.0
 11
3.931642671
 21
5.2607417913
 31
0.0
  0
ARC
  5
D1
330
1F
100
AcDbEntity
  8
0
  6
Continuous
 62
     7
370
    15
100
AcDbCircle
 10
3.6277579642
 20
2.8044683772
 30
0.0
 40
2.475000000000001
100
AcDbArc
 50
7.0526697171
 51
82.9473302829
  0
LINE
  5
D2
330
1F
100
AcDbEntity
  8
0
  6
Continuous
 62
     7
370
    15
100
AcDbLine
 10
5.8593894739
 20
3.0886994641
 30
0.0
 11
6.0840313783
 21
3.1083530841
 31
0.0
  0
LINE
  5
D3
330
1F
100
AcDbEntity
  8
0
  6
Continuous
 62
     7
370
    15
100
AcDbLine
 10
5.8593894739
 20
3.0886994641
 30
0.0
 11
5.8748421871
 21
2.9120741441
 31
0.0
  0
ARC
  5
D4
330
1F
100
AcDbEntity
  8
0
  6
Continuous
 62
     7
370
    15
100
AcDbCircle
 10
1.4232171957
 20
2.3544683772
 30
0.0
 40
0.1250000000000003
100
AcDbArc
 50
41.5369590328
 51
138.4630409672
  0
LINE
  5
D5
330
1F
100
AcDbEntity
  8
0
  6
Continuous
 62
     7
370
    15
100
AcDbLine
 10
1.3296511785
 20
2.4373562559
 30
0.0
 11
1.3518646465
 21
2.4245313041
 31
0.0
  0
ARC
  5
D6
330
1F
100
AcDbEntity
  8
0
  6
Continuous
 62
     7
370
    15
100
AcDbCircle
 10
1.4232171957
 20
2.3544683772
 30
0.0
 40
0.0999999999999993
100
AcDbArc
 50
44.4775121859
 51
135.5224878141
  0
LINE
  5
D7
330
1F
100
AcDbEntity
  8
0
  6
Continuous
 62
     7
370
    15
100
AcDbLine
 10
1.4945697448
 20
2.4245313041
 30
0.0
 11
1.5167832129
 21
2.4373562559
 31
0.0
  0
ARC
  5
D8
330
1F
100
AcDbEntity
  8
0
  6
Continuous
 62
     7
370
    15
100
AcDbCircle
 10
1.4232171957
 20
2.3544683772
 30
0.0
 40
0.1250000000000003
100
AcDbArc
 50
281.5369590328
 51
18.4630409672
  0
LINE
  5
D9
330
1F
100
AcDbEntity
  8
0
  6
Continuous
 62
     7
370
    15
100
AcDbLine
 10
1.5195697448
 20
2.3812300339
 30
0.0
 11
1.5417832129
 21
2.3940549857
 31
0.0
  0
ARC
  5
DA
330
1F
100
AcDbEntity
  8
0
  6
Continuous
 62
     7
370
    15
100
AcDbCircle
 10
1.4232171957
 20
2.3544683772
 30
0.0
 40
0.1000000000000003
100
AcDbArc
 50
284.4775121859
 51
15.5224878141
  0
LINE
  5
DB
330
1F
100
AcDbEntity
  8
0
  6
Continuous
 62
     7
370
    15
100
AcDbLine
 10
1.4482171957
 20
2.2319938901
 30
0.0
 11
1.4482171957
 21
2.2576437936
 31
0.0
  0
ARC
  5
DC
330
1F
100
AcDbEntity
  8
0
  6
Continuous
 62
     7
370
    15
100
AcDbCircle
 10
3.1777579642
 20
5.0090091457
 30
0.0
 40
0.1250000000000001
100
AcDbArc
 50
71.5369590328
 51
168.4630409672
  0
LINE
  5
DD
330
1F
100
AcDbEntity
  8
0
  6
Continuous
 62
     7
370
    15
100
AcDbLine
 10
3.055283477
 20
5.0340091457
 30
0.0
 11
3.0809333805
 21
5.0340091457
 31
0.0
  0
ARC
  5
DE
330
1F
100
AcDbEntity
  8
0
  6
Continuous
 62
     7
370
    15
100
AcDbCircle
 10
3.1777579642
 20
5.0090091457
 30
0.0
 40
0.1000000000000004
100
AcDbArc
 50
74.4775121859
 51
165.5224878141
  0
LINE
  5
DF
330
1F
100
AcDbEntity
  8
0
  6
Continuous
 62
     7
370
    15
100
AcDbLine
 10
3.2173445727
 20
5.1275751629
 30
0.0
 11
3.2045196209
 21
5.1053616949
 31
0.0
  0
ARC
  5
E0
330
1F
100
AcDbEntity
  8
0
  6
Continuous
 62
     7
370
    15
100
AcDbCircle
 10
5.8322987327
 20
3.2544683772
 30
0.0
 40
0.1250000000000011
100
AcDbArc
 50
221.5369590328
 51
318.4630409672
  0
LINE
  5
E1
330
1F
100
AcDbEntity
  8
0
  6
Continuous
 62
     7
370
    15
100
AcDbLine
 10
5.9258647499
 20
3.1715804986
 30
0.0
 11
5.9036512818
 21
3.1844054503
 31
0.0
  0
ARC
  5
E2
330
1F
100
AcDbEntity
  8
0
  6
Continuous
 62
     7
370
    15
100
AcDbCircle
 10
5.8322987327
 20
3.2544683772
 30
0.0
 40
0.0999999999999997
100
AcDbArc
 50
224.4775121859
 51
315.5224878141
  0
LINE
  5
E3
330
1F
100
AcDbEntity
  8
0
  6
Continuous
 62
     7
370
    15
100
AcDbLine
 10
5.7609461835
 20
3.1844054503
 30
0.0
 11
5.7387327155
 21
3.1715804986
 31
0.0
  0
ARC
  5
E4
330
1F
100
AcDbEntity
  8
0
  6
Continuous
 62
     7
370
    15
100
AcDbCircle
 10
5.8322987327
 20
3.2544683772
 30
0.0
 40
0.1250000000000011
100
AcDbArc
 50
101.5369590328
 51
198.4630409672
  0
LINE
  5
E5
330
1F
100
AcDbEntity
  8
0
  6
Continuous
 62
     7
370
    15
100
AcDbLine
 10
5.7359461835
 20
3.2277067205
 30
0.0
 11
5.7137327155
 21
3.2148817687
 31
0.0
  0
ARC
  5
E6
330
1F
100
AcDbEntity
  8
0
  6
Continuous
 62
     7
370
    15
100
AcDbCircle
 10
5.8322987327
 20
3.2544683772
 30
0.0
 40
0.1000000000000004
100
AcDbArc
 50
104.4775121859
 51
195.5224878141
  0
LINE
  5
E7
330
1F
100
AcDbEntity
  8
0
  6
Continuous
 62
     7
370
    15
100
AcDbLine
 10
5.8072987327
 20
3.3769428644
 30
0.0
 11
5.8072987327
 21
3.3512929609
 31
0.0
  0
ARC
  5
E8
330
1F
100
AcDbEntity
  8
0
  6
Continuous
 62
     7
370
    15
100
AcDbCircle
 10
4.0777579642
 20
0.5999276087
 30
0.0
 40
0.125000000000001
100
AcDbArc
 50
251.5369590328
 51
348.4630409672
  0
LINE
  5
E9
330
1F
100
AcDbEntity
  8
0
  6
Continuous
 62
     7
370
    15
100
AcDbLine
 10
4.2002324513
 20
0.5749276087
 30
0.0
 11
4.1745825478
 21
0.5749276087
 31
0.0
  0
ARC
  5
EA
330
1F
100
AcDbEntity
  8
0
  6
Continuous
 62
     7
370
    15
100
AcDbCircle
 10
4.0777579642
 20
0.5999276087
 30
0.0
 40
0.1000000000000001
100
AcDbArc
 50
254.4775121859
 51
345.5224878141
  0
LINE
  5
EB
330
1F
100
AcDbEntity
  8
0
  6
Continuous
 62
     7
370
    15
100
AcDbLine
 10
4.0381713557
 20
0.4813615915
 30
0.0
 11
4.0509963074
 21
0.5035750596
 31
0.0
  0
LINE
  5
EC
330
1F
100
AcDbEntity
  8
0
  6
Continuous
 62
     7
370
    15
100
AcDbLine
 10
3.9948700855
 20
5.1025751629
 30
0.0
 11
4.0076950373
 21
5.0803616949
 31
0.0
  0
ARC
  5
ED
330
1F
100
AcDbEntity
  8
0
  6
Continuous
 62
     7
370
    15
100
AcDbCircle
 10
4.0777579642
 20
5.0090091457
 30
0.0
 40
0.125
100
AcDbArc
 50
131.5369590328
 51
228.4630409672
  0
LINE
  5
EE
330
1F
100
AcDbEntity
  8
0
  6
Continuous
 62
     7
370
    15
100
AcDbLine
 10
4.0076950373
 20
4.9376565966
 30
0.0
 11
3.9948700855
 21
4.9154431285
 31
0.0
  0
ARC
  5
EF
330
1F
100
AcDbEntity
  8
0
  6
Continuous
 62
     7
370
    15
100
AcDbCircle
 10
4.0777579642
 20
5.0090091457
 30
0.0
 40
0.0999999999999991
100
AcDbArc
 50
134.4775121859
 51
225.5224878141
  0
LINE
  5
F0
330
1F
100
AcDbEntity
  8
0
  6
Continuous
 62
     7
370
    15
100
AcDbLine
 10
4.2002324513
 20
5.0340091457
 30
0.0
 11
4.1745825478
 21
5.0340091457
 31
0.0
  0
ARC
  5
F1
330
1F
100
AcDbEntity
  8
0
  6
Continuous
 62
     7
370
    15
100
AcDbCircle
 10
4.0777579642
 20
5.0090091457
 30
0.0
 40
0.1250000000000008
100
AcDbArc
 50
11.5369590328
 51
108.4630409672
  0
LINE
  5
F2
330
1F
100
AcDbEntity
  8
0
  6
Continuous
 62
     7
370
    15
100
AcDbLine
 10
4.0381713557
 20
5.1275751629
 30
0.0
 11
4.0509963074
 21
5.1053616949
 31
0.0
  0
ARC
  5
F3
330
1F
100
AcDbEntity
  8
0
  6
Continuous
 62
     7
370
    15
100
AcDbCircle
 10
4.0777579642
 20
5.0090091457
 30
0.0
 40
0.1000000000000005
100
AcDbArc
 50
14.4775121859
 51
105.5224878141
  0
LINE
  5
F4
330
1F
100
AcDbEntity
  8
0
  6
Continuous
 62
     7
370
    15
100
AcDbLine
 10
4.0509963074
 20
4.9126565966
 30
0.0
 11
4.0381713557
 21
4.8904431285
 31
0.0
  0
ARC
  5
F5
330
1F
100
AcDbEntity
  8
0
  6
Continuous
 62
     7
370
    15
100
AcDbCircle
 10
4.0777579642
 20
5.0090091457
 30
0.0
 40
0.1250000000000004
100
AcDbArc
 50
251.5369590328
 51
348.4630409672
  0
LINE
  5
F6
330
1F
100
AcDbEntity
  8
0
  6
Continuous
 62
     7
370
    15
100
AcDbLine
 10
4.2002324513
 20
4.9840091457
 30
0.0
 11
4.1745825478
 21
4.9840091457
 31
0.0
  0
ARC
  5
F7
330
1F
100
AcDbEntity
  8
0
  6
Continuous
 62
     7
370
    15
100
AcDbCircle
 10
4.0777579642
 20
5.0090091457
 30
0.0
 40
0.0999999999999998
100
AcDbArc
 50
254.4775121859
 51
345.5224878141
  0
LINE
  5
F8
330
1F
100
AcDbEntity
  8
0
  6
Continuous
 62
     7
370
    15
100
AcDbLine
 10
5.9258647499
 20
2.4373562559
 30
0.0
 11
5.9036512818
 21
2.4245313041
 31
0.0
  0
ARC
  5
F9
330
1F
100
AcDbEntity
  8
0
  6
Continuous
 62
     7
370
    15
100
AcDbCircle
 10
5.8322987327
 20
2.3544683772
 30
0.0
 40
0.1250000000000008
100
AcDbArc
 50
41.5369590328
 51
138.4630409672
  0
LINE
  5
FA
330
1F
100
AcDbEntity
  8
0
  6
Continuous
 62
     7
370
    15
100
AcDbLine
 10
5.7609461835
 20
2.4245313041
 30
0.0
 11
5.7387327155
 21
2.4373562559
 31
0.0
  0
ARC
  5
FB
330
1F
100
AcDbEntity
  8
0
  6
Continuous
 62
     7
370
    15
100
AcDbCircle
 10
5.8322987327
 20
2.3544683772
 30
0.0
 40
0.0999999999999997
100
AcDbArc
 50
44.4775121859
 51
135.5224878141
  0
LINE
  5
FC
330
1F
100
AcDbEntity
  8
0
  6
Continuous
 62
     7
370
    15
100
AcDbLine
 10
5.8572987327
 20
2.2319938901
 30
0.0
 11
5.8572987327
 21
2.2576437936
 31
0.0
  0
ARC
  5
FD
330
1F
100
AcDbEntity
  8
0
  6
Continuous
 62
     7
370
    15
100
AcDbCircle
 10
5.8322987327
 20
2.3544683772
 30
0.0
 40
0.1250000000000002
100
AcDbArc
 50
281.5369590328
 51
18.4630409672
  0
LINE
  5
FE
330
1F
100
AcDbEntity
  8
0
  6
Continuous
 62
     7
370
    15
100
AcDbLine
 10
5.9508647499
 20
2.3940549857
 30
0.0
 11
5.9286512818
 21
2.3812300339
 31
0.0
  0
ARC
  5
FF
330
1F
100
AcDbEntity
  8
0
  6
Continuous
 62
     7
370
    15
100
AcDbCircle
 10
5.8322987327
 20
2.3544683772
 30
0.0
 40
0.1000000000000006
100
AcDbArc
 50
284.4775121859
 51
15.5224878141
  0
LINE
  5
100
330
1F
100
AcDbEntity
  8
0
  6
Continuous
 62
     7
370
    15
100
AcDbLine
 10
5.7359461835
 20
2.3812300339
 30
0.0
 11
5.7137327155
 21
2.3940549857
 31
0.0
  0
ARC
  5
101
330
1F
100
AcDbEntity
  8
0
  6
Continuous
 62
     7
370
    15
100
AcDbCircle
 10
5.8322987327
 20
2.3544683772
 30
0.0
 40
0.125000000000001
100
AcDbArc
 50
161.5369590328
 51
258.4630409672
  0
LINE
  5
102
330
1F
100
AcDbEntity
  8
0
  6
Continuous
 62
     7
370
    15
100
AcDbLine
 10
5.8072987327
 20
2.2319938901
 30
0.0
 11
5.8072987327
 21
2.2576437936
 31
0.0
  0
ARC
  5
103
330
1F
100
AcDbEntity
  8
0
  6
Continuous
 62
     7
370
    15
100
AcDbCircle
 10
5.8322987327
 20
2.3544683772
 30
0.0
 40
0.1000000000000004
100
AcDbArc
 50
164.4775121859
 51
255.5224878141
  0
LINE
  5
104
330
1F
100
AcDbEntity
  8
0
  6
Continuous
 62
     7
370
    15
100
AcDbLine
 10
3.2606458428
 20
0.5063615915
 30
0.0
 11
3.2478208911
 21
0.5285750596
 31
0.0
  0
ARC
  5
105
330
1F
100
AcDbEntity
  8
0
  6
Continuous
 62
     7
370
    15
100
AcDbCircle
 10
3.1777579642
 20
0.5999276087
 30
0.0
 40
0.1250000000000002
100
AcDbArc
 50
311.5369590328
 51
48.4630409672
  0
LINE
  5
106
330
1F
100
AcDbEntity
  8
0
  6
Continuous
 62
     7
370
    15
100
AcDbLine
 10
3.2478208911
 20
0.6712801579
 30
0.0
 11
3.2606458428
 21
0.6934936259
 31
0.0
  0
ARC
  5
107
330
1F
100
AcDbEntity
  8
0
  6
Continuous
 62
     7
370
    15
100
AcDbCircle
 10
3.1777579642
 20
0.5999276087
 30
0.0
 40
0.0999999999999992
100
AcDbArc
 50
314.4775121859
 51
45.5224878141
  0
LINE
  5
108
330
1F
100
AcDbEntity
  8
0
  6
Continuous
 62
     7
370
    15
100
AcDbLine
 10
3.055283477
 20
0.5749276087
 30
0.0
 11
3.0809333805
 21
0.5749276087
 31
0.0
  0
ARC
  5
109
330
1F
100
AcDbEntity
  8
0
  6
Continuous
 62
     7
370
    15
100
AcDbCircle
 10
3.1777579642
 20
0.5999276087
 30
0.0
 40
0.1250000000000001
100
AcDbArc
 50
191.5369590328
 51
288.4630409672
  0
LINE
  5
10A
330
1F
100
AcDbEntity
  8
0
  6
Continuous
 62
     7
370
    15
100
AcDbLine
 10
3.2173445727
 20
0.4813615915
 30
0.0
 11
3.2045196209
 21
0.5035750596
 31
0.0
  0
ARC
  5
10B
330
1F
100
AcDbEntity
  8
0
  6
Continuous
 62
     7
370
    15
100
AcDbCircle
 10
3.1777579642
 20
0.5999276087
 30
0.0
 40
0.1
100
AcDbArc
 50
194.4775121859
 51
285.5224878141
  0
LINE
  5
10C
330
1F
100
AcDbEntity
  8
0
  6
Continuous
 62
     7
370
    15
100
AcDbLine
 10
3.2045196209
 20
0.6962801579
 30
0.0
 11
3.2173445727
 21
0.7184936259
 31
0.0
  0
ARC
  5
10D
330
1F
100
AcDbEntity
  8
0
  6
Continuous
 62
     7
370
    15
100
AcDbCircle
 10
3.1777579642
 20
0.5999276087
 30
0.0
 40
0.1250000000000005
100
AcDbArc
 50
71.5369590328
 51
168.4630409672
  0
LINE
  5
10E
330
1F
100
AcDbEntity
  8
0
  6
Continuous
 62
     7
370
    15
100
AcDbLine
 10
3.055283477
 20
0.6249276087
 30
0.0
 11
3.0809333805
 21
0.6249276087
 31
0.0
  0
ARC
  5
10F
330
1F
100
AcDbEntity
  8
0
  6
Continuous
 62
     7
370
    15
100
AcDbCircle
 10
3.1777579642
 20
0.5999276087
 30
0.0
 40
0.0999999999999997
100
AcDbArc
 50
74.4775121859
 51
165.5224878141
  0
LINE
  5
110
330
1F
100
AcDbEntity
  8
0
  6
Continuous
 62
     7
370
    15
100
AcDbLine
 10
7.8472402759
 20
9.936811467
 30
0.0
 11
7.7972402759
 21
9.811811467
 31
0.0
  0
LINE
  5
111
330
1F
100
AcDbEntity
  8
0
  6
Continuous
 62
     7
370
    15
100
AcDbLine
 10
8.0607339249
 20
9.936811467
 30
0.0
 11
7.8472402759
 21
9.936811467
 31
0.0
  0
LINE
  5
112
330
1F
100
AcDbEntity
  8
0
  6
Continuous
 62
     7
370
    15
100
AcDbLine
 10
8.2772402759
 20
9.811811467
 30
0.0
 11
8.0607339249
 21
9.936811467
 31
0.0
  0
LINE
  5
113
330
1F
100
AcDbEntity
  8
0
  6
Continuous
 62
     7
370
    15
100
AcDbLine
 10
7.6522402759
 20
9.356811467
 30
0.0
 11
7.7972402759
 21
9.356811467
 31
0.0
  0
LINE
  5
114
330
1F
100
AcDbEntity
  8
0
  6
Continuous
 62
     7
370
    15
100
AcDbLine
 10
7.7972402759
 20
9.811811467
 30
0.0
 11
7.7972402759
 21
9.356811467
 31
0.0
  0
LINE
  5
115
330
1F
100
AcDbEntity
  8
0
  6
Continuous
 62
     7
370
    15
100
AcDbLine
 10
8.2772402759
 20
9.686811467
 30
0.0
 11
8.2772402759
 21
9.811811467
 31
0.0
  0
LINE
  5
116
330
1F
100
AcDbEntity
  8
0
  6
Continuous
 62
     7
370
    15
100
AcDbLine
 10
8.0272402759
 20
9.686811467
 30
0.0
 11
8.2772402759
 21
9.686811467
 31
0.0
  0
LINE
  5
117
330
1F
100
AcDbEntity
  8
0
  6
Continuous
 62
     7
370
    15
100
AcDbLine
 10
8.0272402759
 20
9.5096461126
 30
0.0
 11
8.0272402759
 21
9.686811467
 31
0.0
  0
LINE
  5
118
330
1F
100
AcDbEntity
  8
0
  6
Continuous
 62
     7
370
    15
100
AcDbLine
 10
8.2772402759
 20
9.5096461126
 30
0.0
 11
8.0272402759
 21
9.5096461126
 31
0.0
  0
LINE
  5
119
330
1F
100
AcDbEntity
  8
0
  6
Continuous
 62
     7
370
    15
100
AcDbLine
 10
8.2772402759
 20
9.3846461126
 30
0.0
 11
8.2772402759
 21
9.5096461126
 31
0.0
  0
LINE
  5
11A
330
1F
100
AcDbEntity
  8
0
  6
Continuous
 62
     7
370
    15
100
AcDbLine
 10
8.2272402759
 20
9.3846461126
 30
0.0
 11
8.2772402759
 21
9.3846461126
 31
0.0
  0
ARC
  5
11B
330
1F
100
AcDbEntity
  8
0
  6
Continuous
 62
     7
370
    15
100
AcDbCircle
 10
8.2272402759
 20
9.2596461126
 30
0.0
 40
0.125
100
AcDbArc
 50
90.0
 51
180.0
  0
LINE
  5
11C
330
1F
100
AcDbEntity
  8
0
  6
Continuous
 62
     7
370
    15
100
AcDbLine
 10
8.1022402759
 20
8.4889768213
 30
0.0
 11
8.1022402759
 21
9.2596461126
 31
0.0
  0
LINE
  5
11D
330
1F
100
AcDbEntity
  8
0
  6
Continuous
 62
     7
370
    15
100
AcDbLine
 10
7.9772402759
 20
8.4889768213
 30
0.0
 11
8.1022402759
 21
8.4889768213
 31
0.0
  0
LINE
  5
11E
330
1F
100
AcDbEntity
  8
0
  6
Continuous
 62
     7
370
    15
100
AcDbLine
 10
7.9772402759
 20
8.311811467
 30
0.0
 11
7.9772402759
 21
8.4889768213
 31
0.0
  0
LINE
  5
11F
330
1F
100
AcDbEntity
  8
0
  6
Continuous
 62
     7
370
    15
100
AcDbLine
 10
7.7772402759
 20
8.311811467
 30
0.0
 11
7.9772402759
 21
8.311811467
 31
0.0
  0
LINE
  5
120
330
1F
100
AcDbEntity
  8
0
  6
Continuous
 62
     7
370
    15
100
AcDbLine
 10
7.7772402759
 20
8.4889768213
 30
0.0
 11
7.7772402759
 21
8.311811467
 31
0.0
  0
LINE
  5
121
330
1F
100
AcDbEntity
  8
0
  6
Continuous
 62
     7
370
    15
100
AcDbLine
 10
7.6522402759
 20
8.4889768213
 30
0.0
 11
7.7772402759
 21
8.4889768213
 31
0.0
  0
LINE
  5
122
330
1F
100
AcDbEntity
  8
0
  6
Continuous
 62
     7
370
    15
100
AcDbLine
 10
7.6522402759
 20
9.356811467
 30
0.0
 11
7.6522402759
 21
8.4889768213
 31
0.0
  0
LINE
  5
123
330
1F
100
AcDbEntity
  8
0
  6
Continuous
 62
     7
370
    15
100
AcDbLine
 10
8.7572614817
 20
8.2573590749
 30
0.0
 11
8.8072614817
 21
8.3823590749
 31
0.0
  0
LINE
  5
124
330
1F
100
AcDbEntity
  8
0
  6
Continuous
 62
     7
370
    15
100
AcDbLine
 10
8.5437678327
 20
8.2573590749
 30
0.0
 11
8.7572614817
 21
8.2573590749
 31
0.0
  0
LINE
  5
125
330
1F
100
AcDbEntity
  8
0
  6
Continuous
 62
     7
370
    15
100
AcDbLine
 10
8.3272614817
 20
8.3823590749
 30
0.0
 11
8.5437678327
 21
8.2573590749
 31
0.0
  0
LINE
  5
126
330
1F
100
AcDbEntity
  8
0
  6
Continuous
 62
     7
370
    15
100
AcDbLine
 10
8.9522614817
 20
8.8373590749
 30
0.0
 11
8.8072614817
 21
8.8373590749
 31
0.0
  0
LINE
  5
127
330
1F
100
AcDbEntity
  8
0
  6
Continuous
 62
     7
370
    15
100
AcDbLine
 10
8.8072614817
 20
8.3823590749
 30
0.0
 11
8.8072614817
 21
8.8373590749
 31
0.0
  0
LINE
  5
128
330
1F
100
AcDbEntity
  8
0
  6
Continuous
 62
     7
370
    15
100
AcDbLine
 10
8.3272614817
 20
8.5073590749
 30
0.0
 11
8.3272614817
 21
8.3823590749
 31
0.0
  0
LINE
  5
129
330
1F
100
AcDbEntity
  8
0
  6
Continuous
 62
     7
370
    15
100
AcDbLine
 10
8.5772614817
 20
8.5073590749
 30
0.0
 11
8.3272614817
 21
8.5073590749
 31
0.0
  0
LINE
  5
12A
330
1F
100
AcDbEntity
  8
0
  6
Continuous
 62
     7
370
    15
100
AcDbLine
 10
8.5772614817
 20
8.6845244292
 30
0.0
 11
8.5772614817
 21
8.5073590749
 31
0.0
  0
LINE
  5
12B
330
1F
100
AcDbEntity
  8
0
  6
Continuous
 62
     7
370
    15
100
AcDbLine
 10
8.3272614817
 20
8.6845244292
 30
0.0
 11
8.5772614817
 21
8.6845244292
 31
0.0
  0
LINE
  5
12C
330
1F
100
AcDbEntity
  8
0
  6
Continuous
 62
     7
370
    15
100
AcDbLine
 10
8.3272614817
 20
8.8095244292
 30
0.0
 11
8.3272614817
 21
8.6845244292
 31
0.0
  0
LINE
  5
12D
330
1F
100
AcDbEntity
  8
0
  6
Continuous
 62
     7
370
    15
100
AcDbLine
 10
8.3772614817
 20
8.8095244292
 30
0.0
 11
8.3272614817
 21
8.8095244292
 31
0.0
  0
ARC
  5
12E
330
1F
100
AcDbEntity
  8
0
  6
Continuous
 62
     7
370
    15
100
AcDbCircle
 10
8.3772614817
 20
8.9345244292
 30
0.0
 40
0.1250000000000018
100
AcDbArc
 50
270.0
 51
0.0
  0
LINE
  5
12F
330
1F
100
AcDbEntity
  8
0
  6
Continuous
 62
     7
370
    15
100
AcDbLine
 10
8.5022614817
 20
9.7051937205
 30
0.0
 11
8.5022614817
 21
8.9345244292
 31
0.0
  0
LINE
  5
130
330
1F
100
AcDbEntity
  8
0
  6
Continuous
 62
     7
370
    15
100
AcDbLine
 10
8.6272614817
 20
9.7051937205
 30
0.0
 11
8.5022614817
 21
9.7051937205
 31
0.0
  0
LINE
  5
131
330
1F
100
AcDbEntity
  8
0
  6
Continuous
 62
     7
370
    15
100
AcDbLine
 10
8.6272614817
 20
9.8823590749
 30
0.0
 11
8.6272614817
 21
9.7051937205
 31
0.0
  0
LINE
  5
132
330
1F
100
AcDbEntity
  8
0
  6
Continuous
 62
     7
370
    15
100
AcDbLine
 10
8.8272614817
 20
9.8823590749
 30
0.0
 11
8.6272614817
 21
9.8823590749
 31
0.0
  0
LINE
  5
133
330
1F
100
AcDbEntity
  8
0
  6
Continuous
 62
     7
370
    15
100
AcDbLine
 10
8.8272614817
 20
9.7051937205
 30
0.0
 11
8.8272614817
 21
9.8823590749
 31
0.0
  0
LINE
  5
134
330
1F
100
AcDbEntity
  8
0
  6
Continuous
 62
     7
370
    15
100
AcDbLine
 10
8.9522614817
 20
9.7051937205
 30
0.0
 11
8.8272614817
 21
9.7051937205
 31
0.0
  0
LINE
  5
135
330
1F
100
AcDbEntity
  8
0
  6
Continuous
 62
     7
370
    15
100
AcDbLine
 10
8.9522614817
 20
8.8373590749
 30
0.0
 11
8.9522614817
 21
9.7051937205
 31
0.0
  0
LINE
  5
136
330
1F
100
AcDbEntity
  8
0
  6
Continuous
 62
     7
370
    15
100
AcDbLine
 10
9.3531258292
 20
10.0227282435
 30
0.0
 11
9.3031258292
 21
9.8977282435
 31
0.0
  0
LINE
  5
137
330
1F
100
AcDbEntity
  8
0
  6
Continuous
 62
     7
370
    15
100
AcDbLine
 10
9.5666194783
 20
10.0227282435
 30
0.0
 11
9.3531258292
 21
10.0227282435
 31
0.0
  0
LINE
  5
138
330
1F
100
AcDbEntity
  8
0
  6
Continuous
 62
     7
370
    15
100
AcDbLine
 10
9.7831258292
 20
9.8977282435
 30
0.0
 11
9.5666194783
 21
10.0227282435
 31
0.0
  0
LINE
  5
139
330
1F
100
AcDbEntity
  8
0
  6
Continuous
 62
     7
370
    15
100
AcDbLine
 10
9.1581258292
 20
9.4427282435
 30
0.0
 11
9.3031258292
 21
9.4427282435
 31
0.0
  0
LINE
  5
13A
330
1F
100
AcDbEntity
  8
0
  6
Continuous
 62
     7
370
    15
100
AcDbLine
 10
9.3031258292
 20
9.8977282435
 30
0.0
 11
9.3031258292
 21
9.4427282435
 31
0.0
  0
LINE
  5
13B
330
1F
100
AcDbEntity
  8
0
  6
Continuous
 62
     7
370
    15
100
AcDbLine
 10
9.7831258292
 20
9.7727282435
 30
0.0
 11
9.7831258292
 21
9.8977282435
 31
0.0
  0
LINE
  5
13C
330
1F
100
AcDbEntity
  8
0
  6
Continuous
 62
     7
370
    15
100
AcDbLine
 10
9.5331258292
 20
9.7727282435
 30
0.0
 11
9.7831258292
 21
9.7727282435
 31
0.0
  0
LINE
  5
13D
330
1F
100
AcDbEntity
  8
0
  6
Continuous
 62
     7
370
    15
100
AcDbLine
 10
9.5331258292
 20
9.5955628892
 30
0.0
 11
9.5331258292
 21
9.7727282435
 31
0.0
  0
LINE
  5
13E
330
1F
100
AcDbEntity
  8
0
  6
Continuous
 62
     7
370
    15
100
AcDbLine
 10
9.7831258292
 20
9.5955628892
 30
0.0
 11
9.5331258292
 21
9.5955628892
 31
0.0
  0
LINE
  5
13F
330
1F
100
AcDbEntity
  8
0
  6
Continuous
 62
     7
370
    15
100
AcDbLine
 10
9.7831258292
 20
9.4705628892
 30
0.0
 11
9.7831258292
 21
9.5955628892
 31
0.0
  0
LINE
  5
140
330
1F
100
AcDbEntity
  8
0
  6
Continuous
 62
     7
370
    15
100
AcDbLine
 10
9.7331258292
 20
9.4705628892
 30
0.0
 11
9.7831258292
 21
9.4705628892
 31
0.0
  0
ARC
  5
141
330
1F
100
AcDbEntity
  8
0
  6
Continuous
 62
     7
370
    15
100
AcDbCircle
 10
9.7331258292
 20
9.3455628892
 30
0.0
 40
0.125
100
AcDbArc
 50
90.0
 51
180.0
  0
LINE
  5
142
330
1F
100
AcDbEntity
  8
0
  6
Continuous
 62
     7
370
    15
100
AcDbLine
 10
9.6081258292
 20
8.5748935978
 30
0.0
 11
9.6081258292
 21
9.3455628892
 31
0.0
  0
LINE
  5
143
330
1F
100
AcDbEntity
  8
0
  6
Continuous
 62
     7
370
    15
100
AcDbLine
 10
9.4831258292
 20
8.5748935978
 30
0.0
 11
9.6081258292
 21
8.5748935978
 31
0.0
  0
LINE
  5
144
330
1F
100
AcDbEntity
  8
0
  6
Continuous
 62
     7
370
    15
100
AcDbLine
 10
9.4831258292
 20
8.3977282435
 30
0.0
 11
9.4831258292
 21
8.5748935978
 31
0.0
  0
LINE
  5
145
330
1F
100
AcDbEntity
  8
0
  6
Continuous
 62
     7
370
    15
100
AcDbLine
 10
9.2831258292
 20
8.3977282435
 30
0.0
 11
9.4831258292
 21
8.3977282435
 31
0.0
  0
LINE
  5
146
330
1F
100
AcDbEntity
  8
0
  6
Continuous
 62
     7
370
    15
100
AcDbLine
 10
9.2831258292
 20
8.5748935978
 30
0.0
 11
9.2831258292
 21
8.3977282435
 31
0.0
  0
LINE
  5
147
330
1F
100
AcDbEntity
  8
0
  6
Continuous
 62
     7
370
    15
100
AcDbLine
 10
9.1581258292
 20
8.5748935978
 30
0.0
 11
9.2831258292
 21
8.5748935978
 31
0.0
  0
LINE
  5
148
330
1F
100
AcDbEntity
  8
0
  6
Continuous
 62
     7
370
    15
100
AcDbLine
 10
9.1581258292
 20
9.4427282435
 30
0.0
 11
9.1581258292
 21
8.5748935978
 31
0.0
  0
LINE
  5
149
330
1F
100
AcDbEntity
  8
0
  6
Continuous
 62
     7
370
    15
100
AcDbLine
 10
10.263147035
 20
8.2182758514
 30
0.0
 11
10.313147035
 21
8.3432758514
 31
0.0
  0
LINE
  5
14A
330
1F
100
AcDbEntity
  8
0
  6
Continuous
 62
     7
370
    15
100
AcDbLine
 10
10.049653386
 20
8.2182758514
 30
0.0
 11
10.263147035
 21
8.2182758514
 31
0.0
  0
LINE
  5
14B
330
1F
100
AcDbEntity
  8
0
  6
Continuous
 62
     7
370
    15
100
AcDbLine
 10
9.833147035
 20
8.3432758514
 30
0.0
 11
10.049653386
 21
8.2182758514
 31
0.0
  0
LINE
  5
14C
330
1F
100
AcDbEntity
  8
0
  6
Continuous
 62
     7
370
    15
100
AcDbLine
 10
10.458147035
 20
8.7982758514
 30
0.0
 11
10.313147035
 21
8.7982758514
 31
0.0
  0
LINE
  5
14D
330
1F
100
AcDbEntity
  8
0
  6
Continuous
 62
     7
370
    15
100
AcDbLine
 10
10.313147035
 20
8.3432758514
 30
0.0
 11
10.313147035
 21
8.7982758514
 31
0.0
  0
LINE
  5
14E
330
1F
100
AcDbEntity
  8
0
  6
Continuous
 62
     7
370
    15
100
AcDbLine
 10
9.833147035
 20
8.4682758514
 30
0.0
 11
9.833147035
 21
8.3432758514
 31
0.0
  0
LINE
  5
14F
330
1F
100
AcDbEntity
  8
0
  6
Continuous
 62
     7
370
    15
100
AcDbLine
 10
10.083147035
 20
8.4682758514
 30
0.0
 11
9.833147035
 21
8.4682758514
 31
0.0
  0
LINE
  5
150
330
1F
100
AcDbEntity
  8
0
  6
Continuous
 62
     7
370
    15
100
AcDbLine
 10
10.083147035
 20
8.6454412057
 30
0.0
 11
10.083147035
 21
8.4682758514
 31
0.0
  0
LINE
  5
151
330
1F
100
AcDbEntity
  8
0
  6
Continuous
 62
     7
370
    15
100
AcDbLine
 10
9.833147035
 20
8.6454412057
 30
0.0
 11
10.083147035
 21
8.6454412057
 31
0.0
  0
LINE
  5
152
330
1F
100
AcDbEntity
  8
0
  6
Continuous
 62
     7
370
    15
100
AcDbLine
 10
9.833147035
 20
8.7704412057
 30
0.0
 11
9.833147035
 21
8.6454412057
 31
0.0
  0
LINE
  5
153
330
1F
100
AcDbEntity
  8
0
  6
Continuous
 62
     7
370
    15
100
AcDbLine
 10
9.883147035
 20
8.7704412057
 30
0.0
 11
9.833147035
 21
8.7704412057
 31
0.0
  0
ARC
  5
154
330
1F
100
AcDbEntity
  8
0
  6
Continuous
 62
     7
370
    15
100
AcDbCircle
 10
9.883147035
 20
8.8954412057
 30
0.0
 40
0.1250000000000018
100
AcDbArc
 50
270.0
 51
0.0
  0
LINE
  5
155
330
1F
100
AcDbEntity
  8
0
  6
Continuous
 62
     7
370
    15
100
AcDbLine
 10
10.008147035
 20
9.6661104971
 30
0.0
 11
10.008147035
 21
8.8954412057
 31
0.0
  0
LINE
  5
156
330
1F
100
AcDbEntity
  8
0
  6
Continuous
 62
     7
370
    15
100
AcDbLine
 10
10.133147035
 20
9.6661104971
 30
0.0
 11
10.008147035
 21
9.6661104971
 31
0.0
  0
LINE
  5
157
330
1F
100
AcDbEntity
  8
0
  6
Continuous
 62
     7
370
    15
100
AcDbLine
 10
10.133147035
 20
9.8432758514
 30
0.0
 11
10.133147035
 21
9.6661104971
 31
0.0
  0
LINE
  5
158
330
1F
100
AcDbEntity
  8
0
  6
Continuous
 62
     7
370
    15
100
AcDbLine
 10
10.333147035
 20
9.8432758514
 30
0.0
 11
10.133147035
 21
9.8432758514
 31
0.0
  0
LINE
  5
159
330
1F
100
AcDbEntity
  8
0
  6
Continuous
 62
     7
370
    15
100
AcDbLine
 10
10.333147035
 20
9.6661104971
 30
0.0
 11
10.333147035
 21
9.8432758514
 31
0.0
  0
LINE
  5
15A
330
1F
100
AcDbEntity
  8
0
  6
Continuous
 62
     7
370
    15
100
AcDbLine
 10
10.458147035
 20
9.6661104971
 30
0.0
 11
10.333147035
 21
9.6661104971
 31
0.0
  0
LINE
  5
15B
330
1F
100
AcDbEntity
  8
0
  6
Continuous
 62
     7
370
    15
100
AcDbLine
 10
10.458147035
 20
8.7982758514
 30
0.0
 11
10.458147035
 21
9.6661104971
 31
0.0
  0
LINE
  5
15C
330
1F
100
AcDbEntity
  8
0
  6
Continuous
 62
     7
370
    15
100
AcDbLine
 10
7.9633428724
 20
8.1665048969
 30
0.0
 11
7.9133428724
 21
8.0415048969
 31
0.0
  0
LINE
  5
15D
330
1F
100
AcDbEntity
  8
0
  6
Continuous
 62
     7
370
    15
100
AcDbLine
 10
8.1768365215
 20
8.1665048969
 30
0.0
 11
7.9633428724
 21
8.1665048969
 31
0.0
  0
LINE
  5
15E
330
1F
100
AcDbEntity
  8
0
  6
Continuous
 62
     7
370
    15
100
AcDbLine
 10
8.3933428724
 20
8.0415048969
 30
0.0
 11
8.1768365215
 21
8.1665048969
 31
0.0
  0
LINE
  5
15F
330
1F
100
AcDbEntity
  8
0
  6
Continuous
 62
     7
370
    15
100
AcDbLine
 10
7.7683428724
 20
7.5865048969
 30
0.0
 11
7.9133428724
 21
7.5865048969
 31
0.0
  0
LINE
  5
160
330
1F
100
AcDbEntity
  8
0
  6
Continuous
 62
     7
370
    15
100
AcDbLine
 10
7.9133428724
 20
8.0415048969
 30
0.0
 11
7.9133428724
 21
7.5865048969
 31
0.0
  0
LINE
  5
161
330
1F
100
AcDbEntity
  8
0
  6
Continuous
 62
     7
370
    15
100
AcDbLine
 10
8.3933428724
 20
7.9165048969
 30
0.0
 11
8.3933428724
 21
8.0415048969
 31
0.0
  0
LINE
  5
162
330
1F
100
AcDbEntity
  8
0
  6
Continuous
 62
     7
370
    15
100
AcDbLine
 10
8.1433428724
 20
7.9165048969
 30
0.0
 11
8.3933428724
 21
7.9165048969
 31
0.0
  0
LINE
  5
163
330
1F
100
AcDbEntity
  8
0
  6
Continuous
 62
     7
370
    15
100
AcDbLine
 10
8.1433428724
 20
7.7393395426
 30
0.0
 11
8.1433428724
 21
7.9165048969
 31
0.0
  0
LINE
  5
164
330
1F
100
AcDbEntity
  8
0
  6
Continuous
 62
     7
370
    15
100
AcDbLine
 10
8.3933428724
 20
7.7393395426
 30
0.0
 11
8.1433428724
 21
7.7393395426
 31
0.0
  0
LINE
  5
165
330
1F
100
AcDbEntity
  8
0
  6
Continuous
 62
     7
370
    15
100
AcDbLine
 10
8.3933428724
 20
7.6143395426
 30
0.0
 11
8.3933428724
 21
7.7393395426
 31
0.0
  0
LINE
  5
166
330
1F
100
AcDbEntity
  8
0
  6
Continuous
 62
     7
370
    15
100
AcDbLine
 10
8.3433428724
 20
7.6143395426
 30
0.0
 11
8.3933428724
 21
7.6143395426
 31
0.0
  0
ARC
  5
167
330
1F
100
AcDbEntity
  8
0
  6
Continuous
 62
     7
370
    15
100
AcDbCircle
 10
8.3433428724
 20
7.4893395426
 30
0.0
 40
0.125
100
AcDbArc
 50
90.0
 51
180.0
  0
LINE
  5
168
330
1F
100
AcDbEntity
  8
0
  6
Continuous
 62
     7
370
    15
100
AcDbLine
 10
8.2183428724
 20
6.7186702512
 30
0.0
 11
8.2183428724
 21
7.4893395426
 31
0.0
  0
LINE
  5
169
330
1F
100
AcDbEntity
  8
0
  6
Continuous
 62
     7
370
    15
100
AcDbLine
 10
8.0933428724
 20
6.7186702512
 30
0.0
 11
8.2183428724
 21
6.7186702512
 31
0.0
  0
LINE
  5
16A
330
1F
100
AcDbEntity
  8
0
  6
Continuous
 62
     7
370
    15
100
AcDbLine
 10
8.0933428724
 20
6.5415048969
 30
0.0
 11
8.0933428724
 21
6.7186702512
 31
0.0
  0
LINE
  5
16B
330
1F
100
AcDbEntity
  8
0
  6
Continuous
 62
     7
370
    15
100
AcDbLine
 10
7.8933428724
 20
6.5415048969
 30
0.0
 11
8.0933428724
 21
6.5415048969
 31
0.0
  0
LINE
  5
16C
330
1F
100
AcDbEntity
  8
0
  6
Continuous
 62
     7
370
    15
100
AcDbLine
 10
7.8933428724
 20
6.7186702512
 30
0.0
 11
7.8933428724
 21
6.5415048969
 31
0.0
  0
LINE
  5
16D
330
1F
100
AcDbEntity
  8
0
  6
Continuous
 62
     7
370
    15
100
AcDbLine
 10
7.7683428724
 20
6.7186702512
 30
0.0
 11
7.8933428724
 21
6.7186702512
 31
0.0
  0
LINE
  5
16E
330
1F
100
AcDbEntity
  8
0
  6
Continuous
 62
     7
370
    15
100
AcDbLine
 10
7.7683428724
 20
7.5865048969
 30
0.0
 11
7.7683428724
 21
6.7186702512
 31
0.0
  0
LINE
  5
16F
330
1F
100
AcDbEntity
  8
0
  6
Continuous
 62
     7
370
    15
100
AcDbLine
 10
8.8733640783
 20
6.3620525048
 30
0.0
 11
8.9233640783
 21
6.4870525048
 31
0.0
  0
LINE
  5
170
330
1F
100
AcDbEntity
  8
0
  6
Continuous
 62
     7
370
    15
100
AcDbLine
 10
8.6598704292
 20
6.3620525048
 30
0.0
 11
8.8733640783
 21
6.3620525048
 31
0.0
  0
LINE
  5
171
330
1F
100
AcDbEntity
  8
0
  6
Continuous
 62
     7
370
    15
100
AcDbLine
 10
8.4433640783
 20
6.4870525048
 30
0.0
 11
8.6598704292
 21
6.3620525048
 31
0.0
  0
LINE
  5
172
330
1F
100
AcDbEntity
  8
0
  6
Continuous
 62
     7
370
    15
100
AcDbLine
 10
9.0683640783
 20
6.9420525048
 30
0.0
 11
8.9233640783
 21
6.9420525048
 31
0.0
  0
LINE
  5
173
330
1F
100
AcDbEntity
  8
0
  6
Continuous
 62
     7
370
    15
100
AcDbLine
 10
8.9233640783
 20
6.4870525048
 30
0.0
 11
8.9233640783
 21
6.9420525048
 31
0.0
  0
LINE
  5
174
330
1F
100
AcDbEntity
  8
0
  6
Continuous
 62
     7
370
    15
100
AcDbLine
 10
8.4433640783
 20
6.6120525048
 30
0.0
 11
8.4433640783
 21
6.4870525048
 31
0.0
  0
LINE
  5
175
330
1F
100
AcDbEntity
  8
0
  6
Continuous
 62
     7
370
    15
100
AcDbLine
 10
8.6933640783
 20
6.6120525048
 30
0.0
 11
8.4433640783
 21
6.6120525048
 31
0.0
  0
LINE
  5
176
330
1F
100
AcDbEntity
  8
0
  6
Continuous
 62
     7
370
    15
100
AcDbLine
 10
8.6933640783
 20
6.7892178591
 30
0.0
 11
8.6933640783
 21
6.6120525048
 31
0.0
  0
LINE
  5
177
330
1F
100
AcDbEntity
  8
0
  6
Continuous
 62
     7
370
    15
100
AcDbLine
 10
8.4433640783
 20
6.7892178591
 30
0.0
 11
8.6933640783
 21
6.7892178591
 31
0.0
  0
LINE
  5
178
330
1F
100
AcDbEntity
  8
0
  6
Continuous
 62
     7
370
    15
100
AcDbLine
 10
8.4433640783
 20
6.9142178591
 30
0.0
 11
8.4433640783
 21
6.7892178591
 31
0.0
  0
LINE
  5
179
330
1F
100
AcDbEntity
  8
0
  6
Continuous
 62
     7
370
    15
100
AcDbLine
 10
8.4933640783
 20
6.9142178591
 30
0.0
 11
8.4433640783
 21
6.9142178591
 31
0.0
  0
ARC
  5
17A
330
1F
100
AcDbEntity
  8
0
  6
Continuous
 62
     7
370
    15
100
AcDbCircle
 10
8.4933640783
 20
7.0392178591
 30
0.0
 40
0.125
100
AcDbArc
 50
270.0
 51
0.0
  0
LINE
  5
17B
330
1F
100
AcDbEntity
  8
0
  6
Continuous
 62
     7
370
    15
100
AcDbLine
 10
8.6183640783
 20
7.8098871505
 30
0.0
 11
8.6183640783
 21
7.0392178591
 31
0.0
  0
LINE
  5
17C
330
1F
100
AcDbEntity
  8
0
  6
Continuous
 62
     7
370
    15
100
AcDbLine
 10
8.7433640783
 20
7.8098871505
 30
0.0
 11
8.6183640783
 21
7.8098871505
 31
0.0
  0
LINE
  5
17D
330
1F
100
AcDbEntity
  8
0
  6
Continuous
 62
     7
370
    15
100
AcDbLine
 10
8.7433640783
 20
7.9870525048
 30
0.0
 11
8.7433640783
 21
7.8098871505
 31
0.0
  0
LINE
  5
17E
330
1F
100
AcDbEntity
  8
0
  6
Continuous
 62
     7
370
    15
100
AcDbLine
 10
8.9433640783
 20
7.9870525048
 30
0.0
 11
8.7433640783
 21
7.9870525048
 31
0.0
  0
LINE
  5
17F
330
1F
100
AcDbEntity
  8
0
  6
Continuous
 62
     7
370
    15
100
AcDbLine
 10
8.9433640783
 20
7.8098871505
 30
0.0
 11
8.9433640783
 21
7.9870525048
 31
0.0
  0
LINE
  5
180
330
1F
100
AcDbEntity
  8
0
  6
Continuous
 62
     7
370
    15
100
AcDbLine
 10
9.0683640783
 20
7.8098871505
 30
0.0
 11
8.9433640783
 21
7.8098871505
 31
0.0
  0
LINE
  5
181
330
1F
100
AcDbEntity
  8
0
  6
Continuous
 62
     7
370
    15
100
AcDbLine
 10
9.0683640783
 20
6.9420525048
 30
0.0
 11
9.0683640783
 21
7.8098871505
 31
0.0
  0
LINE
  5
182
330
1F
100
AcDbEntity
  8
0
  6
Continuous
 62
     7
370
    15
100
AcDbLine
 10
9.4272906268
 20
8.0831907971
 30
0.0
 11
9.3772906268
 21
7.9581907971
 31
0.0
  0
LINE
  5
183
330
1F
100
AcDbEntity
  8
0
  6
Continuous
 62
     7
370
    15
100
AcDbLine
 10
9.6407842759
 20
8.0831907971
 30
0.0
 11
9.4272906268
 21
8.0831907971
 31
0.0
  0
LINE
  5
184
330
1F
100
AcDbEntity
  8
0
  6
Continuous
 62
     7
370
    15
100
AcDbLine
 10
9.8572906268
 20
7.9581907971
 30
0.0
 11
9.6407842759
 21
8.0831907971
 31
0.0
  0
LINE
  5
185
330
1F
100
AcDbEntity
  8
0
  6
Continuous
 62
     7
370
    15
100
AcDbLine
 10
9.2322906268
 20
7.5031907971
 30
0.0
 11
9.3772906268
 21
7.5031907971
 31
0.0
  0
LINE
  5
186
330
1F
100
AcDbEntity
  8
0
  6
Continuous
 62
     7
370
    15
100
AcDbLine
 10
9.3772906268
 20
7.9581907971
 30
0.0
 11
9.3772906268
 21
7.5031907971
 31
0.0
  0
LINE
  5
187
330
1F
100
AcDbEntity
  8
0
  6
Continuous
 62
     7
370
    15
100
AcDbLine
 10
9.8572906268
 20
7.8331907971
 30
0.0
 11
9.8572906268
 21
7.9581907971
 31
0.0
  0
LINE
  5
188
330
1F
100
AcDbEntity
  8
0
  6
Continuous
 62
     7
370
    15
100
AcDbLine
 10
9.6072906268
 20
7.8331907971
 30
0.0
 11
9.8572906268
 21
7.8331907971
 31
0.0
  0
LINE
  5
189
330
1F
100
AcDbEntity
  8
0
  6
Continuous
 62
     7
370
    15
100
AcDbLine
 10
9.6072906268
 20
7.6560254427
 30
0.0
 11
9.6072906268
 21
7.8331907971
 31
0.0
  0
LINE
  5
18A
330
1F
100
AcDbEntity
  8
0
  6
Continuous
 62
     7
370
    15
100
AcDbLine
 10
9.8572906268
 20
7.6560254427
 30
0.0
 11
9.6072906268
 21
7.6560254427
 31
0.0
  0
LINE
  5
18B
330
1F
100
AcDbEntity
  8
0
  6
Continuous
 62
     7
370
    15
100
AcDbLine
 10
9.8572906268
 20
7.5310254427
 30
0.0
 11
9.8572906268
 21
7.6560254427
 31
0.0
  0
LINE
  5
18C
330
1F
100
AcDbEntity
  8
0
  6
Continuous
 62
     7
370
    15
100
AcDbLine
 10
9.8072906268
 20
7.5310254427
 30
0.0
 11
9.8572906268
 21
7.5310254427
 31
0.0
  0
ARC
  5
18D
330
1F
100
AcDbEntity
  8
0
  6
Continuous
 62
     7
370
    15
100
AcDbCircle
 10
9.8072906268
 20
7.4060254427
 30
0.0
 40
0.125
100
AcDbArc
 50
90.0
 51
180.0
  0
LINE
  5
18E
330
1F
100
AcDbEntity
  8
0
  6
Continuous
 62
     7
370
    15
100
AcDbLine
 10
9.6822906268
 20
6.6353561514
 30
0.0
 11
9.6822906268
 21
7.4060254427
 31
0.0
  0
LINE
  5
18F
330
1F
100
AcDbEntity
  8
0
  6
Continuous
 62
     7
370
    15
100
AcDbLine
 10
9.5572906268
 20
6.6353561514
 30
0.0
 11
9.6822906268
 21
6.6353561514
 31
0.0
  0
LINE
  5
190
330
1F
100
AcDbEntity
  8
0
  6
Continuous
 62
     7
370
    15
100
AcDbLine
 10
9.5572906268
 20
6.4581907971
 30
0.0
 11
9.5572906268
 21
6.6353561514
 31
0.0
  0
LINE
  5
191
330
1F
100
AcDbEntity
  8
0
  6
Continuous
 62
     7
370
    15
100
AcDbLine
 10
9.3572906268
 20
6.4581907971
 30
0.0
 11
9.5572906268
 21
6.4581907971
 31
0.0
  0
LINE
  5
192
330
1F
100
AcDbEntity
  8
0
  6
Continuous
 62
     7
370
    15
100
AcDbLine
 10
9.3572906268
 20
6.6353561514
 30
0.0
 11
9.3572906268
 21
6.4581907971
 31
0.0
  0
LINE
  5
193
330
1F
100
AcDbEntity
  8
0
  6
Continuous
 62
     7
370
    15
100
AcDbLine
 10
9.2322906268
 20
6.6353561514
 30
0.0
 11
9.3572906268
 21
6.6353561514
 31
0.0
  0
LINE
  5
194
330
1F
100
AcDbEntity
  8
0
  6
Continuous
 62
     7
370
    15
100
AcDbLine
 10
9.2322906268
 20
7.5031907971
 30
0.0
 11
9.2322906268
 21
6.6353561514
 31
0.0
  0
LINE
  5
195
330
1F
100
AcDbEntity
  8
0
  6
Continuous
 62
     7
370
    15
100
AcDbLine
 10
10.2810906238
 20
6.3188964113
 30
0.0
 11
10.3310906238
 21
6.4438964113
 31
0.0
  0
LINE
  5
196
330
1F
100
AcDbEntity
  8
0
  6
Continuous
 62
     7
370
    15
100
AcDbLine
 10
10.0675969747
 20
6.3188964113
 30
0.0
 11
10.2810906238
 21
6.3188964113
 31
0.0
  0
LINE
  5
197
330
1F
100
AcDbEntity
  8
0
  6
Continuous
 62
     7
370
    15
100
AcDbLine
 10
9.8510906238
 20
6.4438964113
 30
0.0
 11
10.0675969747
 21
6.3188964113
 31
0.0
  0
LINE
  5
198
330
1F
100
AcDbEntity
  8
0
  6
Continuous
 62
     7
370
    15
100
AcDbLine
 10
10.4760906238
 20
6.8988964113
 30
0.0
 11
10.3310906238
 21
6.8988964113
 31
0.0
  0
LINE
  5
199
330
1F
100
AcDbEntity
  8
0
  6
Continuous
 62
     7
370
    15
100
AcDbLine
 10
10.3310906238
 20
6.4438964113
 30
0.0
 11
10.3310906238
 21
6.8988964113
 31
0.0
  0
LINE
  5
19A
330
1F
100
AcDbEntity
  8
0
  6
Continuous
 62
     7
370
    15
100
AcDbLine
 10
9.8510906238
 20
6.5688964113
 30
0.0
 11
9.8510906238
 21
6.4438964113
 31
0.0
  0
LINE
  5
19B
330
1F
100
AcDbEntity
  8
0
  6
Continuous
 62
     7
370
    15
100
AcDbLine
 10
10.1010906238
 20
6.5688964113
 30
0.0
 11
9.8510906238
 21
6.5688964113
 31
0.0
  0
LINE
  5
19C
330
1F
100
AcDbEntity
  8
0
  6
Continuous
 62
     7
370
    15
100
AcDbLine
 10
10.1010906238
 20
6.7460617657
 30
0.0
 11
10.1010906238
 21
6.5688964113
 31
0.0
  0
LINE
  5
19D
330
1F
100
AcDbEntity
  8
0
  6
Continuous
 62
     7
370
    15
100
AcDbLine
 10
9.8510906238
 20
6.7460617657
 30
0.0
 11
10.1010906238
 21
6.7460617657
 31
0.0
  0
LINE
  5
19E
330
1F
100
AcDbEntity
  8
0
  6
Continuous
 62
     7
370
    15
100
AcDbLine
 10
9.8510906238
 20
6.8710617657
 30
0.0
 11
9.8510906238
 21
6.7460617657
 31
0.0
  0
LINE
  5
19F
330
1F
100
AcDbEntity
  8
0
  6
Continuous
 62
     7
370
    15
100
AcDbLine
 10
9.9010906238
 20
6.8710617657
 30
0.0
 11
9.8510906238
 21
6.8710617657
 31
0.0
  0
ARC
  5
1A0
330
1F
100
AcDbEntity
  8
0
  6
Continuous
 62
     7
370
    15
100
AcDbCircle
 10
9.9010906238
 20
6.9960617657
 30
0.0
 40
0.125
100
AcDbArc
 50
270.0
 51
0.0
  0
LINE
  5
1A1
330
1F
100
AcDbEntity
  8
0
  6
Continuous
 62
     7
370
    15
100
AcDbLine
 10
10.0260906238
 20
7.766731057
 30
0.0
 11
10.0260906238
 21
6.9960617657
 31
0.0
  0
LINE
  5
1A2
330
1F
100
AcDbEntity
  8
0
  6
Continuous
 62
     7
370
    15
100
AcDbLine
 10
10.1510906238
 20
7.766731057
 30
0.0
 11
10.0260906238
 21
7.766731057
 31
0.0
  0
LINE
  5
1A3
330
1F
100
AcDbEntity
  8
0
  6
Continuous
 62
     7
370
    15
100
AcDbLine
 10
10.1510906238
 20
7.9438964113
 30
0.0
 11
10.1510906238
 21
7.766731057
 31
0.0
  0
LINE
  5
1A4
330
1F
100
AcDbEntity
  8
0
  6
Continuous
 62
     7
370
    15
100
AcDbLine
 10
10.3510906238
 20
7.9438964113
 30
0.0
 11
10.1510906238
 21
7.9438964113
 31
0.0
  0
LINE
  5
1A5
330
1F
100
AcDbEntity
  8
0
  6
Continuous
 62
     7
370
    15
100
AcDbLine
 10
10.3510906238
 20
7.766731057
 30
0.0
 11
10.3510906238
 21
7.9438964113
 31
0.0
  0
LINE
  5
1A6
330
1F
100
AcDbEntity
  8
0
  6
Continuous
 62
     7
370
    15
100
AcDbLine
 10
10.4760906238
 20
7.766731057
 30
0.0
 11
10.3510906238
 21
7.766731057
 31
0.0
  0
LINE
  5
1A7
330
1F
100
AcDbEntity
  8
0
  6
Continuous
 62
     7
370
    15
100
AcDbLine
 10
10.4760906238
 20
6.8988964113
 30
0.0
 11
10.4760906238
 21
7.766731057
 31
0.0
  0
LINE
  5
1A8
330
1F
100
AcDbEntity
  8
0
  6
Continuous
 62
     7
370
    15
100
AcDbLine
 10
2.4823495709
 20
9.9310232597
 30
0.0
 11
2.4323495709
 21
9.8060232597
 31
0.0
  0
LINE
  5
1A9
330
1F
100
AcDbEntity
  8
0
  6
Continuous
 62
     7
370
    15
100
AcDbLine
 10
2.69584322
 20
9.9310232597
 30
0.0
 11
2.4823495709
 21
9.9310232597
 31
0.0
  0
LINE
  5
1AA
330
1F
100
AcDbEntity
  8
0
  6
Continuous
 62
     7
370
    15
100
AcDbLine
 10
2.9123495709
 20
9.8060232597
 30
0.0
 11
2.69584322
 21
9.9310232597
 31
0.0
  0
LINE
  5
1AB
330
1F
100
AcDbEntity
  8
0
  6
Continuous
 62
     7
370
    15
100
AcDbLine
 10
2.2873495709
 20
9.2310232597
 30
0.0
 11
2.4323495709
 21
9.2310232597
 31
0.0
  0
LINE
  5
1AC
330
1F
100
AcDbEntity
  8
0
  6
Continuous
 62
     7
370
    15
100
AcDbLine
 10
2.4323495709
 20
9.8060232597
 30
0.0
 11
2.4323495709
 21
9.2310232597
 31
0.0
  0
LINE
  5
1AD
330
1F
100
AcDbEntity
  8
0
  6
Continuous
 62
     7
370
    15
100
AcDbLine
 10
2.9123495709
 20
9.6810232597
 30
0.0
 11
2.9123495709
 21
9.8060232597
 31
0.0
  0
LINE
  5
1AE
330
1F
100
AcDbEntity
  8
0
  6
Continuous
 62
     7
370
    15
100
AcDbLine
 10
2.6623495709
 20
9.6810232597
 30
0.0
 11
2.9123495709
 21
9.6810232597
 31
0.0
  0
LINE
  5
1AF
330
1F
100
AcDbEntity
  8
0
  6
Continuous
 62
     7
370
    15
100
AcDbLine
 10
2.6623495709
 20
9.5038579054
 30
0.0
 11
2.6623495709
 21
9.6810232597
 31
0.0
  0
LINE
  5
1B0
330
1F
100
AcDbEntity
  8
0
  6
Continuous
 62
     7
370
    15
100
AcDbLine
 10
2.9123495709
 20
9.5038579054
 30
0.0
 11
2.6623495709
 21
9.5038579054
 31
0.0
  0
LINE
  5
1B1
330
1F
100
AcDbEntity
  8
0
  6
Continuous
 62
     7
370
    15
100
AcDbLine
 10
2.9123495709
 20
9.3788579054
 30
0.0
 11
2.9123495709
 21
9.5038579054
 31
0.0
  0
LINE
  5
1B2
330
1F
100
AcDbEntity
  8
0
  6
Continuous
 62
     7
370
    15
100
AcDbLine
 10
2.8623495709
 20
9.3788579054
 30
0.0
 11
2.9123495709
 21
9.3788579054
 31
0.0
  0
ARC
  5
1B3
330
1F
100
AcDbEntity
  8
0
  6
Continuous
 62
     7
370
    15
100
AcDbCircle
 10
2.8623495709
 20
9.2538579054
 30
0.0
 40
0.1250000000000004
100
AcDbArc
 50
90.0
 51
180.0
  0
LINE
  5
1B4
330
1F
100
AcDbEntity
  8
0
  6
Continuous
 62
     7
370
    15
100
AcDbLine
 10
2.7373495709
 20
8.4831886141
 30
0.0
 11
2.7373495709
 21
9.2538579054
 31
0.0
  0
LINE
  5
1B5
330
1F
100
AcDbEntity
  8
0
  6
Continuous
 62
     7
370
    15
100
AcDbLine
 10
2.6123495709
 20
8.4831886141
 30
0.0
 11
2.7373495709
 21
8.4831886141
 31
0.0
  0
LINE
  5
1B6
330
1F
100
AcDbEntity
  8
0
  6
Continuous
 62
     7
370
    15
100
AcDbLine
 10
2.6123495709
 20
8.3060232597
 30
0.0
 11
2.6123495709
 21
8.4831886141
 31
0.0
  0
LINE
  5
1B7
330
1F
100
AcDbEntity
  8
0
  6
Continuous
 62
     7
370
    15
100
AcDbLine
 10
2.4123495709
 20
8.3060232597
 30
0.0
 11
2.6123495709
 21
8.3060232597
 31
0.0
  0
LINE
  5
1B8
330
1F
100
AcDbEntity
  8
0
  6
Continuous
 62
     7
370
    15
100
AcDbLine
 10
2.4123495709
 20
8.4831886141
 30
0.0
 11
2.4123495709
 21
8.3060232597
 31
0.0
  0
LINE
  5
1B9
330
1F
100
AcDbEntity
  8
0
  6
Continuous
 62
     7
370
    15
100
AcDbLine
 10
2.2873495709
 20
8.4831886141
 30
0.0
 11
2.4123495709
 21
8.4831886141
 31
0.0
  0
LINE
  5
1BA
330
1F
100
AcDbEntity
  8
0
  6
Continuous
 62
     7
370
    15
100
AcDbLine
 10
2.2873495709
 20
9.2310232597
 30
0.0
 11
2.2873495709
 21
8.4831886141
 31
0.0
  0
LINE
  5
1BB
330
1F
100
AcDbEntity
  8
0
  6
Continuous
 62
     7
370
    15
100
AcDbLine
 10
3.3409741283
 20
8.2491185625
 30
0.0
 11
3.3909741283
 21
8.3741185625
 31
0.0
  0
LINE
  5
1BC
330
1F
100
AcDbEntity
  8
0
  6
Continuous
 62
     7
370
    15
100
AcDbLine
 10
3.1274804793
 20
8.2491185625
 30
0.0
 11
3.3409741283
 21
8.2491185625
 31
0.0
  0
LINE
  5
1BD
330
1F
100
AcDbEntity
  8
0
  6
Continuous
 62
     7
370
    15
100
AcDbLine
 10
2.9109741283
 20
8.3741185625
 30
0.0
 11
3.1274804793
 21
8.2491185625
 31
0.0
  0
LINE
  5
1BE
330
1F
100
AcDbEntity
  8
0
  6
Continuous
 62
     7
370
    15
100
AcDbLine
 10
3.5359741283
 20
8.9491185625
 30
0.0
 11
3.3909741283
 21
8.9491185625
 31
0.0
  0
LINE
  5
1BF
330
1F
100
AcDbEntity
  8
0
  6
Continuous
 62
     7
370
    15
100
AcDbLine
 10
3.3909741283
 20
8.3741185625
 30
0.0
 11
3.3909741283
 21
8.9491185625
 31
0.0
  0
LINE
  5
1C0
330
1F
100
AcDbEntity
  8
0
  6
Continuous
 62
     7
370
    15
100
AcDbLine
 10
2.9109741283
 20
8.4991185625
 30
0.0
 11
2.9109741283
 21
8.3741185625
 31
0.0
  0
LINE
  5
1C1
330
1F
100
AcDbEntity
  8
0
  6
Continuous
 62
     7
370
    15
100
AcDbLine
 10
3.1609741283
 20
8.4991185625
 30
0.0
 11
2.9109741283
 21
8.4991185625
 31
0.0
  0
LINE
  5
1C2
330
1F
100
AcDbEntity
  8
0
  6
Continuous
 62
     7
370
    15
100
AcDbLine
 10
3.1609741283
 20
8.6762839168
 30
0.0
 11
3.1609741283
 21
8.4991185625
 31
0.0
  0
LINE
  5
1C3
330
1F
100
AcDbEntity
  8
0
  6
Continuous
 62
     7
370
    15
100
AcDbLine
 10
2.9109741283
 20
8.6762839168
 30
0.0
 11
3.1609741283
 21
8.6762839168
 31
0.0
  0
LINE
  5
1C4
330
1F
100
AcDbEntity
  8
0
  6
Continuous
 62
     7
370
    15
100
AcDbLine
 10
2.9109741283
 20
8.8012839168
 30
0.0
 11
2.9109741283
 21
8.6762839168
 31
0.0
  0
LINE
  5
1C5
330
1F
100
AcDbEntity
  8
0
  6
Continuous
 62
     7
370
    15
100
AcDbLine
 10
2.9609741283
 20
8.8012839168
 30
0.0
 11
2.9109741283
 21
8.8012839168
 31
0.0
  0
ARC
  5
1C6
330
1F
100
AcDbEntity
  8
0
  6
Continuous
 62
     7
370
    15
100
AcDbCircle
 10
2.9609741283
 20
8.9262839168
 30
0.0
 40
0.1250000000000004
100
AcDbArc
 50
270.0
 51
0.0
  0
LINE
  5
1C7
330
1F
100
AcDbEntity
  8
0
  6
Continuous
 62
     7
370
    15
100
AcDbLine
 10
3.0859741283
 20
9.6969532082
 30
0.0
 11
3.0859741283
 21
8.9262839168
 31
0.0
  0
LINE
  5
1C8
330
1F
100
AcDbEntity
  8
0
  6
Continuous
 62
     7
370
    15
100
AcDbLine
 10
3.2109741283
 20
9.6969532082
 30
0.0
 11
3.0859741283
 21
9.6969532082
 31
0.0
  0
LINE
  5
1C9
330
1F
100
AcDbEntity
  8
0
  6
Continuous
 62
     7
370
    15
100
AcDbLine
 10
3.2109741283
 20
9.8741185625
 30
0.0
 11
3.2109741283
 21
9.6969532082
 31
0.0
  0
LINE
  5
1CA
330
1F
100
AcDbEntity
  8
0
  6
Continuous
 62
     7
370
    15
100
AcDbLine
 10
3.4109741283
 20
9.8741185625
 30
0.0
 11
3.2109741283
 21
9.8741185625
 31
0.0
  0
LINE
  5
1CB
330
1F
100
AcDbEntity
  8
0
  6
Continuous
 62
     7
370
    15
100
AcDbLine
 10
3.4109741283
 20
9.6969532082
 30
0.0
 11
3.4109741283
 21
9.8741185625
 31
0.0
  0
LINE
  5
1CC
330
1F
100
AcDbEntity
  8
0
  6
Continuous
 62
     7
370
    15
100
AcDbLine
 10
3.5359741283
 20
9.6969532082
 30
0.0
 11
3.4109741283
 21
9.6969532082
 31
0.0
  0
LINE
  5
1CD
330
1F
100
AcDbEntity
  8
0
  6
Continuous
 62
     7
370
    15
100
AcDbLine
 10
3.5359741283
 20
8.9491185625
 30
0.0
 11
3.5359741283
 21
9.6969532082
 31
0.0
  0
LINE
  5
1CE
330
1F
100
AcDbEntity
  8
0
  6
Continuous
 62
     7
370
    15
100
AcDbLine
 10
3.8714171246
 20
9.8855896936
 30
0.0
 11
3.8214171246
 21
9.7605896936
 31
0.0
  0
LINE
  5
1CF
330
1F
100
AcDbEntity
  8
0
  6
Continuous
 62
     7
370
    15
100
AcDbLine
 10
4.0849107737
 20
9.8855896936
 30
0.0
 11
3.8714171246
 21
9.8855896936
 31
0.0
  0
LINE
  5
1D0
330
1F
100
AcDbEntity
  8
0
  6
Continuous
 62
     7
370
    15
100
AcDbLine
 10
4.3014171246
 20
9.7605896936
 30
0.0
 11
4.0849107737
 21
9.8855896936
 31
0.0
  0
LINE
  5
1D1
330
1F
100
AcDbEntity
  8
0
  6
Continuous
 62
     7
370
    15
100
AcDbLine
 10
3.6764171246
 20
9.1855896936
 30
0.0
 11
3.8214171246
 21
9.1855896936
 31
0.0
  0
LINE
  5
1D2
330
1F
100
AcDbEntity
  8
0
  6
Continuous
 62
     7
370
    15
100
AcDbLine
 10
3.8214171246
 20
9.7605896936
 30
0.0
 11
3.8214171246
 21
9.1855896936
 31
0.0
  0
LINE
  5
1D3
330
1F
100
AcDbEntity
  8
0
  6
Continuous
 62
     7
370
    15
100
AcDbLine
 10
4.3014171246
 20
9.6355896936
 30
0.0
 11
4.3014171246
 21
9.7605896936
 31
0.0
  0
LINE
  5
1D4
330
1F
100
AcDbEntity
  8
0
  6
Continuous
 62
     7
370
    15
100
AcDbLine
 10
4.0514171246
 20
9.6355896936
 30
0.0
 11
4.3014171246
 21
9.6355896936
 31
0.0
  0
LINE
  5
1D5
330
1F
100
AcDbEntity
  8
0
  6
Continuous
 62
     7
370
    15
100
AcDbLine
 10
4.0514171246
 20
9.4584243393
 30
0.0
 11
4.0514171246
 21
9.6355896936
 31
0.0
  0
LINE
  5
1D6
330
1F
100
AcDbEntity
  8
0
  6
Continuous
 62
     7
370
    15
100
AcDbLine
 10
4.3014171246
 20
9.4584243393
 30
0.0
 11
4.0514171246
 21
9.4584243393
 31
0.0
  0
LINE
  5
1D7
330
1F
100
AcDbEntity
  8
0
  6
Continuous
 62
     7
370
    15
100
AcDbLine
 10
4.3014171246
 20
9.3334243393
 30
0.0
 11
4.3014171246
 21
9.4584243393
 31
0.0
  0
LINE
  5
1D8
330
1F
100
AcDbEntity
  8
0
  6
Continuous
 62
     7
370
    15
100
AcDbLine
 10
4.2514171246
 20
9.3334243393
 30
0.0
 11
4.3014171246
 21
9.3334243393
 31
0.0
  0
ARC
  5
1D9
330
1F
100
AcDbEntity
  8
0
  6
Continuous
 62
     7
370
    15
100
AcDbCircle
 10
4.2514171246
 20
9.2084243393
 30
0.0
 40
0.1250000000000009
100
AcDbArc
 50
90.0
 51
180.0
  0
LINE
  5
1DA
330
1F
100
AcDbEntity
  8
0
  6
Continuous
 62
     7
370
    15
100
AcDbLine
 10
4.1264171246
 20
8.437755048
 30
0.0
 11
4.1264171246
 21
9.2084243393
 31
0.0
  0
LINE
  5
1DB
330
1F
100
AcDbEntity
  8
0
  6
Continuous
 62
     7
370
    15
100
AcDbLine
 10
4.0014171246
 20
8.437755048
 30
0.0
 11
4.1264171246
 21
8.437755048
 31
0.0
  0
LINE
  5
1DC
330
1F
100
AcDbEntity
  8
0
  6
Continuous
 62
     7
370
    15
100
AcDbLine
 10
4.0014171246
 20
8.2605896936
 30
0.0
 11
4.0014171246
 21
8.437755048
 31
0.0
  0
LINE
  5
1DD
330
1F
100
AcDbEntity
  8
0
  6
Continuous
 62
     7
370
    15
100
AcDbLine
 10
3.8014171246
 20
8.2605896936
 30
0.0
 11
4.0014171246
 21
8.2605896936
 31
0.0
  0
LINE
  5
1DE
330
1F
100
AcDbEntity
  8
0
  6
Continuous
 62
     7
370
    15
100
AcDbLine
 10
3.8014171246
 20
8.437755048
 30
0.0
 11
3.8014171246
 21
8.2605896936
 31
0.0
  0
LINE
  5
1DF
330
1F
100
AcDbEntity
  8
0
  6
Continuous
 62
     7
370
    15
100
AcDbLine
 10
3.6764171246
 20
8.437755048
 30
0.0
 11
3.8014171246
 21
8.437755048
 31
0.0
  0
LINE
  5
1E0
330
1F
100
AcDbEntity
  8
0
  6
Continuous
 62
     7
370
    15
100
AcDbLine
 10
3.6764171246
 20
9.1855896936
 30
0.0
 11
3.6764171246
 21
8.437755048
 31
0.0
  0
LINE
  5
1E1
330
1F
100
AcDbEntity
  8
0
  6
Continuous
 62
     7
370
    15
100
AcDbLine
 10
4.7569606982
 20
8.2513906899
 30
0.0
 11
4.8069606982
 21
8.3763906899
 31
0.0
  0
LINE
  5
1E2
330
1F
100
AcDbEntity
  8
0
  6
Continuous
 62
     7
370
    15
100
AcDbLine
 10
4.5434670491
 20
8.2513906899
 30
0.0
 11
4.7569606982
 21
8.2513906899
 31
0.0
  0
LINE
  5
1E3
330
1F
100
AcDbEntity
  8
0
  6
Continuous
 62
     7
370
    15
100
AcDbLine
 10
4.3269606982
 20
8.3763906899
 30
0.0
 11
4.5434670491
 21
8.2513906899
 31
0.0
  0
LINE
  5
1E4
330
1F
100
AcDbEntity
  8
0
  6
Continuous
 62
     7
370
    15
100
AcDbLine
 10
4.9519606982
 20
8.9513906899
 30
0.0
 11
4.8069606982
 21
8.9513906899
 31
0.0
  0
LINE
  5
1E5
330
1F
100
AcDbEntity
  8
0
  6
Continuous
 62
     7
370
    15
100
AcDbLine
 10
4.8069606982
 20
8.3763906899
 30
0.0
 11
4.8069606982
 21
8.9513906899
 31
0.0
  0
LINE
  5
1E6
330
1F
100
AcDbEntity
  8
0
  6
Continuous
 62
     7
370
    15
100
AcDbLine
 10
4.3269606982
 20
8.5013906899
 30
0.0
 11
4.3269606982
 21
8.3763906899
 31
0.0
  0
LINE
  5
1E7
330
1F
100
AcDbEntity
  8
0
  6
Continuous
 62
     7
370
    15
100
AcDbLine
 10
4.5769606982
 20
8.5013906899
 30
0.0
 11
4.3269606982
 21
8.5013906899
 31
0.0
  0
LINE
  5
1E8
330
1F
100
AcDbEntity
  8
0
  6
Continuous
 62
     7
370
    15
100
AcDbLine
 10
4.5769606982
 20
8.6785560443
 30
0.0
 11
4.5769606982
 21
8.5013906899
 31
0.0
  0
LINE
  5
1E9
330
1F
100
AcDbEntity
  8
0
  6
Continuous
 62
     7
370
    15
100
AcDbLine
 10
4.3269606982
 20
8.6785560443
 30
0.0
 11
4.5769606982
 21
8.6785560443
 31
0.0
  0
LINE
  5
1EA
330
1F
100
AcDbEntity
  8
0
  6
Continuous
 62
     7
370
    15
100
AcDbLine
 10
4.3269606982
 20
8.8035560443
 30
0.0
 11
4.3269606982
 21
8.6785560443
 31
0.0
  0
LINE
  5
1EB
330
1F
100
AcDbEntity
  8
0
  6
Continuous
 62
     7
370
    15
100
AcDbLine
 10
4.3769606982
 20
8.8035560443
 30
0.0
 11
4.3269606982
 21
8.8035560443
 31
0.0
  0
ARC
  5
1EC
330
1F
100
AcDbEntity
  8
0
  6
Continuous
 62
     7
370
    15
100
AcDbCircle
 10
4.3769606982
 20
8.9285560443
 30
0.0
 40
0.125
100
AcDbArc
 50
270.0
 51
0.0
  0
LINE
  5
1ED
330
1F
100
AcDbEntity
  8
0
  6
Continuous
 62
     7
370
    15
100
AcDbLine
 10
4.5019606982
 20
9.6992253356
 30
0.0
 11
4.5019606982
 21
8.9285560443
 31
0.0
  0
LINE
  5
1EE
330
1F
100
AcDbEntity
  8
0
  6
Continuous
 62
     7
370
    15
100
AcDbLine
 10
4.6269606982
 20
9.6992253356
 30
0.0
 11
4.5019606982
 21
9.6992253356
 31
0.0
  0
LINE
  5
1EF
330
1F
100
AcDbEntity
  8
0
  6
Continuous
 62
     7
370
    15
100
AcDbLine
 10
4.6269606982
 20
9.8763906899
 30
0.0
 11
4.6269606982
 21
9.6992253356
 31
0.0
  0
LINE
  5
1F0
330
1F
100
AcDbEntity
  8
0
  6
Continuous
 62
     7
370
    15
100
AcDbLine
 10
4.8269606982
 20
9.8763906899
 30
0.0
 11
4.6269606982
 21
9.8763906899
 31
0.0
  0
LINE
  5
1F1
330
1F
100
AcDbEntity
  8
0
  6
Continuous
 62
     7
370
    15
100
AcDbLine
 10
4.8269606982
 20
9.6992253356
 30
0.0
 11
4.8269606982
 21
9.8763906899
 31
0.0
  0
LINE
  5
1F2
330
1F
100
AcDbEntity
  8
0
  6
Continuous
 62
     7
370
    15
100
AcDbLine
 10
4.9519606982
 20
9.6992253356
 30
0.0
 11
4.8269606982
 21
9.6992253356
 31
0.0
  0
LINE
  5
1F3
330
1F
100
AcDbEntity
  8
0
  6
Continuous
 62
     7
370
    15
100
AcDbLine
 10
4.9519606982
 20
8.9513906899
 30
0.0
 11
4.9519606982
 21
9.6992253356
 31
0.0
  0
LINE
  5
1F4
330
1F
100
AcDbEntity
  8
0
  6
Continuous
 62
     7
370
    15
100
AcDbLine
 10
2.4608908279
 20
8.1245934113
 30
0.0
 11
2.4108908279
 21
7.9995934113
 31
0.0
  0
LINE
  5
1F5
330
1F
100
AcDbEntity
  8
0
  6
Continuous
 62
     7
370
    15
100
AcDbLine
 10
2.6743844769
 20
8.1245934113
 30
0.0
 11
2.4608908279
 21
8.1245934113
 31
0.0
  0
LINE
  5
1F6
330
1F
100
AcDbEntity
  8
0
  6
Continuous
 62
     7
370
    15
100
AcDbLine
 10
2.8908908279
 20
7.9995934113
 30
0.0
 11
2.6743844769
 21
8.1245934113
 31
0.0
  0
LINE
  5
1F7
330
1F
100
AcDbEntity
  8
0
  6
Continuous
 62
     7
370
    15
100
AcDbLine
 10
2.2658908279
 20
7.4245934113
 30
0.0
 11
2.4108908279
 21
7.4245934113
 31
0.0
  0
LINE
  5
1F8
330
1F
100
AcDbEntity
  8
0
  6
Continuous
 62
     7
370
    15
100
AcDbLine
 10
2.4108908279
 20
7.9995934113
 30
0.0
 11
2.4108908279
 21
7.4245934113
 31
0.0
  0
LINE
  5
1F9
330
1F
100
AcDbEntity
  8
0
  6
Continuous
 62
     7
370
    15
100
AcDbLine
 10
2.8908908279
 20
7.8745934113
 30
0.0
 11
2.8908908279
 21
7.9995934113
 31
0.0
  0
LINE
  5
1FA
330
1F
100
AcDbEntity
  8
0
  6
Continuous
 62
     7
370
    15
100
AcDbLine
 10
2.6408908279
 20
7.8745934113
 30
0.0
 11
2.8908908279
 21
7.8745934113
 31
0.0
  0
LINE
  5
1FB
330
1F
100
AcDbEntity
  8
0
  6
Continuous
 62
     7
370
    15
100
AcDbLine
 10
2.6408908279
 20
7.6974280569
 30
0.0
 11
2.6408908279
 21
7.8745934113
 31
0.0
  0
LINE
  5
1FC
330
1F
100
AcDbEntity
  8
0
  6
Continuous
 62
     7
370
    15
100
AcDbLine
 10
2.8908908279
 20
7.6974280569
 30
0.0
 11
2.6408908279
 21
7.6974280569
 31
0.0
  0
LINE
  5
1FD
330
1F
100
AcDbEntity
  8
0
  6
Continuous
 62
     7
370
    15
100
AcDbLine
 10
2.8908908279
 20
7.5724280569
 30
0.0
 11
2.8908908279
 21
7.6974280569
 31
0.0
  0
LINE
  5
1FE
330
1F
100
AcDbEntity
  8
0
  6
Continuous
 62
     7
370
    15
100
AcDbLine
 10
2.8408908279
 20
7.5724280569
 30
0.0
 11
2.8908908279
 21
7.5724280569
 31
0.0
  0
ARC
  5
1FF
330
1F
100
AcDbEntity
  8
0
  6
Continuous
 62
     7
370
    15
100
AcDbCircle
 10
2.8408908279
 20
7.4474280569
 30
0.0
 40
0.1250000000000004
100
AcDbArc
 50
90.0
 51
180.0
  0
LINE
  5
200
330
1F
100
AcDbEntity
  8
0
  6
Continuous
 62
     7
370
    15
100
AcDbLine
 10
2.7158908279
 20
6.6767587656
 30
0.0
 11
2.7158908279
 21
7.4474280569
 31
0.0
  0
LINE
  5
201
330
1F
100
AcDbEntity
  8
0
  6
Continuous
 62
     7
370
    15
100
AcDbLine
 10
2.5908908279
 20
6.6767587656
 30
0.0
 11
2.7158908279
 21
6.6767587656
 31
0.0
  0
LINE
  5
202
330
1F
100
AcDbEntity
  8
0
  6
Continuous
 62
     7
370
    15
100
AcDbLine
 10
2.5908908279
 20
6.4995934113
 30
0.0
 11
2.5908908279
 21
6.6767587656
 31
0.0
  0
LINE
  5
203
330
1F
100
AcDbEntity
  8
0
  6
Continuous
 62
     7
370
    15
100
AcDbLine
 10
2.3908908279
 20
6.4995934113
 30
0.0
 11
2.5908908279
 21
6.4995934113
 31
0.0
  0
LINE
  5
204
330
1F
100
AcDbEntity
  8
0
  6
Continuous
 62
     7
370
    15
100
AcDbLine
 10
2.3908908279
 20
6.6767587656
 30
0.0
 11
2.3908908279
 21
6.4995934113
 31
0.0
  0
LINE
  5
205
330
1F
100
AcDbEntity
  8
0
  6
Continuous
 62
     7
370
    15
100
AcDbLine
 10
2.2658908279
 20
6.6767587656
 30
0.0
 11
2.3908908279
 21
6.6767587656
 31
0.0
  0
LINE
  5
206
330
1F
100
AcDbEntity
  8
0
  6
Continuous
 62
     7
370
    15
100
AcDbLine
 10
2.2658908279
 20
7.4245934113
 30
0.0
 11
2.2658908279
 21
6.6767587656
 31
0.0
  0
LINE
  5
207
330
1F
100
AcDbEntity
  8
0
  6
Continuous
 62
     7
370
    15
100
AcDbLine
 10
3.3085770324
 20
6.5239183562
 30
0.0
 11
3.3585770324
 21
6.6489183562
 31
0.0
  0
LINE
  5
208
330
1F
100
AcDbEntity
  8
0
  6
Continuous
 62
     7
370
    15
100
AcDbLine
 10
3.0950833834
 20
6.5239183562
 30
0.0
 11
3.3085770324
 21
6.5239183562
 31
0.0
  0
LINE
  5
209
330
1F
100
AcDbEntity
  8
0
  6
Continuous
 62
     7
370
    15
100
AcDbLine
 10
2.8785770324
 20
6.6489183562
 30
0.0
 11
3.0950833834
 21
6.5239183562
 31
0.0
  0
LINE
  5
20A
330
1F
100
AcDbEntity
  8
0
  6
Continuous
 62
     7
370
    15
100
AcDbLine
 10
3.5035770324
 20
7.2239183562
 30
0.0
 11
3.3585770324
 21
7.2239183562
 31
0.0
  0
LINE
  5
20B
330
1F
100
AcDbEntity
  8
0
  6
Continuous
 62
     7
370
    15
100
AcDbLine
 10
3.3585770324
 20
6.6489183562
 30
0.0
 11
3.3585770324
 21
7.2239183562
 31
0.0
  0
LINE
  5
20C
330
1F
100
AcDbEntity
  8
0
  6
Continuous
 62
     7
370
    15
100
AcDbLine
 10
2.8785770324
 20
6.7739183562
 30
0.0
 11
2.8785770324
 21
6.6489183562
 31
0.0
  0
LINE
  5
20D
330
1F
100
AcDbEntity
  8
0
  6
Continuous
 62
     7
370
    15
100
AcDbLine
 10
3.1285770324
 20
6.7739183562
 30
0.0
 11
2.8785770324
 21
6.7739183562
 31
0.0
  0
LINE
  5
20E
330
1F
100
AcDbEntity
  8
0
  6
Continuous
 62
     7
370
    15
100
AcDbLine
 10
3.1285770324
 20
6.9510837106
 30
0.0
 11
3.1285770324
 21
6.7739183562
 31
0.0
  0
LINE
  5
20F
330
1F
100
AcDbEntity
  8
0
  6
Continuous
 62
     7
370
    15
100
AcDbLine
 10
2.8785770324
 20
6.9510837106
 30
0.0
 11
3.1285770324
 21
6.9510837106
 31
0.0
  0
LINE
  5
210
330
1F
100
AcDbEntity
  8
0
  6
Continuous
 62
     7
370
    15
100
AcDbLine
 10
2.8785770324
 20
7.0760837106
 30
0.0
 11
2.8785770324
 21
6.9510837106
 31
0.0
  0
LINE
  5
211
330
1F
100
AcDbEntity
  8
0
  6
Continuous
 62
     7
370
    15
100
AcDbLine
 10
2.9285770324
 20
7.0760837106
 30
0.0
 11
2.8785770324
 21
7.0760837106
 31
0.0
  0
ARC
  5
212
330
1F
100
AcDbEntity
  8
0
  6
Continuous
 62
     7
370
    15
100
AcDbCircle
 10
2.9285770324
 20
7.2010837106
 30
0.0
 40
0.1250000000000004
100
AcDbArc
 50
270.0
 51
0.0
  0
LINE
  5
213
330
1F
100
AcDbEntity
  8
0
  6
Continuous
 62
     7
370
    15
100
AcDbLine
 10
3.0535770324
 20
7.9717530019
 30
0.0
 11
3.0535770324
 21
7.2010837106
 31
0.0
  0
LINE
  5
214
330
1F
100
AcDbEntity
  8
0
  6
Continuous
 62
     7
370
    15
100
AcDbLine
 10
3.1785770324
 20
7.9717530019
 30
0.0
 11
3.0535770324
 21
7.9717530019
 31
0.0
  0
LINE
  5
215
330
1F
100
AcDbEntity
  8
0
  6
Continuous
 62
     7
370
    15
100
AcDbLine
 10
3.1785770324
 20
8.1489183562
 30
0.0
 11
3.1785770324
 21
7.9717530019
 31
0.0
  0
LINE
  5
216
330
1F
100
AcDbEntity
  8
0
  6
Continuous
 62
     7
370
    15
100
AcDbLine
 10
3.3785770324
 20
8.1489183562
 30
0.0
 11
3.1785770324
 21
8.1489183562
 31
0.0
  0
LINE
  5
217
330
1F
100
AcDbEntity
  8
0
  6
Continuous
 62
     7
370
    15
100
AcDbLine
 10
3.3785770324
 20
7.9717530019
 30
0.0
 11
3.3785770324
 21
8.1489183562
 31
0.0
  0
LINE
  5
218
330
1F
100
AcDbEntity
  8
0
  6
Continuous
 62
     7
370
    15
100
AcDbLine
 10
3.5035770324
 20
7.9717530019
 30
0.0
 11
3.3785770324
 21
7.9717530019
 31
0.0
  0
LINE
  5
219
330
1F
100
AcDbEntity
  8
0
  6
Continuous
 62
     7
370
    15
100
AcDbLine
 10
3.5035770324
 20
7.2239183562
 30
0.0
 11
3.5035770324
 21
7.9717530019
 31
0.0
  0
LINE
  5
21A
330
1F
100
AcDbEntity
  8
0
  6
Continuous
 62
     7
370
    15
100
AcDbLine
 10
3.8897992805
 20
8.1350740629
 30
0.0
 11
3.8397992805
 21
8.0100740629
 31
0.0
  0
LINE
  5
21B
330
1F
100
AcDbEntity
  8
0
  6
Continuous
 62
     7
370
    15
100
AcDbLine
 10
4.1032929295
 20
8.1350740629
 30
0.0
 11
3.8897992805
 21
8.1350740629
 31
0.0
  0
LINE
  5
21C
330
1F
100
AcDbEntity
  8
0
  6
Continuous
 62
     7
370
    15
100
AcDbLine
 10
4.3197992805
 20
8.0100740629
 30
0.0
 11
4.1032929295
 21
8.1350740629
 31
0.0
  0
LINE
  5
21D
330
1F
100
AcDbEntity
  8
0
  6
Continuous
 62
     7
370
    15
100
AcDbLine
 10
3.6947992805
 20
7.4350740629
 30
0.0
 11
3.8397992805
 21
7.4350740629
 31
0.0
  0
LINE
  5
21E
330
1F
100
AcDbEntity
  8
0
  6
Continuous
 62
     7
370
    15
100
AcDbLine
 10
3.8397992805
 20
8.0100740629
 30
0.0
 11
3.8397992805
 21
7.4350740629
 31
0.0
  0
LINE
  5
21F
330
1F
100
AcDbEntity
  8
0
  6
Continuous
 62
     7
370
    15
100
AcDbLine
 10
4.3197992805
 20
7.8850740629
 30
0.0
 11
4.3197992805
 21
8.0100740629
 31
0.0
  0
LINE
  5
220
330
1F
100
AcDbEntity
  8
0
  6
Continuous
 62
     7
370
    15
100
AcDbLine
 10
4.0697992805
 20
7.8850740629
 30
0.0
 11
4.3197992805
 21
7.8850740629
 31
0.0
  0
LINE
  5
221
330
1F
100
AcDbEntity
  8
0
  6
Continuous
 62
     7
370
    15
100
AcDbLine
 10
4.0697992805
 20
7.7079087086
 30
0.0
 11
4.0697992805
 21
7.8850740629
 31
0.0
  0
LINE
  5
222
330
1F
100
AcDbEntity
  8
0
  6
Continuous
 62
     7
370
    15
100
AcDbLine
 10
4.3197992805
 20
7.7079087086
 30
0.0
 11
4.0697992805
 21
7.7079087086
 31
0.0
  0
LINE
  5
223
330
1F
100
AcDbEntity
  8
0
  6
Continuous
 62
     7
370
    15
100
AcDbLine
 10
4.3197992805
 20
7.5829087086
 30
0.0
 11
4.3197992805
 21
7.7079087086
 31
0.0
  0
LINE
  5
224
330
1F
100
AcDbEntity
  8
0
  6
Continuous
 62
     7
370
    15
100
AcDbLine
 10
4.2697992805
 20
7.5829087086
 30
0.0
 11
4.3197992805
 21
7.5829087086
 31
0.0
  0
ARC
  5
225
330
1F
100
AcDbEntity
  8
0
  6
Continuous
 62
     7
370
    15
100
AcDbCircle
 10
4.2697992805
 20
7.4579087086
 30
0.0
 40
0.1250000000000009
100
AcDbArc
 50
90.0
 51
180.0
  0
LINE
  5
226
330
1F
100
AcDbEntity
  8
0
  6
Continuous
 62
     7
370
    15
100
AcDbLine
 10
4.1447992805
 20
6.6872394172
 30
0.0
 11
4.1447992805
 21
7.4579087086
 31
0.0
  0
LINE
  5
227
330
1F
100
AcDbEntity
  8
0
  6
Continuous
 62
     7
370
    15
100
AcDbLine
 10
4.0197992805
 20
6.6872394172
 30
0.0
 11
4.1447992805
 21
6.6872394172
 31
0.0
  0
LINE
  5
228
330
1F
100
AcDbEntity
  8
0
  6
Continuous
 62
     7
370
    15
100
AcDbLine
 10
4.0197992805
 20
6.5100740629
 30
0.0
 11
4.0197992805
 21
6.6872394172
 31
0.0
  0
LINE
  5
229
330
1F
100
AcDbEntity
  8
0
  6
Continuous
 62
     7
370
    15
100
AcDbLine
 10
3.8197992805
 20
6.5100740629
 30
0.0
 11
4.0197992805
 21
6.5100740629
 31
0.0
  0
LINE
  5
22A
330
1F
100
AcDbEntity
  8
0
  6
Continuous
 62
     7
370
    15
100
AcDbLine
 10
3.8197992805
 20
6.6872394172
 30
0.0
 11
3.8197992805
 21
6.5100740629
 31
0.0
  0
LINE
  5
22B
330
1F
100
AcDbEntity
  8
0
  6
Continuous
 62
     7
370
    15
100
AcDbLine
 10
3.6947992805
 20
6.6872394172
 30
0.0
 11
3.8197992805
 21
6.6872394172
 31
0.0
  0
LINE
  5
22C
330
1F
100
AcDbEntity
  8
0
  6
Continuous
 62
     7
370
    15
100
AcDbLine
 10
3.6947992805
 20
7.4350740629
 30
0.0
 11
3.6947992805
 21
6.6872394172
 31
0.0
  0
LINE
  5
22D
330
1F
100
AcDbEntity
  8
0
  6
Continuous
 62
     7
370
    15
100
AcDbLine
 10
4.7612792576
 20
6.4868114627
 30
0.0
 11
4.8112792576
 21
6.6118114627
 31
0.0
  0
LINE
  5
22E
330
1F
100
AcDbEntity
  8
0
  6
Continuous
 62
     7
370
    15
100
AcDbLine
 10
4.5477856085
 20
6.4868114627
 30
0.0
 11
4.7612792576
 21
6.4868114627
 31
0.0
  0
LINE
  5
22F
330
1F
100
AcDbEntity
  8
0
  6
Continuous
 62
     7
370
    15
100
AcDbLine
 10
4.3312792576
 20
6.6118114627
 30
0.0
 11
4.5477856085
 21
6.4868114627
 31
0.0
  0
LINE
  5
230
330
1F
100
AcDbEntity
  8
0
  6
Continuous
 62
     7
370
    15
100
AcDbLine
 10
4.9562792576
 20
7.1868114627
 30
0.0
 11
4.8112792576
 21
7.1868114627
 31
0.0
  0
LINE
  5
231
330
1F
100
AcDbEntity
  8
0
  6
Continuous
 62
     7
370
    15
100
AcDbLine
 10
4.8112792576
 20
6.6118114627
 30
0.0
 11
4.8112792576
 21
7.1868114627
 31
0.0
  0
LINE
  5
232
330
1F
100
AcDbEntity
  8
0
  6
Continuous
 62
     7
370
    15
100
AcDbLine
 10
4.3312792576
 20
6.7368114627
 30
0.0
 11
4.3312792576
 21
6.6118114627
 31
0.0
  0
LINE
  5
233
330
1F
100
AcDbEntity
  8
0
  6
Continuous
 62
     7
370
    15
100
AcDbLine
 10
4.5812792576
 20
6.7368114627
 30
0.0
 11
4.3312792576
 21
6.7368114627
 31
0.0
  0
LINE
  5
234
330
1F
100
AcDbEntity
  8
0
  6
Continuous
 62
     7
370
    15
100
AcDbLine
 10
4.5812792576
 20
6.9139768171
 30
0.0
 11
4.5812792576
 21
6.7368114627
 31
0.0
  0
LINE
  5
235
330
1F
100
AcDbEntity
  8
0
  6
Continuous
 62
     7
370
    15
100
AcDbLine
 10
4.3312792576
 20
6.9139768171
 30
0.0
 11
4.5812792576
 21
6.9139768171
 31
0.0
  0
LINE
  5
236
330
1F
100
AcDbEntity
  8
0
  6
Continuous
 62
     7
370
    15
100
AcDbLine
 10
4.3312792576
 20
7.0389768171
 30
0.0
 11
4.3312792576
 21
6.9139768171
 31
0.0
  0
LINE
  5
237
330
1F
100
AcDbEntity
  8
0
  6
Continuous
 62
     7
370
    15
100
AcDbLine
 10
4.3812792576
 20
7.0389768171
 30
0.0
 11
4.3312792576
 21
7.0389768171
 31
0.0
  0
ARC
  5
238
330
1F
100
AcDbEntity
  8
0
  6
Continuous
 62
     7
370
    15
100
AcDbCircle
 10
4.3812792576
 20
7.1639768171
 30
0.0
 40
0.1250000000000009
100
AcDbArc
 50
270.0
 51
0.0
  0
LINE
  5
239
330
1F
100
AcDbEntity
  8
0
  6
Continuous
 62
     7
370
    15
100
AcDbLine
 10
4.5062792576
 20
7.9346461084
 30
0.0
 11
4.5062792576
 21
7.1639768171
 31
0.0
  0
LINE
  5
23A
330
1F
100
AcDbEntity
  8
0
  6
Continuous
 62
     7
370
    15
100
AcDbLine
 10
4.6312792576
 20
7.9346461084
 30
0.0
 11
4.5062792576
 21
7.9346461084
 31
0.0
  0
LINE
  5
23B
330
1F
100
AcDbEntity
  8
0
  6
Continuous
 62
     7
370
    15
100
AcDbLine
 10
4.6312792576
 20
8.1118114627
 30
0.0
 11
4.6312792576
 21
7.9346461084
 31
0.0
  0
LINE
  5
23C
330
1F
100
AcDbEntity
  8
0
  6
Continuous
 62
     7
370
    15
100
AcDbLine
 10
4.8312792576
 20
8.1118114627
 30
0.0
 11
4.6312792576
 21
8.1118114627
 31
0.0
  0
LINE
  5
23D
330
1F
100
AcDbEntity
  8
0
  6
Continuous
 62
     7
370
    15
100
AcDbLine
 10
4.8312792576
 20
7.9346461084
 30
0.0
 11
4.8312792576
 21
8.1118114627
 31
0.0
  0
LINE
  5
23E
330
1F
100
AcDbEntity
  8
0
  6
Continuous
 62
     7
370
    15
100
AcDbLine
 10
4.9562792576
 20
7.9346461084
 30
0.0
 11
4.8312792576
 21
7.9346461084
 31
0.0
  0
LINE
  5
23F
330
1F
100
AcDbEntity
  8
0
  6
Continuous
 62
     7
370
    15
100
AcDbLine
 10
4.9562792576
 20
7.1868114627
 30
0.0
 11
4.9562792576
 21
7.9346461084
 31
0.0
  0
LINE
  5
240
330
1F
100
AcDbEntity
  8
0
  6
Continuous
 62
     7
370
    15
100
AcDbLine
 10
6.8209929237
 20
7.7898141592
 30
0.0
 11
6.8055489261
 21
7.9663398597
 31
0.0
  0
LINE
  5
241
330
1F
100
AcDbEntity
  8
0
  6
Continuous
 62
     7
370
    15
100
AcDbLine
 10
6.8055489261
 20
7.9663398597
 30
0.0
 11
6.6063099865
 21
7.9489087112
 31
0.0
  0
LINE
  5
242
330
1F
100
AcDbEntity
  8
0
  6
Continuous
 62
     7
370
    15
100
AcDbLine
 10
6.6217539841
 20
7.7723830107
 30
0.0
 11
6.6063099865
 21
7.9489087112
 31
0.0
  0
LINE
  5
243
330
1F
100
AcDbEntity
  8
0
  6
Continuous
 62
     7
370
    15
100
AcDbLine
 10
6.8209929237
 20
7.7898141592
 30
0.0
 11
6.6217539841
 21
7.7723830107
 31
0.0
  0
LINE
  5
244
330
1F
100
AcDbEntity
  8
0
  6
Continuous
 62
     7
370
    15
100
AcDbLine
 10
9.3916194689
 20
5.7963690211
 30
0.0
 11
9.2150937684
 21
5.7809250235
 31
0.0
  0
LINE
  5
245
330
1F
100
AcDbEntity
  8
0
  6
Continuous
 62
     7
370
    15
100
AcDbLine
 10
9.2150937684
 20
5.7809250235
 30
0.0
 11
9.2325249169
 21
5.5816860839
 31
0.0
  0
LINE
  5
246
330
1F
100
AcDbEntity
  8
0
  6
Continuous
 62
     7
370
    15
100
AcDbLine
 10
9.4090506174
 20
5.5971300815
 30
0.0
 11
9.2325249169
 21
5.5816860839
 31
0.0
  0
LINE
  5
247
330
1F
100
AcDbEntity
  8
0
  6
Continuous
 62
     7
370
    15
100
AcDbLine
 10
9.3916194689
 20
5.7963690211
 30
0.0
 11
9.4090506174
 21
5.5971300815
 31
0.0
  0
LINE
  5
248
330
1F
100
AcDbEntity
  8
0
  6
Continuous
 62
     7
370
    15
100
AcDbLine
 10
11.385064607
 20
8.3669955663
 30
0.0
 11
11.4005086046
 21
8.1904698658
 31
0.0
  0
LINE
  5
249
330
1F
100
AcDbEntity
  8
0
  6
Continuous
 62
     7
370
    15
100
AcDbLine
 10
11.4005086046
 20
8.1904698658
 30
0.0
 11
11.5997475442
 21
8.2079010143
 31
0.0
  0
LINE
  5
24A
330
1F
100
AcDbEntity
  8
0
  6
Continuous
 62
     7
370
    15
100
AcDbLine
 10
11.5843035466
 20
8.3844267148
 30
0.0
 11
11.5997475442
 21
8.2079010143
 31
0.0
  0
LINE
  5
24B
330
1F
100
AcDbEntity
  8
0
  6
Continuous
 62
     7
370
    15
100
AcDbLine
 10
11.385064607
 20
8.3669955663
 30
0.0
 11
11.5843035466
 21
8.3844267148
 31
0.0
  0
LINE
  5
24C
330
1F
100
AcDbEntity
  8
0
  6
Continuous
 62
     7
370
    15
100
AcDbLine
 10
8.8144380618
 20
10.3604407044
 30
0.0
 11
8.9909637623
 21
10.375884702
 31
0.0
  0
LINE
  5
24D
330
1F
100
AcDbEntity
  8
0
  6
Continuous
 62
     7
370
    15
100
AcDbLine
 10
8.9909637623
 20
10.375884702
 30
0.0
 11
8.9735326138
 21
10.5751236416
 31
0.0
  0
LINE
  5
24E
330
1F
100
AcDbEntity
  8
0
  6
Continuous
 62
     7
370
    15
100
AcDbLine
 10
8.7970069133
 20
10.559679644
 30
0.0
 11
8.9735326138
 21
10.5751236416
 31
0.0
  0
LINE
  5
24F
330
1F
100
AcDbEntity
  8
0
  6
Continuous
 62
     7
370
    15
100
AcDbLine
 10
8.8144380618
 20
10.3604407044
 30
0.0
 11
8.7970069133
 21
10.559679644
 31
0.0
  0
LINE
  5
250
330
1F
100
AcDbEntity
  8
0
  6
Continuous
 62
     7
370
    15
100
AcDbLine
 10
6.6063099865
 20
8.2079010143
 30
0.0
 11
6.8055489261
 21
8.1904698658
 31
0.0
  0
LINE
  5
251
330
1F
100
AcDbEntity
  8
0
  6
Continuous
 62
     7
370
    15
100
AcDbLine
 10
6.8055489261
 20
8.1904698658
 30
0.0
 11
6.8209929237
 21
8.3669955663
 31
0.0
  0
LINE
  5
252
330
1F
100
AcDbEntity
  8
0
  6
Continuous
 62
     7
370
    15
100
AcDbLine
 10
6.6217539841
 20
8.3844267148
 30
0.0
 11
6.8209929237
 21
8.3669955663
 31
0.0
  0
LINE
  5
253
330
1F
100
AcDbEntity
  8
0
  6
Continuous
 62
     7
370
    15
100
AcDbLine
 10
6.6063099865
 20
8.2079010143
 30
0.0
 11
6.6217539841
 21
8.3844267148
 31
0.0
  0
CIRCLE
  5
254
330
1F
100
AcDbEntity
  8
0
  6
Continuous
 62
     7
370
    15
100
AcDbCircle
 10
9.1030287654
 20
8.0784048628
 30
0.0
 40
2.624999999999999
  0
LINE
  5
255
330
1F
100
AcDbEntity
  8
0
  6
Continuous
 62
     7
370
    15
100
AcDbLine
 10
9.2325249169
 20
10.5751236416
 30
0.0
 11
9.2150937684
 21
10.375884702
 31
0.0
  0
LINE
  5
256
330
1F
100
AcDbEntity
  8
0
  6
Continuous
 62
     7
370
    15
100
AcDbLine
 10
9.2150937684
 20
10.375884702
 30
0.0
 11
9.3916194689
 21
10.3604407044
 31
0.0
  0
LINE
  5
257
330
1F
100
AcDbEntity
  8
0
  6
Continuous
 62
     7
370
    15
100
AcDbLine
 10
9.4090506174
 20
10.559679644
 30
0.0
 11
9.3916194689
 21
10.3604407044
 31
0.0
  0
LINE
  5
258
330
1F
100
AcDbEntity
  8
0
  6
Continuous
 62
     7
370
    15
100
AcDbLine
 10
9.2325249169
 20
10.5751236416
 30
0.0
 11
9.4090506174
 21
10.559679644
 31
0.0
  0
LINE
  5
259
330
1F
100
AcDbEntity
  8
0
  6
Continuous
 62
     7
370
    15
100
AcDbLine
 10
11.5997475442
 20
7.9489087112
 30
0.0
 11
11.4005086046
 21
7.9663398597
 31
0.0
  0
LINE
  5
25A
330
1F
100
AcDbEntity
  8
0
  6
Continuous
 62
     7
370
    15
100
AcDbLine
 10
11.4005086046
 20
7.9663398597
 30
0.0
 11
11.385064607
 21
7.7898141592
 31
0.0
  0
LINE
  5
25B
330
1F
100
AcDbEntity
  8
0
  6
Continuous
 62
     7
370
    15
100
AcDbLine
 10
11.5843035466
 20
7.7723830107
 30
0.0
 11
11.385064607
 21
7.7898141592
 31
0.0
  0
LINE
  5
25C
330
1F
100
AcDbEntity
  8
0
  6
Continuous
 62
     7
370
    15
100
AcDbLine
 10
11.5997475442
 20
7.9489087112
 30
0.0
 11
11.5843035466
 21
7.7723830107
 31
0.0
  0
LINE
  5
25D
330
1F
100
AcDbEntity
  8
0
  6
Continuous
 62
     7
370
    15
100
AcDbLine
 10
8.9735326138
 20
5.5816860839
 30
0.0
 11
8.9909637623
 21
5.7809250235
 31
0.0
  0
LINE
  5
25E
330
1F
100
AcDbEntity
  8
0
  6
Continuous
 62
     7
370
    15
100
AcDbLine
 10
8.9909637623
 20
5.7809250235
 30
0.0
 11
8.8144380618
 21
5.7963690211
 31
0.0
  0
LINE
  5
25F
330
1F
100
AcDbEntity
  8
0
  6
Continuous
 62
     7
370
    15
100
AcDbLine
 10
8.7970069133
 20
5.5971300815
 30
0.0
 11
8.8144380618
 21
5.7963690211
 31
0.0
  0
LINE
  5
260
330
1F
100
AcDbEntity
  8
0
  6
Continuous
 62
     7
370
    15
100
AcDbLine
 10
8.9735326138
 20
5.5816860839
 30
0.0
 11
8.7970069133
 21
5.5971300815
 31
0.0
  0
LINE
  5
261
330
1F
100
AcDbEntity
  8
0
  6
Continuous
 62
     7
370
    15
100
AcDbLine
 10
7.1030287654
 20
7.4284048628
 30
0.0
 11
6.8885244326
 21
7.4284048628
 31
0.0
  0
ARC
  5
262
330
1F
100
AcDbEntity
  8
0
  6
Continuous
 62
     7
370
    15
100
AcDbCircle
 10
6.8885244326
 20
7.3034048628
 30
0.0
 40
0.1250000000000011
100
AcDbArc
 50
90.0
 51
199.2882825407
  0
ARC
  5
263
330
1F
100
AcDbEntity
  8
0
  6
Continuous
 62
     7
370
    15
100
AcDbCircle
 10
9.1030287654
 20
8.0784048628
 30
0.0
 40
2.4712
100
AcDbArc
 50
199.2882825407
 51
250.7117174593
  0
ARC
  5
264
330
1F
100
AcDbEntity
  8
0
  6
Continuous
 62
     7
370
    15
100
AcDbCircle
 10
8.3280287654
 20
5.86390053
 30
0.0
 40
0.1250000000000006
100
AcDbArc
 50
250.7117174593
 51
360.0
  0
LINE
  5
265
330
1F
100
AcDbEntity
  8
0
  6
Continuous
 62
     7
370
    15
100
AcDbLine
 10
8.4530287654
 20
6.0784048628
 30
0.0
 11
8.4530287654
 21
5.86390053
 31
0.0
  0
ARC
  5
266
330
1F
100
AcDbEntity
  8
0
  6
Continuous
 62
     7
370
    15
100
AcDbCircle
 10
9.1030287654
 20
6.0784048628
 30
0.0
 40
0.1000000000000014
100
AcDbArc
 50
180.0
 51
360.0
  0
LINE
  5
267
330
1F
100
AcDbEntity
  8
0
  6
Continuous
 62
     7
370
    15
100
AcDbLine
 10
9.2030287654
 20
6.0784048628
 30
0.0
 11
9.7530287654
 21
6.0784048628
 31
0.0
  0
LINE
  5
268
330
1F
100
AcDbEntity
  8
0
  6
Continuous
 62
     7
370
    15
100
AcDbLine
 10
9.7530287654
 20
6.0784048628
 30
0.0
 11
9.7530287654
 21
5.86390053
 31
0.0
  0
ARC
  5
269
330
1F
100
AcDbEntity
  8
0
  6
Continuous
 62
     7
370
    15
100
AcDbCircle
 10
9.8780287654
 20
5.86390053
 30
0.0
 40
0.125
100
AcDbArc
 50
180.0
 51
289.2882825407
  0
ARC
  5
26A
330
1F
100
AcDbEntity
  8
0
  6
Continuous
 62
     7
370
    15
100
AcDbCircle
 10
9.1030287654
 20
8.0784048628
 30
0.0
 40
2.471200000000001
100
AcDbArc
 50
289.2882825407
 51
340.7117174593
  0
ARC
  5
26B
330
1F
100
AcDbEntity
  8
0
  6
Continuous
 62
     7
370
    15
100
AcDbCircle
 10
11.3175330982
 20
7.3034048628
 30
0.0
 40
0.125
100
AcDbArc
 50
340.7117174593
 51
90.0
  0
LINE
  5
26C
330
1F
100
AcDbEntity
  8
0
  6
Continuous
 62
     7
370
    15
100
AcDbLine
 10
11.1030287654
 20
7.4284048628
 30
0.0
 11
11.3175330982
 21
7.4284048628
 31
0.0
  0
ARC
  5
26D
330
1F
100
AcDbEntity
  8
0
  6
Continuous
 62
     7
370
    15
100
AcDbCircle
 10
11.1030287654
 20
8.0784048628
 30
0.0
 40
0.100000000000005
100
AcDbArc
 50
270.0
 51
90.0
  0
LINE
  5
26E
330
1F
100
AcDbEntity
  8
0
  6
Continuous
 62
     7
370
    15
100
AcDbLine
 10
11.1030287654
 20
8.1784048628
 30
0.0
 11
11.1030287654
 21
8.7284048628
 31
0.0
  0
LINE
  5
26F
330
1F
100
AcDbEntity
  8
0
  6
Continuous
 62
     7
370
    15
100
AcDbLine
 10
11.1030287654
 20
8.7284048628
 30
0.0
 11
11.3175330982
 21
8.7284048628
 31
0.0
  0
ARC
  5
270
330
1F
100
AcDbEntity
  8
0
  6
Continuous
 62
     7
370
    15
100
AcDbCircle
 10
11.3175330982
 20
8.8534048628
 30
0.0
 40
0.125
100
AcDbArc
 50
270.0
 51
19.2882825407
  0
ARC
  5
271
330
1F
100
AcDbEntity
  8
0
  6
Continuous
 62
     7
370
    15
100
AcDbCircle
 10
9.1030287654
 20
8.0784048628
 30
0.0
 40
2.471200000000001
100
AcDbArc
 50
19.2882825407
 51
70.7117174593
  0
ARC
  5
272
330
1F
100
AcDbEntity
  8
0
  6
Continuous
 62
     7
370
    15
100
AcDbCircle
 10
9.8780287654
 20
10.2929091956
 30
0.0
 40
0.125
100
AcDbArc
 50
70.7117174593
 51
180.0
  0
LINE
  5
273
330
1F
100
AcDbEntity
  8
0
  6
Continuous
 62
     7
370
    15
100
AcDbLine
 10
9.7530287654
 20
10.0784048628
 30
0.0
 11
9.7530287654
 21
10.2929091956
 31
0.0
  0
ARC
  5
274
330
1F
100
AcDbEntity
  8
0
  6
Continuous
 62
     7
370
    15
100
AcDbCircle
 10
9.1030287654
 20
10.0784048628
 30
0.0
 40
0.1000000000000014
100
AcDbArc
 50
0.0
 51
180.0
  0
LINE
  5
275
330
1F
100
AcDbEntity
  8
0
  6
Continuous
 62
     7
370
    15
100
AcDbLine
 10
9.0030287654
 20
10.0784048628
 30
0.0
 11
8.4530287654
 21
10.0784048628
 31
0.0
  0
LINE
  5
276
330
1F
100
AcDbEntity
  8
0
  6
Continuous
 62
     7
370
    15
100
AcDbLine
 10
8.4530287654
 20
10.0784048628
 30
0.0
 11
8.4530287654
 21
10.2929091956
 31
0.0
  0
ARC
  5
277
330
1F
100
AcDbEntity
  8
0
  6
Continuous
 62
     7
370
    15
100
AcDbCircle
 10
8.3280287654
 20
10.2929091956
 30
0.0
 40
0.1250000000000018
100
AcDbArc
 50
0.0
 51
109.2882825407
  0
ARC
  5
278
330
1F
100
AcDbEntity
  8
0
  6
Continuous
 62
     7
370
    15
100
AcDbCircle
 10
9.1030287654
 20
8.0784048628
 30
0.0
 40
2.4712
100
AcDbArc
 50
109.2882825407
 51
160.7117174593
  0
ARC
  5
279
330
1F
100
AcDbEntity
  8
0
  6
Continuous
 62
     7
370
    15
100
AcDbCircle
 10
6.8885244326
 20
8.8534048628
 30
0.0
 40
0.125
100
AcDbArc
 50
160.7117174593
 51
270.0
  0
LINE
  5
27A
330
1F
100
AcDbEntity
  8
0
  6
Continuous
 62
     7
370
    15
100
AcDbLine
 10
7.1030287654
 20
8.7284048628
 30
0.0
 11
6.8885244326
 21
8.7284048628
 31
0.0
  0
LINE
  5
27B
330
1F
100
AcDbEntity
  8
0
  6
Continuous
 62
     7
370
    15
100
AcDbLine
 10
7.1030287654
 20
8.1784048628
 30
0.0
 11
7.1030287654
 21
8.7284048628
 31
0.0
  0
ARC
  5
27C
330
1F
100
AcDbEntity
  8
0
  6
Continuous
 62
     7
370
    15
100
AcDbCircle
 10
7.1030287654
 20
8.0784048628
 30
0.0
 40
0.100000000000005
100
AcDbArc
 50
90.0
 51
270.0
  0
CIRCLE
  5
27D
330
1F
100
AcDbEntity
  8
0
  6
Continuous
 62
     7
370
    15
100
AcDbCircle
 10
6.8969999906
 20
7.6284048628
 30
0.0
 40
0.1249999999999947
  0
CIRCLE
  5
27E
330
1F
100
AcDbEntity
  8
0
  6
Continuous
 62
     7
370
    15
100
AcDbCircle
 10
9.5530287654
 20
5.872376088
 30
0.0
 40
0.1249999999999947
  0
CIRCLE
  5
27F
330
1F
100
AcDbEntity
  8
0
  6
Continuous
 62
     7
370
    15
100
AcDbCircle
 10
11.3090575402
 20
8.5284048628
 30
0.0
 40
0.1249999999999947
  0
CIRCLE
  5
280
330
1F
100
AcDbEntity
  8
0
  6
Continuous
 62
     7
370
    15
100
AcDbCircle
 10
8.6530287654
 20
10.2844336376
 30
0.0
 40
0.1249999999999947
  0
CIRCLE
  5
281
330
1F
100
AcDbEntity
  8
0
  6
Continuous
 62
     7
370
    15
100
AcDbCircle
 10
9.5530287654
 20
10.2844336376
 30
0.0
 40
0.0999999999999996
  0
CIRCLE
  5
282
330
1F
100
AcDbEntity
  8
0
  6
Continuous
 62
     7
370
    15
100
AcDbCircle
 10
11.3090575402
 20
7.6284048628
 30
0.0
 40
0.1000000000000014
  0
CIRCLE
  5
283
330
1F
100
AcDbEntity
  8
0
  6
Continuous
 62
     7
370
    15
100
AcDbCircle
 10
8.6530287654
 20
5.872376088
 30
0.0
 40
0.1000000000000005
  0
CIRCLE
  5
284
330
1F
100
AcDbEntity
  8
0
  6
Continuous
 62
     7
370
    15
100
AcDbCircle
 10
6.8969999906
 20
8.5284048628
 30
0.0
 40
0.0999999999999996
  0
LINE
  5
285
330
1F
100
AcDbEntity
  8
0
  6
Continuous
 62
     7
370
    15
100
AcDbLine
 10
9.7530287654
 20
10.0784048628
 30
0.0
 11
9.2030287654
 21
10.0784048628
 31
0.0
  0
LINE
  5
286
330
1F
100
AcDbEntity
  8
0
  6
Continuous
 62
     7
370
    15
100
AcDbLine
 10
11.1030287654
 20
7.4284048628
 30
0.0
 11
11.1030287654
 21
7.9784048628
 31
0.0
  0
LINE
  5
287
330
1F
100
AcDbEntity
  8
0
  6
Continuous
 62
     7
370
    15
100
AcDbLine
 10
8.4530287654
 20
6.0784048628
 30
0.0
 11
9.0030287654
 21
6.0784048628
 31
0.0
  0
LINE
  5
288
330
1F
100
AcDbEntity
  8
0
  6
Continuous
 62
     7
370
    15
100
AcDbLine
 10
7.1030287654
 20
7.4284048628
 30
0.0
 11
7.1030287654
 21
7.9784048628
 31
0.0
  0
LINE
  5
289
330
1F
100
AcDbEntity
  8
0
  6
Continuous
 62
     7
370
     0
100
AcDbLine
 10
6.7029404466
 20
10.5523126174
 30
0.0
 11
11.7287838265
 21
5.5264692375
 31
0.0
  0
LINE
  5
28A
330
1F
100
AcDbEntity
  8
0
  6
Continuous
 62
     7
370
     0
100
AcDbLine
 10
11.4866629045
 20
10.3615506789
 30
0.0
 11
6.5121785081
 21
5.5264692375
 31
0.0
  0
ARC
  5
28B
330
1F
100
AcDbEntity
  8
0
  6
Continuous
 62
     7
370
    15
100
AcDbCircle
 10
9.588440306
 20
0.5705406606
 30
0.0
 40
0.1250000000000005
100
AcDbArc
 50
11.5369590328
 51
108.4630409672
  0
LINE
  5
28C
330
1F
100
AcDbEntity
  8
0
  6
Continuous
 62
     7
370
    15
100
AcDbLine
 10
9.5616786493
 20
0.6668932097
 30
0.0
 11
9.5488536975
 21
0.6891066777
 31
0.0
  0
ARC
  5
28D
330
1F
100
AcDbEntity
  8
0
  6
Continuous
 62
     7
370
    15
100
AcDbCircle
 10
9.588440306
 20
0.5705406606
 30
0.0
 40
0.1000000000000004
100
AcDbArc
 50
14.4775121859
 51
105.5224878141
  0
LINE
  5
28E
330
1F
100
AcDbEntity
  8
0
  6
Continuous
 62
     7
370
    15
100
AcDbLine
 10
9.7109147931
 20
0.5955406606
 30
0.0
 11
9.6852648896
 21
0.5955406606
 31
0.0
  0
ARC
  5
28F
330
1F
100
AcDbEntity
  8
0
  6
Continuous
 62
     7
370
    15
100
AcDbCircle
 10
9.588440306
 20
0.5705406606
 30
0.0
 40
0.1250000000000003
100
AcDbArc
 50
131.5369590328
 51
228.4630409672
  0
LINE
  5
290
330
1F
100
AcDbEntity
  8
0
  6
Continuous
 62
     7
370
    15
100
AcDbLine
 10
9.5055524273
 20
0.4769746434
 30
0.0
 11
9.5183773791
 21
0.4991881114
 31
0.0
  0
ARC
  5
291
330
1F
100
AcDbEntity
  8
0
  6
Continuous
 62
     7
370
    15
100
AcDbCircle
 10
9.588440306
 20
0.5705406606
 30
0.0
 40
0.0999999999999989
100
AcDbArc
 50
134.4775121859
 51
225.5224878141
  0
LINE
  5
292
330
1F
100
AcDbEntity
  8
0
  6
Continuous
 62
     7
370
    15
100
AcDbLine
 10
9.5183773791
 20
0.6418932097
 30
0.0
 11
9.5055524273
 21
0.6641066777
 31
0.0
  0
ARC
  5
293
330
1F
100
AcDbEntity
  8
0
  6
Continuous
 62
     7
370
    15
100
AcDbCircle
 10
11.3429810745
 20
3.2250814291
 30
0.0
 40
0.1249999999999996
100
AcDbArc
 50
341.5369590328
 51
78.4630409672
  0
LINE
  5
294
330
1F
100
AcDbEntity
  8
0
  6
Continuous
 62
     7
370
    15
100
AcDbLine
 10
11.3679810745
 20
3.3475559162
 30
0.0
 11
11.3679810745
 21
3.3219060127
 31
0.0
  0
ARC
  5
295
330
1F
100
AcDbEntity
  8
0
  6
Continuous
 62
     7
370
    15
100
AcDbCircle
 10
11.3429810745
 20
3.2250814291
 30
0.0
 40
0.1
100
AcDbArc
 50
344.4775121859
 51
75.5224878141
  0
LINE
  5
296
330
1F
100
AcDbEntity
  8
0
  6
Continuous
 62
     7
370
    15
100
AcDbLine
 10
11.4615470917
 20
3.1854948206
 30
0.0
 11
11.4393336236
 21
3.1983197723
 31
0.0
  0
ARC
  5
297
330
1F
100
AcDbEntity
  8
0
  6
Continuous
 62
     7
370
    15
100
AcDbCircle
 10
8.688440306
 20
4.9796221976
 30
0.0
 40
0.1250000000000012
100
AcDbArc
 50
191.5369590328
 51
288.4630409672
  0
LINE
  5
298
330
1F
100
AcDbEntity
  8
0
  6
Continuous
 62
     7
370
    15
100
AcDbLine
 10
8.7152019627
 20
4.8832696484
 30
0.0
 11
8.7280269145
 21
4.8610561804
 31
0.0
  0
ARC
  5
299
330
1F
100
AcDbEntity
  8
0
  6
Continuous
 62
     7
370
    15
100
AcDbCircle
 10
8.688440306
 20
4.9796221976
 30
0.0
 40
0.1000000000000006
100
AcDbArc
 50
194.4775121859
 51
285.5224878141
  0
LINE
  5
29A
330
1F
100
AcDbEntity
  8
0
  6
Continuous
 62
     7
370
    15
100
AcDbLine
 10
8.5659658188
 20
4.9546221976
 30
0.0
 11
8.5916157223
 21
4.9546221976
 31
0.0
  0
ARC
  5
29B
330
1F
100
AcDbEntity
  8
0
  6
Continuous
 62
     7
370
    15
100
AcDbCircle
 10
8.688440306
 20
4.9796221976
 30
0.0
 40
0.1250000000000005
100
AcDbArc
 50
311.5369590328
 51
48.4630409672
  0
LINE
  5
29C
330
1F
100
AcDbEntity
  8
0
  6
Continuous
 62
     7
370
    15
100
AcDbLine
 10
8.7713281847
 20
5.0731882147
 30
0.0
 11
8.7585032329
 21
5.0509747467
 31
0.0
  0
ARC
  5
29D
330
1F
100
AcDbEntity
  8
0
  6
Continuous
 62
     7
370
    15
100
AcDbCircle
 10
8.688440306
 20
4.9796221976
 30
0.0
 40
0.0999999999999997
100
AcDbArc
 50
314.4775121859
 51
45.5224878141
  0
LINE
  5
29E
330
1F
100
AcDbEntity
  8
0
  6
Continuous
 62
     7
370
    15
100
AcDbLine
 10
8.7585032329
 20
4.9082696484
 30
0.0
 11
8.7713281847
 21
4.8860561804
 31
0.0
  0
LINE
  5
29F
330
1F
100
AcDbEntity
  8
0
  6
Continuous
 62
     7
370
    15
100
AcDbLine
 10
7.0302520866
 20
3.1983197723
 30
0.0
 11
7.0524655547
 21
3.1854948206
 31
0.0
  0
ARC
  5
2A0
330
1F
100
AcDbEntity
  8
0
  6
Continuous
 62
     7
370
    15
100
AcDbCircle
 10
6.9338995375
 20
3.2250814291
 30
0.0
 40
0.125000000000001
100
AcDbArc
 50
341.5369590328
 51
78.4630409672
  0
LINE
  5
2A1
330
1F
100
AcDbEntity
  8
0
  6
Continuous
 62
     7
370
    15
100
AcDbLine
 10
6.9588995375
 20
3.3475559162
 30
0.0
 11
6.9588995375
 21
3.3219060127
 31
0.0
  0
ARC
  5
2A2
330
1F
100
AcDbEntity
  8
0
  6
Continuous
 62
     7
370
    15
100
AcDbCircle
 10
6.9338995375
 20
3.2250814291
 30
0.0
 40
0.1000000000000004
100
AcDbArc
 50
344.4775121859
 51
75.5224878141
  0
LINE
  5
2A3
330
1F
100
AcDbEntity
  8
0
  6
Continuous
 62
     7
370
    15
100
AcDbLine
 10
6.9088995375
 20
3.3475559162
 30
0.0
 11
6.9088995375
 21
3.3219060127
 31
0.0
  0
ARC
  5
2A4
330
1F
100
AcDbEntity
  8
0
  6
Continuous
 62
     7
370
    15
100
AcDbCircle
 10
6.9338995375
 20
3.2250814291
 30
0.0
 40
0.1249999999999998
100
AcDbArc
 50
101.5369590328
 51
198.4630409672
  0
LINE
  5
2A5
330
1F
100
AcDbEntity
  8
0
  6
Continuous
 62
     7
370
    15
100
AcDbLine
 10
6.8153335203
 20
3.1854948206
 30
0.0
 11
6.8375469883
 21
3.1983197723
 31
0.0
  0
ARC
  5
2A6
330
1F
100
AcDbEntity
  8
0
  6
Continuous
 62
     7
370
    15
100
AcDbCircle
 10
6.9338995375
 20
3.2250814291
 30
0.0
 40
0.1000000000000002
100
AcDbArc
 50
104.4775121859
 51
195.5224878141
  0
LINE
  5
2A7
330
1F
100
AcDbEntity
  8
0
  6
Continuous
 62
     7
370
    15
100
AcDbLine
 10
6.8403335203
 20
3.1421935504
 30
0.0
 11
6.8625469883
 21
3.1550185021
 31
0.0
  0
ARC
  5
2A8
330
1F
100
AcDbEntity
  8
0
  6
Continuous
 62
     7
370
    15
100
AcDbCircle
 10
6.9338995375
 20
3.2250814291
 30
0.0
 40
0.1250000000000005
100
AcDbArc
 50
221.5369590328
 51
318.4630409672
  0
LINE
  5
2A9
330
1F
100
AcDbEntity
  8
0
  6
Continuous
 62
     7
370
    15
100
AcDbLine
 10
7.0052520866
 20
3.1550185021
 30
0.0
 11
7.0274655547
 21
3.1421935504
 31
0.0
  0
ARC
  5
2AA
330
1F
100
AcDbEntity
  8
0
  6
Continuous
 62
     7
370
    15
100
AcDbCircle
 10
6.9338995375
 20
3.2250814291
 30
0.0
 40
0.0999999999999997
100
AcDbArc
 50
224.4775121859
 51
315.5224878141
  0
ARC
  5
2AB
330
1F
100
AcDbEntity
  8
0
  6
Continuous
 62
     7
370
    15
100
AcDbCircle
 10
6.9338995375
 20
2.3250814291
 30
0.0
 40
0.1250000000000002
100
AcDbArc
 50
161.5369590328
 51
258.4630409672
  0
LINE
  5
2AC
330
1F
100
AcDbEntity
  8
0
  6
Continuous
 62
     7
370
    15
100
AcDbLine
 10
6.9088995375
 20
2.2026069419
 30
0.0
 11
6.9088995375
 21
2.2282568454
 31
0.0
  0
ARC
  5
2AD
330
1F
100
AcDbEntity
  8
0
  6
Continuous
 62
     7
370
    15
100
AcDbCircle
 10
6.9338995375
 20
2.3250814291
 30
0.0
 40
0.1000000000000002
100
AcDbArc
 50
164.4775121859
 51
255.5224878141
  0
LINE
  5
2AE
330
1F
100
AcDbEntity
  8
0
  6
Continuous
 62
     7
370
    15
100
AcDbLine
 10
6.8153335203
 20
2.3646680375
 30
0.0
 11
6.8375469883
 21
2.3518430858
 31
0.0
  0
LINE
  5
2AF
330
1F
100
AcDbEntity
  8
0
  6
Continuous
 62
     7
370
    15
100
AcDbLine
 10
11.3855245289
 20
2.8826871959
 30
0.0
 11
11.6101664333
 21
2.9023408159
 31
0.0
  0
ARC
  5
2B0
330
1F
100
AcDbEntity
  8
0
  6
Continuous
 62
     7
370
    15
100
AcDbCircle
 10
9.138440306
 20
2.7750814291
 30
0.0
 40
2.475000000000002
100
AcDbArc
 50
357.0526697171
 51
2.9473302829
  0
LINE
  5
2B1
330
1F
100
AcDbEntity
  8
0
  6
Continuous
 62
     7
370
    15
100
AcDbLine
 10
11.3855245289
 20
2.6674756622
 30
0.0
 11
11.6101664333
 21
2.6478220422
 31
0.0
  0
LINE
  5
2B2
330
1F
100
AcDbEntity
  8
0
  6
Continuous
 62
     7
370
    15
100
AcDbLine
 10
11.3855245289
 20
2.6674756622
 30
0.0
 11
11.3700718157
 21
2.4908503422
 31
0.0
  0
LINE
  5
2B3
330
1F
100
AcDbEntity
  8
0
  6
Continuous
 62
     7
370
    15
100
AcDbLine
 10
11.3700718157
 20
2.4908503422
 30
0.0
 11
11.5947137201
 21
2.4711967222
 31
0.0
  0
ARC
  5
2B4
330
1F
100
AcDbEntity
  8
0
  6
Continuous
 62
     7
370
    15
100
AcDbCircle
 10
9.138440306
 20
2.7750814291
 30
0.0
 40
2.475
100
AcDbArc
 50
277.0526697171
 51
352.9473302829
  0
LINE
  5
2B5
330
1F
100
AcDbEntity
  8
0
  6
Continuous
 62
     7
370
    15
100
AcDbLine
 10
9.4226713929
 20
0.5434499194
 30
0.0
 11
9.4423250128
 21
0.3188080149
 31
0.0
  0
LINE
  5
2B6
330
1F
100
AcDbEntity
  8
0
  6
Continuous
 62
     7
370
    15
100
AcDbLine
 10
9.4226713929
 20
0.5434499194
 30
0.0
 11
9.2460460729
 21
0.5279972062
 31
0.0
  0
LINE
  5
2B7
330
1F
100
AcDbEntity
  8
0
  6
Continuous
 62
     7
370
    15
100
AcDbLine
 10
9.2460460729
 20
0.5279972062
 30
0.0
 11
9.2656996929
 21
0.3033553017
 31
0.0
  0
ARC
  5
2B8
330
1F
100
AcDbEntity
  8
0
  6
Continuous
 62
     7
370
    15
100
AcDbCircle
 10
9.138440306
 20
2.7750814291
 30
0.0
 40
2.475
100
AcDbArc
 50
267.0526697171
 51
272.9473302829
  0
LINE
  5
2B9
330
1F
100
AcDbEntity
  8
0
  6
Continuous
 62
     7
370
    15
100
AcDbLine
 10
9.0308345391
 20
0.5279972062
 30
0.0
 11
9.0111809191
 21
0.3033553017
 31
0.0
  0
LINE
  5
2BA
330
1F
100
AcDbEntity
  8
0
  6
Continuous
 62
     7
370
    15
100
AcDbLine
 10
9.0308345391
 20
0.5279972062
 30
0.0
 11
8.8542092191
 21
0.5434499194
 31
0.0
  0
LINE
  5
2BB
330
1F
100
AcDbEntity
  8
0
  6
Continuous
 62
     7
370
    15
100
AcDbLine
 10
8.8542092191
 20
0.5434499194
 30
0.0
 11
8.8345555991
 21
0.3188080149
 31
0.0
  0
ARC
  5
2BC
330
1F
100
AcDbEntity
  8
0
  6
Continuous
 62
     7
370
    15
100
AcDbCircle
 10
9.138440306
 20
2.7750814291
 30
0.0
 40
2.475
100
AcDbArc
 50
187.0526697171
 51
262.9473302829
  0
LINE
  5
2BD
330
1F
100
AcDbEntity
  8
0
  6
Continuous
 62
     7
370
    15
100
AcDbLine
 10
6.9068087963
 20
2.4908503422
 30
0.0
 11
6.6821668919
 21
2.4711967222
 31
0.0
  0
LINE
  5
2BE
330
1F
100
AcDbEntity
  8
0
  6
Continuous
 62
     7
370
    15
100
AcDbLine
 10
6.9068087963
 20
2.4908503422
 30
0.0
 11
6.8913560831
 21
2.6674756622
 31
0.0
  0
LINE
  5
2BF
330
1F
100
AcDbEntity
  8
0
  6
Continuous
 62
     7
370
    15
100
AcDbLine
 10
6.8913560831
 20
2.6674756622
 30
0.0
 11
6.6667141787
 21
2.6478220422
 31
0.0
  0
ARC
  5
2C0
330
1F
100
AcDbEntity
  8
0
  6
Continuous
 62
     7
370
    15
100
AcDbCircle
 10
9.138440306
 20
2.7750814291
 30
0.0
 40
2.475
100
AcDbArc
 50
177.0526697171
 51
182.9473302829
  0
LINE
  5
2C1
330
1F
100
AcDbEntity
  8
0
  6
Continuous
 62
     7
370
    15
100
AcDbLine
 10
6.8913560831
 20
2.8826871959
 30
0.0
 11
6.6667141787
 21
2.9023408159
 31
0.0
  0
LINE
  5
2C2
330
1F
100
AcDbEntity
  8
0
  6
Continuous
 62
     7
370
    15
100
AcDbLine
 10
6.8913560831
 20
2.8826871959
 30
0.0
 11
6.9068087963
 21
3.0593125159
 31
0.0
  0
LINE
  5
2C3
330
1F
100
AcDbEntity
  8
0
  6
Continuous
 62
     7
370
    15
100
AcDbLine
 10
6.9068087963
 20
3.0593125159
 30
0.0
 11
6.6821668919
 21
3.0789661359
 31
0.0
  0
ARC
  5
2C4
330
1F
100
AcDbEntity
  8
0
  6
Continuous
 62
     7
370
    15
100
AcDbCircle
 10
9.138440306
 20
2.7750814291
 30
0.0
 40
2.475000000000001
100
AcDbArc
 50
97.0526697171
 51
172.9473302829
  0
LINE
  5
2C5
330
1F
100
AcDbEntity
  8
0
  6
Continuous
 62
     7
370
    15
100
AcDbLine
 10
8.8542092191
 20
5.0067129388
 30
0.0
 11
8.8345555991
 21
5.2313548432
 31
0.0
  0
LINE
  5
2C6
330
1F
100
AcDbEntity
  8
0
  6
Continuous
 62
     7
370
    15
100
AcDbLine
 10
8.8542092191
 20
5.0067129388
 30
0.0
 11
9.0308345391
 21
5.022165652
 31
0.0
  0
LINE
  5
2C7
330
1F
100
AcDbEntity
  8
0
  6
Continuous
 62
     7
370
    15
100
AcDbLine
 10
9.0308345391
 20
5.022165652
 30
0.0
 11
9.0111809191
 21
5.2468075564
 31
0.0
  0
ARC
  5
2C8
330
1F
100
AcDbEntity
  8
0
  6
Continuous
 62
     7
370
    15
100
AcDbCircle
 10
9.138440306
 20
2.7750814291
 30
0.0
 40
2.475000000000001
100
AcDbArc
 50
87.0526697171
 51
92.9473302829
  0
LINE
  5
2C9
330
1F
100
AcDbEntity
  8
0
  6
Continuous
 62
     7
370
    15
100
AcDbLine
 10
9.2460460729
 20
5.022165652
 30
0.0
 11
9.2656996929
 21
5.2468075564
 31
0.0
  0
LINE
  5
2CA
330
1F
100
AcDbEntity
  8
0
  6
Continuous
 62
     7
370
    15
100
AcDbLine
 10
9.2460460729
 20
5.022165652
 30
0.0
 11
9.4226713929
 21
5.0067129388
 31
0.0
  0
LINE
  5
2CB
330
1F
100
AcDbEntity
  8
0
  6
Continuous
 62
     7
370
    15
100
AcDbLine
 10
9.4226713929
 20
5.0067129388
 30
0.0
 11
9.4423250128
 21
5.2313548432
 31
0.0
  0
ARC
  5
2CC
330
1F
100
AcDbEntity
  8
0
  6
Continuous
 62
     7
370
    15
100
AcDbCircle
 10
9.138440306
 20
2.7750814291
 30
0.0
 40
2.475000000000001
100
AcDbArc
 50
7.0526697171
 51
82.9473302829
  0
LINE
  5
2CD
330
1F
100
AcDbEntity
  8
0
  6
Continuous
 62
     7
370
    15
100
AcDbLine
 10
11.3700718157
 20
3.0593125159
 30
0.0
 11
11.5947137201
 21
3.0789661359
 31
0.0
  0
LINE
  5
2CE
330
1F
100
AcDbEntity
  8
0
  6
Continuous
 62
     7
370
    15
100
AcDbLine
 10
11.3700718157
 20
3.0593125159
 30
0.0
 11
11.3855245289
 21
2.8826871959
 31
0.0
  0
ARC
  5
2CF
330
1F
100
AcDbEntity
  8
0
  6
Continuous
 62
     7
370
    15
100
AcDbCircle
 10
6.9338995375
 20
2.3250814291
 30
0.0
 40
0.1250000000000008
100
AcDbArc
 50
41.5369590328
 51
138.4630409672
  0
LINE
  5
2D0
330
1F
100
AcDbEntity
  8
0
  6
Continuous
 62
     7
370
    15
100
AcDbLine
 10
6.8403335203
 20
2.4079693077
 30
0.0
 11
6.8625469883
 21
2.395144356
 31
0.0
  0
ARC
  5
2D1
330
1F
100
AcDbEntity
  8
0
  6
Continuous
 62
     7
370
    15
100
AcDbCircle
 10
6.9338995375
 20
2.3250814291
 30
0.0
 40
0.0999999999999997
100
AcDbArc
 50
44.4775121859
 51
135.5224878141
  0
LINE
  5
2D2
330
1F
100
AcDbEntity
  8
0
  6
Continuous
 62
     7
370
    15
100
AcDbLine
 10
7.0052520866
 20
2.395144356
 30
0.0
 11
7.0274655547
 21
2.4079693077
 31
0.0
  0
ARC
  5
2D3
330
1F
100
AcDbEntity
  8
0
  6
Continuous
 62
     7
370
    15
100
AcDbCircle
 10
6.9338995375
 20
2.3250814291
 30
0.0
 40
0.1250000000000011
100
AcDbArc
 50
281.5369590328
 51
18.4630409672
  0
LINE
  5
2D4
330
1F
100
AcDbEntity
  8
0
  6
Continuous
 62
     7
370
    15
100
AcDbLine
 10
7.0302520866
 20
2.3518430858
 30
0.0
 11
7.0524655547
 21
2.3646680375
 31
0.0
  0
ARC
  5
2D5
330
1F
100
AcDbEntity
  8
0
  6
Continuous
 62
     7
370
    15
100
AcDbCircle
 10
6.9338995375
 20
2.3250814291
 30
0.0
 40
0.1000000000000004
100
AcDbArc
 50
284.4775121859
 51
15.5224878141
  0
LINE
  5
2D6
330
1F
100
AcDbEntity
  8
0
  6
Continuous
 62
     7
370
    15
100
AcDbLine
 10
6.9588995375
 20
2.2026069419
 30
0.0
 11
6.9588995375
 21
2.2282568454
 31
0.0
  0
ARC
  5
2D7
330
1F
100
AcDbEntity
  8
0
  6
Continuous
 62
     7
370
    15
100
AcDbCircle
 10
8.688440306
 20
4.9796221976
 30
0.0
 40
0.1250000000000004
100
AcDbArc
 50
71.5369590328
 51
168.4630409672
  0
LINE
  5
2D8
330
1F
100
AcDbEntity
  8
0
  6
Continuous
 62
     7
370
    15
100
AcDbLine
 10
8.5659658188
 20
5.0046221976
 30
0.0
 11
8.5916157223
 21
5.0046221976
 31
0.0
  0
ARC
  5
2D9
330
1F
100
AcDbEntity
  8
0
  6
Continuous
 62
     7
370
    15
100
AcDbCircle
 10
8.688440306
 20
4.9796221976
 30
0.0
 40
0.1000000000000008
100
AcDbArc
 50
74.4775121859
 51
165.5224878141
  0
LINE
  5
2DA
330
1F
100
AcDbEntity
  8
0
  6
Continuous
 62
     7
370
    15
100
AcDbLine
 10
8.7280269145
 20
5.0981882147
 30
0.0
 11
8.7152019627
 21
5.0759747467
 31
0.0
  0
ARC
  5
2DB
330
1F
100
AcDbEntity
  8
0
  6
Continuous
 62
     7
370
    15
100
AcDbCircle
 10
11.3429810745
 20
3.2250814291
 30
0.0
 40
0.1250000000000005
100
AcDbArc
 50
221.5369590328
 51
318.4630409672
  0
LINE
  5
2DC
330
1F
100
AcDbEntity
  8
0
  6
Continuous
 62
     7
370
    15
100
AcDbLine
 10
11.4365470917
 20
3.1421935504
 30
0.0
 11
11.4143336236
 21
3.1550185021
 31
0.0
  0
ARC
  5
2DD
330
1F
100
AcDbEntity
  8
0
  6
Continuous
 62
     7
370
    15
100
AcDbCircle
 10
11.3429810745
 20
3.2250814291
 30
0.0
 40
0.1
100
AcDbArc
 50
224.4775121859
 51
315.5224878141
  0
LINE
  5
2DE
330
1F
100
AcDbEntity
  8
0
  6
Continuous
 62
     7
370
    15
100
AcDbLine
 10
11.2716285253
 20
3.1550185021
 30
0.0
 11
11.2494150573
 21
3.1421935504
 31
0.0
  0
ARC
  5
2DF
330
1F
100
AcDbEntity
  8
0
  6
Continuous
 62
     7
370
    15
100
AcDbCircle
 10
11.3429810745
 20
3.2250814291
 30
0.0
 40
0.125000000000001
100
AcDbArc
 50
101.5369590328
 51
198.4630409672
  0
LINE
  5
2E0
330
1F
100
AcDbEntity
  8
0
  6
Continuous
 62
     7
370
    15
100
AcDbLine
 10
11.2466285253
 20
3.1983197723
 30
0.0
 11
11.2244150573
 21
3.1854948206
 31
0.0
  0
ARC
  5
2E1
330
1F
100
AcDbEntity
  8
0
  6
Continuous
 62
     7
370
    15
100
AcDbCircle
 10
11.3429810745
 20
3.2250814291
 30
0.0
 40
0.1000000000000004
100
AcDbArc
 50
104.4775121859
 51
195.5224878141
  0
LINE
  5
2E2
330
1F
100
AcDbEntity
  8
0
  6
Continuous
 62
     7
370
    15
100
AcDbLine
 10
11.3179810745
 20
3.3475559162
 30
0.0
 11
11.3179810745
 21
3.3219060127
 31
0.0
  0
ARC
  5
2E3
330
1F
100
AcDbEntity
  8
0
  6
Continuous
 62
     7
370
    15
100
AcDbCircle
 10
9.588440306
 20
0.5705406606
 30
0.0
 40
0.125000000000001
100
AcDbArc
 50
251.5369590328
 51
348.4630409672
  0
LINE
  5
2E4
330
1F
100
AcDbEntity
  8
0
  6
Continuous
 62
     7
370
    15
100
AcDbLine
 10
9.7109147931
 20
0.5455406606
 30
0.0
 11
9.6852648896
 21
0.5455406606
 31
0.0
  0
ARC
  5
2E5
330
1F
100
AcDbEntity
  8
0
  6
Continuous
 62
     7
370
    15
100
AcDbCircle
 10
9.588440306
 20
0.5705406606
 30
0.0
 40
0.100000000000001
100
AcDbArc
 50
254.4775121859
 51
345.5224878141
  0
LINE
  5
2E6
330
1F
100
AcDbEntity
  8
0
  6
Continuous
 62
     7
370
    15
100
AcDbLine
 10
9.5488536975
 20
0.4519746434
 30
0.0
 11
9.5616786493
 21
0.4741881114
 31
0.0
  0
LINE
  5
2E7
330
1F
100
AcDbEntity
  8
0
  6
Continuous
 62
     7
370
    15
100
AcDbLine
 10
9.5055524273
 20
5.0731882147
 30
0.0
 11
9.5183773791
 21
5.0509747467
 31
0.0
  0
ARC
  5
2E8
330
1F
100
AcDbEntity
  8
0
  6
Continuous
 62
     7
370
    15
100
AcDbCircle
 10
9.588440306
 20
4.9796221976
 30
0.0
 40
0.1250000000000011
100
AcDbArc
 50
131.5369590328
 51
228.4630409672
  0
LINE
  5
2E9
330
1F
100
AcDbEntity
  8
0
  6
Continuous
 62
     7
370
    15
100
AcDbLine
 10
9.5183773791
 20
4.9082696484
 30
0.0
 11
9.5055524273
 21
4.8860561804
 31
0.0
  0
ARC
  5
2EA
330
1F
100
AcDbEntity
  8
0
  6
Continuous
 62
     7
370
    15
100
AcDbCircle
 10
9.588440306
 20
4.9796221976
 30
0.0
 40
0.0999999999999991
100
AcDbArc
 50
134.4775121859
 51
225.5224878141
  0
LINE
  5
2EB
330
1F
100
AcDbEntity
  8
0
  6
Continuous
 62
     7
370
    15
100
AcDbLine
 10
9.7109147931
 20
5.0046221976
 30
0.0
 11
9.6852648896
 21
5.0046221976
 31
0.0
  0
ARC
  5
2EC
330
1F
100
AcDbEntity
  8
0
  6
Continuous
 62
     7
370
    15
100
AcDbCircle
 10
9.588440306
 20
4.9796221976
 30
0.0
 40
0.1249999999999998
100
AcDbArc
 50
11.5369590328
 51
108.4630409672
  0
LINE
  5
2ED
330
1F
100
AcDbEntity
  8
0
  6
Continuous
 62
     7
370
    15
100
AcDbLine
 10
9.5488536975
 20
5.0981882147
 30
0.0
 11
9.5616786493
 21
5.0759747467
 31
0.0
  0
ARC
  5
2EE
330
1F
100
AcDbEntity
  8
0
  6
Continuous
 62
     7
370
    15
100
AcDbCircle
 10
9.588440306
 20
4.9796221976
 30
0.0
 40
0.1000000000000004
100
AcDbArc
 50
14.4775121859
 51
105.5224878141
  0
LINE
  5
2EF
330
1F
100
AcDbEntity
  8
0
  6
Continuous
 62
     7
370
    15
100
AcDbLine
 10
9.5616786493
 20
4.8832696484
 30
0.0
 11
9.5488536975
 21
4.8610561804
 31
0.0
  0
ARC
  5
2F0
330
1F
100
AcDbEntity
  8
0
  6
Continuous
 62
     7
370
    15
100
AcDbCircle
 10
9.588440306
 20
4.9796221976
 30
0.0
 40
0.1250000000000004
100
AcDbArc
 50
251.5369590328
 51
348.4630409672
  0
LINE
  5
2F1
330
1F
100
AcDbEntity
  8
0
  6
Continuous
 62
     7
370
    15
100
AcDbLine
 10
9.7109147931
 20
4.9546221976
 30
0.0
 11
9.6852648896
 21
4.9546221976
 31
0.0
  0
ARC
  5
2F2
330
1F
100
AcDbEntity
  8
0
  6
Continuous
 62
     7
370
    15
100
AcDbCircle
 10
9.588440306
 20
4.9796221976
 30
0.0
 40
0.1000000000000011
100
AcDbArc
 50
254.4775121859
 51
345.5224878141
  0
LINE
  5
2F3
330
1F
100
AcDbEntity
  8
0
  6
Continuous
 62
     7
370
    15
100
AcDbLine
 10
11.4365470917
 20
2.4079693077
 30
0.0
 11
11.4143336236
 21
2.395144356
 31
0.0
  0
ARC
  5
2F4
330
1F
100
AcDbEntity
  8
0
  6
Continuous
 62
     7
370
    15
100
AcDbCircle
 10
11.3429810745
 20
2.3250814291
 30
0.0
 40
0.1250000000000008
100
AcDbArc
 50
41.5369590328
 51
138.4630409672
  0
LINE
  5
2F5
330
1F
100
AcDbEntity
  8
0
  6
Continuous
 62
     7
370
    15
100
AcDbLine
 10
11.2716285253
 20
2.395144356
 30
0.0
 11
11.2494150573
 21
2.4079693077
 31
0.0
  0
ARC
  5
2F6
330
1F
100
AcDbEntity
  8
0
  6
Continuous
 62
     7
370
    15
100
AcDbCircle
 10
11.3429810745
 20
2.3250814291
 30
0.0
 40
0.0999999999999994
100
AcDbArc
 50
44.4775121859
 51
135.5224878141
  0
LINE
  5
2F7
330
1F
100
AcDbEntity
  8
0
  6
Continuous
 62
     7
370
    15
100
AcDbLine
 10
11.3679810745
 20
2.2026069419
 30
0.0
 11
11.3679810745
 21
2.2282568454
 31
0.0
  0
ARC
  5
2F8
330
1F
100
AcDbEntity
  8
0
  6
Continuous
 62
     7
370
    15
100
AcDbCircle
 10
11.3429810745
 20
2.3250814291
 30
0.0
 40
0.125
100
AcDbArc
 50
281.5369590328
 51
18.4630409672
  0
LINE
  5
2F9
330
1F
100
AcDbEntity
  8
0
  6
Continuous
 62
     7
370
    15
100
AcDbLine
 10
11.4615470917
 20
2.3646680375
 30
0.0
 11
11.4393336236
 21
2.3518430858
 31
0.0
  0
ARC
  5
2FA
330
1F
100
AcDbEntity
  8
0
  6
Continuous
 62
     7
370
    15
100
AcDbCircle
 10
11.3429810745
 20
2.3250814291
 30
0.0
 40
0.1
100
AcDbArc
 50
284.4775121859
 51
15.5224878141
  0
LINE
  5
2FB
330
1F
100
AcDbEntity
  8
0
  6
Continuous
 62
     7
370
    15
100
AcDbLine
 10
11.2466285253
 20
2.3518430858
 30
0.0
 11
11.2244150573
 21
2.3646680375
 31
0.0
  0
ARC
  5
2FC
330
1F
100
AcDbEntity
  8
0
  6
Continuous
 62
     7
370
    15
100
AcDbCircle
 10
11.3429810745
 20
2.3250814291
 30
0.0
 40
0.1250000000000011
100
AcDbArc
 50
161.5369590328
 51
258.4630409672
  0
LINE
  5
2FD
330
1F
100
AcDbEntity
  8
0
  6
Continuous
 62
     7
370
    15
100
AcDbLine
 10
11.3179810745
 20
2.2026069419
 30
0.0
 11
11.3179810745
 21
2.2282568454
 31
0.0
  0
ARC
  5
2FE
330
1F
100
AcDbEntity
  8
0
  6
Continuous
 62
     7
370
    15
100
AcDbCircle
 10
11.3429810745
 20
2.3250814291
 30
0.0
 40
0.1000000000000004
100
AcDbArc
 50
164.4775121859
 51
255.5224878141
  0
LINE
  5
2FF
330
1F
100
AcDbEntity
  8
0
  6
Continuous
 62
     7
370
    15
100
AcDbLine
 10
8.7713281847
 20
0.4769746434
 30
0.0
 11
8.7585032329
 21
0.4991881114
 31
0.0
  0
ARC
  5
300
330
1F
100
AcDbEntity
  8
0
  6
Continuous
 62
     7
370
    15
100
AcDbCircle
 10
8.688440306
 20
0.5705406606
 30
0.0
 40
0.1250000000000004
100
AcDbArc
 50
311.5369590328
 51
48.4630409672
  0
LINE
  5
301
330
1F
100
AcDbEntity
  8
0
  6
Continuous
 62
     7
370
    15
100
AcDbLine
 10
8.7585032329
 20
0.6418932097
 30
0.0
 11
8.7713281847
 21
0.6641066777
 31
0.0
  0
ARC
  5
302
330
1F
100
AcDbEntity
  8
0
  6
Continuous
 62
     7
370
    15
100
AcDbCircle
 10
8.688440306
 20
0.5705406606
 30
0.0
 40
0.0999999999999995
100
AcDbArc
 50
314.4775121859
 51
45.5224878141
  0
LINE
  5
303
330
1F
100
AcDbEntity
  8
0
  6
Continuous
 62
     7
370
    15
100
AcDbLine
 10
8.5659658188
 20
0.5455406606
 30
0.0
 11
8.5916157223
 21
0.5455406606
 31
0.0
  0
ARC
  5
304
330
1F
100
AcDbEntity
  8
0
  6
Continuous
 62
     7
370
    15
100
AcDbCircle
 10
8.688440306
 20
0.5705406606
 30
0.0
 40
0.1250000000000005
100
AcDbArc
 50
191.5369590328
 51
288.4630409672
  0
LINE
  5
305
330
1F
100
AcDbEntity
  8
0
  6
Continuous
 62
     7
370
    15
100
AcDbLine
 10
8.7280269145
 20
0.4519746434
 30
0.0
 11
8.7152019627
 21
0.4741881114
 31
0.0
  0
ARC
  5
306
330
1F
100
AcDbEntity
  8
0
  6
Continuous
 62
     7
370
    15
100
AcDbCircle
 10
8.688440306
 20
0.5705406606
 30
0.0
 40
0.1000000000000004
100
AcDbArc
 50
194.4775121859
 51
285.5224878141
  0
LINE
  5
307
330
1F
100
AcDbEntity
  8
0
  6
Continuous
 62
     7
370
    15
100
AcDbLine
 10
8.7152019627
 20
0.6668932097
 30
0.0
 11
8.7280269145
 21
0.6891066777
 31
0.0
  0
ARC
  5
308
330
1F
100
AcDbEntity
  8
0
  6
Continuous
 62
     7
370
    15
100
AcDbCircle
 10
8.688440306
 20
0.5705406606
 30
0.0
 40
0.125000000000001
100
AcDbArc
 50
71.5369590328
 51
168.4630409672
  0
LINE
  5
309
330
1F
100
AcDbEntity
  8
0
  6
Continuous
 62
     7
370
    15
100
AcDbLine
 10
8.5659658188
 20
0.5955406606
 30
0.0
 11
8.5916157223
 21
0.5955406606
 31
0.0
  0
ARC
  5
30A
330
1F
100
AcDbEntity
  8
0
  6
Continuous
 62
     7
370
    15
100
AcDbCircle
 10
8.688440306
 20
0.5705406606
 30
0.0
 40
0.100000000000001
100
AcDbArc
 50
74.4775121859
 51
165.5224878141
  0
ENDSEC
  0
SECTION
  2
OBJECTS
  0
DICTIONARY
  5
C
330
0
100
AcDbDictionary
281
     1
  3
ACAD_GROUP
350
D
  3
ACAD_LAYOUT
350
1A
  3
ACAD_MLINESTYLE
350
17
  3
ACAD_PLOTSETTINGS
350
19
  3
ACAD_PLOTSTYLENAME
350
E
  0
DICTIONARY
  5
D
102
{ACAD_REACTORS
330
C
102
}
330
C
100
AcDbDictionary
281
     1
  0
DICTIONARY
  5
1A
102
{ACAD_REACTORS
330
C
102
}
330
C
100
AcDbDictionary
281
     1
  3
Layout1
350
1E
  3
Layout2
350
26
  3
Model
350
22
  0
DICTIONARY
  5
17
102
{ACAD_REACTORS
330
C
102
}
330
C
100
AcDbDictionary
281
     1
  3
Standard
350
18
  0
DICTIONARY
  5
19
102
{ACAD_REACTORS
330
C
102
}
330
C
100
AcDbDictionary
281
     1
  0
ACDBDICTIONARYWDFLT
  5
E
102
{ACAD_REACTORS
330
C
102
}
330
C
100
AcDbDictionary
281
     1
  3
Normal
350
F
100
AcDbDictionaryWithDefault
340
F
  0
LAYOUT
  5
1E
102
{ACAD_REACTORS
330
1A
102
}
330
1A
100
AcDbPlotSettings
  1

  2
none_device
  4

  6

 40
0.0
 41
0.0
 42
0.0
 43
0.0
 44
0.0
 45
0.0
 46
0.0
 47
0.0
 48
0.0
 49
0.0
140
0.0
141
0.0
142
1.0
143
1.0
 70
   688
 72
     0
 73
     0
 74
     5
  7

 75
    16
147
1.0
148
0.0
149
0.0
100
AcDbLayout
  1
Layout1
 70
     1
 71
     1
 10
0.0
 20
0.0
 11
12.0
 21
9.0
 12
0.0
 22
0.0
 32
0.0
 14
1.0000000000E+20
 24
1.0000000000E+20
 34
1.0000000000E+20
 15
-1.0000000000E+20
 25
-1.0000000000E+20
 35
-1.0000000000E+20
146
0.0
 13
0.0
 23
0.0
 33
0.0
 16
1.0
 26
0.0
 36
0.0
 17
0.0
 27
1.0
 37
0.0
 76
     0
330
1B
  0
LAYOUT
  5
26
102
{ACAD_REACTORS
330
1A
102
}
330
1A
100
AcDbPlotSettings
  1

  2
none_device
  4

  6

 40
0.0
 41
0.0
 42
0.0
 43
0.0
 44
0.0
 45
0.0
 46
0.0
 47
0.0
 48
0.0
 49
0.0
140
0.0
141
0.0
142
1.0
143
1.0
 70
   688
 72
     0
 73
     0
 74
     5
  7

 75
    16
147
1.0
148
0.0
149
0.0
100
AcDbLayout
  1
Layout2
 70
     1
 71
     2
 10
0.0
 20
0.0
 11
0.0
 21
0.0
 12
0.0
 22
0.0
 32
0.0
 14
0.0
 24
0.0
 34
0.0
 15
0.0
 25
0.0
 35
0.0
146
0.0
 13
0.0
 23
0.0
 33
0.0
 16
1.0
 26
0.0
 36
0.0
 17
0.0
 27
1.0
 37
0.0
 76
     0
330
23
  0
LAYOUT
  5
22
102
{ACAD_REACTORS
330
1A
102
}
330
1A
100
AcDbPlotSettings
  1

  2
none_device
  4

  6

 40
0.0
 41
0.0
 42
0.0
 43
0.0
 44
0.0
 45
0.0
 46
0.0
 47
0.0
 48
0.0
 49
0.0
140
0.0
141
0.0
142
1.0
143
1.0
 70
  1712
 72
     0
 73
     0
 74
     0
  7

 75
     0
147
1.0
148
0.0
149
0.0
100
AcDbLayout
  1
Model
 70
     1
 71
     0
 10
0.0
 20
0.0
 11
17.0
 21
11.0
 12
0.0
 22
0.0
 32
0.0
 14
0.0
 24
0.0
 34
0.0
 15
17.0
 25
11.0
 35
0.0
146
0.0
 13
0.0
 23
0.0
 33
0.0
 16
1.0
 26
0.0
 36
0.0
 17
0.0
 27
1.0
 37
0.0
 76
     0
330
1F
331
29
  0
MLINESTYLE
  5
18
102
{ACAD_REACTORS
330
17
102
}
330
17
100
AcDbMlineStyle
  2
Standard
 70
     0
  3

 62
   256
 51
90.0
 52
90.0
 71
     2
 49
0.5
 62
   256
  6
BYLAYER
 49
-0.5
 62
   256
  6
BYLAYER
  0
ACDBPLACEHOLDER
  5
F
102
{ACAD_REACTORS
330
E
102
}
330
E
  0
ENDSEC
  0
EOF
